<?xml version="1.0" encoding="UTF-8"?>
<!DOCTYPE svg PUBLIC "-//W3C//DTD SVG 1.1//EN" "http://www.w3.org/Graphics/SVG/1.1/DTD/svg11.dtd">
<svg xmlns="http://www.w3.org/2000/svg" version="1.1" width="200px" height="200px" style="shape-rendering:geometricPrecision; text-rendering:geometricPrecision; image-rendering:optimizeQuality; fill-rule:evenodd; clip-rule:evenodd" xmlns:xlink="http://www.w3.org/1999/xlink">
<g><path style="opacity:0.004" fill="#000000" d="M 57.5,35.5 C 56.8333,34.1667 56.8333,34.1667 57.5,35.5 Z"/></g>
<g><path style="opacity:0.01" fill="#000000" d="M 148.5,36.5 C 141.957,36.4565 141.957,35.7898 148.5,34.5C 149.463,34.9698 149.463,35.6365 148.5,36.5 Z"/></g>
<g><path style="opacity:0.004" fill="#000000" d="M 56.5,35.5 C 55.8333,36.1667 55.8333,36.1667 56.5,35.5 Z"/></g>
<g><path style="opacity:0.013" fill="#000000" d="M 57.5,35.5 C 58.8734,35.3433 60.2068,35.51 61.5,36C 59.9343,36.765 58.6009,36.5983 57.5,35.5 Z"/></g>
<g><path style="opacity:0.007" fill="#000000" d="M 62.5,37.5 C 63.9464,36.3871 65.6131,36.2204 67.5,37C 65.8659,37.4935 64.1992,37.6602 62.5,37.5 Z"/></g>
<g><path style="opacity:0.01" fill="#000000" d="M 53.5,45.5 C 52.5489,46.9187 52.2155,48.5853 52.5,50.5C 52.1667,50.5 51.8333,50.5 51.5,50.5C 51.4571,47.0901 51.9571,43.7568 53,40.5C 53.4935,42.1341 53.6602,43.8008 53.5,45.5 Z"/></g>
<g><path style="opacity:0.998" fill="#101828" d="M 148.5,36.5 C 149.985,38.2488 150.985,40.2488 151.5,42.5C 151.5,44.1667 151.5,45.8333 151.5,47.5C 154.167,64.1668 156.833,80.8334 159.5,97.5C 156.72,98.8202 153.72,99.3202 150.5,99C 152.119,98.7645 153.119,97.9311 153.5,96.5C 150.833,79.1668 148.167,61.8334 145.5,44.5C 129.428,46.128 116.261,53.128 106,65.5C 104.906,67.0779 104.072,68.7446 103.5,70.5C 100.198,65.5969 96.1983,61.2636 91.5,57.5C 82.4466,50.2046 72.1132,46.3712 60.5,46C 57.2317,62.7084 54.565,79.5418 52.5,96.5C 53.8333,96.5 55.1667,96.5 56.5,96.5C 55.3915,97.29 54.0581,97.79 52.5,98C 53.5,98.3333 54.5,98.6667 55.5,99C 52.7929,99.3283 50.1262,98.995 47.5,98C 48.8333,96 48.8333,94 47.5,92C 50.6248,88.5256 50.9581,84.6922 48.5,80.5C 50.5004,68.8301 52.5004,57.1635 54.5,45.5C 54.5751,42.7938 54.9084,40.1272 55.5,37.5C 63.0006,37.9722 70.3339,39.3055 77.5,41.5C 78.7804,42.9313 80.4471,43.5979 82.5,43.5C 87.144,46.4661 91.8107,49.4661 96.5,52.5C 96.5,53.1667 96.8333,53.5 97.5,53.5C 97.5,54.1667 97.8333,54.5 98.5,54.5C 98.5,55.1667 98.8333,55.5 99.5,55.5C 99.5,56.1667 99.8333,56.5 100.5,56.5C 100.5,57.1667 100.833,57.5 101.5,57.5C 101.5,58.1667 101.833,58.5 102.5,58.5C 102.833,59.8333 103.167,59.8333 103.5,58.5C 104.803,56.8577 106.136,55.1911 107.5,53.5C 109.027,53.573 110.027,52.9063 110.5,51.5C 114.702,48.5683 119.035,45.9016 123.5,43.5C 125.553,43.5979 127.22,42.9313 128.5,41.5C 129.791,41.7373 130.791,41.404 131.5,40.5C 134.152,40.5905 136.485,39.9238 138.5,38.5C 142.078,38.4512 145.411,37.7846 148.5,36.5 Z M 138.5,38.5 C 136.485,39.9238 134.152,40.5905 131.5,40.5C 133.515,39.0762 135.848,38.4095 138.5,38.5 Z M 77.5,41.5 C 79.5529,41.4021 81.2196,42.0687 82.5,43.5C 80.4471,43.5979 78.7804,42.9313 77.5,41.5 Z M 128.5,41.5 C 127.22,42.9313 125.553,43.5979 123.5,43.5C 124.78,42.0687 126.447,41.4021 128.5,41.5 Z M 110.5,51.5 C 110.027,52.9063 109.027,53.573 107.5,53.5C 107.973,52.0937 108.973,51.427 110.5,51.5 Z"/></g>
<g><path style="opacity:0.013" fill="#222424" d="M 153.5,50.5 C 153.737,49.209 153.404,48.209 152.5,47.5C 152.784,45.5853 152.451,43.9187 151.5,42.5C 151.34,40.8008 151.506,39.1341 152,37.5C 152.897,41.1522 153.73,44.8189 154.5,48.5C 154.457,49.4164 154.124,50.0831 153.5,50.5 Z"/></g>
<g><path style="opacity:1" fill="#eef2f3" d="M 91.5,57.5 C 92.2309,59.5988 92.2309,61.5988 91.5,63.5C 83.4134,57.2902 74.4134,52.9569 64.5,50.5C 64.5,51.5 64.5,52.5 64.5,53.5C 74.503,55.5015 83.503,59.6682 91.5,66C 92.7383,66.69 92.7383,67.19 91.5,67.5C 91.1667,67.5 90.8333,67.5 90.5,67.5C 87.3752,66.5206 84.0419,66.1872 80.5,66.5C 80.5,67.8333 80.5,69.1667 80.5,70.5C 74.574,68.8519 68.574,67.5186 62.5,66.5C 62.5,67.8333 62.5,69.1667 62.5,70.5C 65.8394,70.8897 69.1727,71.3897 72.5,72C 75.4202,73.316 78.4202,74.4827 81.5,75.5C 82.5318,78.5697 83.8652,81.5697 85.5,84.5C 78.2667,80.7695 70.6,78.1029 62.5,76.5C 61.1696,78.3469 61.503,79.8469 63.5,81C 70.9212,82.3799 77.9212,84.8799 84.5,88.5C 85.0102,91.3878 84.3435,93.7211 82.5,95.5C 75.3793,91.2377 67.7127,88.571 59.5,87.5C 59.33,88.8221 59.6634,89.9887 60.5,91C 69.3954,92.6789 77.3954,96.1789 84.5,101.5C 84.7845,103.415 84.4511,105.081 83.5,106.5C 75.0156,101.757 66.0156,98.4237 56.5,96.5C 55.1667,96.5 53.8333,96.5 52.5,96.5C 54.565,79.5418 57.2317,62.7084 60.5,46C 72.1132,46.3712 82.4466,50.2046 91.5,57.5 Z"/></g>
<g><path style="opacity:1" fill="#eef2f3" d="M 153.5,96.5 C 136.697,98.071 122.363,104.738 110.5,116.5C 108.994,113.531 109.327,110.698 111.5,108C 121.052,99.5559 132.052,93.7226 144.5,90.5C 145.386,89.675 145.719,88.675 145.5,87.5C 131.714,89.6431 119.88,95.6431 110,105.5C 109.333,102.5 109.333,99.5 110,96.5C 119.777,87.5292 131.277,82.1959 144.5,80.5C 144.5,79.1667 144.5,77.8333 144.5,76.5C 136.022,77.2704 128.189,79.9371 121,84.5C 120.601,84.2716 120.435,83.9382 120.5,83.5C 121.559,80.3821 122.892,77.3821 124.5,74.5C 130.662,72.4008 136.995,71.0675 143.5,70.5C 143.5,69.1667 143.5,67.8333 143.5,66.5C 136.984,67.0697 130.651,68.403 124.5,70.5C 124.5,69.5 124.5,68.5 124.5,67.5C 120.833,67.5 117.167,67.5 113.5,67.5C 112.761,67.631 112.094,67.4643 111.5,67C 120.616,61.0463 130.283,56.213 140.5,52.5C 136.008,51.8661 131.675,52.6995 127.5,55C 121.323,57.9193 115.656,61.5859 110.5,66C 109.663,67.0113 109.33,68.1779 109.5,69.5C 107.216,69.9752 105.216,70.9752 103.5,72.5C 102.494,72.0623 102.494,71.3957 103.5,70.5C 104.072,68.7446 104.906,67.0779 106,65.5C 116.261,53.128 129.428,46.128 145.5,44.5C 148.167,61.8334 150.833,79.1668 153.5,96.5 Z"/></g>
<g><path style="opacity:0.007" fill="#000000" d="M 49.5,51.5 C 49.5,51.8333 49.5,52.1667 49.5,52.5C 48.5084,52.3284 47.8417,52.6618 47.5,53.5C 46.5084,53.3284 45.8417,53.6618 45.5,54.5C 44.8333,54.5 44.1667,54.5 43.5,54.5C 44.911,52.461 46.911,51.461 49.5,51.5 Z"/></g>
<g><path style="opacity:0.01" fill="#464646" d="M 96.5,52.5 C 99.0949,52.0403 100.762,53.3737 101.5,56.5C 101.167,56.5 100.833,56.5 100.5,56.5C 99.8333,56.5 99.5,56.1667 99.5,55.5C 98.8333,55.5 98.5,55.1667 98.5,54.5C 97.8333,54.5 97.5,54.1667 97.5,53.5C 96.8333,53.5 96.5,53.1667 96.5,52.5 Z"/></g>
<g><path style="opacity:0.007" fill="#000000" d="M 43.5,54.5 C 43.5,55.1667 43.5,55.8333 43.5,56.5C 42.8333,56.5 42.5,56.8333 42.5,57.5C 42.1667,57.5 41.8333,57.5 41.5,57.5C 41.427,55.9731 42.0937,54.9731 43.5,54.5 Z"/></g>
<g><path style="opacity:0.998" fill="#e8ebeb" d="M 53.5,45.5 C 53.8333,45.5 54.1667,45.5 54.5,45.5C 52.5004,57.1635 50.5004,68.8301 48.5,80.5C 47.1743,87.1027 46.1743,93.7693 45.5,100.5C 59.3002,101.655 71.9668,105.989 83.5,113.5C 87.3157,118.44 91.149,123.44 95,128.5C 95.6917,129.437 95.525,130.103 94.5,130.5C 79.4537,115.365 61.1204,108.031 39.5,108.5C 39.7135,110.144 39.3802,111.644 38.5,113C 51.7138,114.207 64.3804,117.373 76.5,122.5C 77.9093,124.417 79.576,126.25 81.5,128C 77.7123,127.452 74.0456,126.285 70.5,124.5C 57.5619,121.096 44.5619,120.762 31.5,123.5C 35.4213,102.061 39.9213,80.7278 45,59.5C 46.1096,57.9632 47.6096,57.2965 49.5,57.5C 49.5,56.1667 49.5,54.8333 49.5,53.5C 50.8333,53.1667 50.8333,52.8333 49.5,52.5C 49.5,52.1667 49.5,51.8333 49.5,51.5C 50.1667,51.1667 50.8333,50.8333 51.5,50.5C 51.8333,55.8333 52.1667,55.8333 52.5,50.5C 53.4511,49.0813 53.7845,47.4147 53.5,45.5 Z"/></g>
<g><path style="opacity:0.008" fill="#3f3f3f" d="M 101.5,57.5 C 101.5,57.1667 101.5,56.8333 101.5,56.5C 102.833,56.5 103.5,57.1667 103.5,58.5C 103.167,58.5 102.833,58.5 102.5,58.5C 101.833,58.5 101.5,58.1667 101.5,57.5 Z"/></g>
<g><path style="opacity:0.011" fill="#000000" d="M 41.5,57.5 C 41.5,58.5 41.5,59.5 41.5,60.5C 40.209,60.2627 39.209,60.596 38.5,61.5C 37.7611,61.631 37.0944,61.4643 36.5,61C 38.365,60.0357 40.0317,58.8691 41.5,57.5 Z"/></g>
<g><path style="opacity:1" fill="#5e95b3" d="M 64.5,57.5 C 69.0054,57.2705 73.3387,57.9372 77.5,59.5C 77.762,60.9778 77.4287,62.3112 76.5,63.5C 72.67,61.8609 68.67,60.8609 64.5,60.5C 64.5,59.5 64.5,58.5 64.5,57.5 Z"/></g>
<g><path style="opacity:1" fill="#5590ae" d="M 139.5,56.5 C 141.176,57.1834 141.843,58.5168 141.5,60.5C 137.14,61.0067 132.807,61.6734 128.5,62.5C 128.5,61.5 128.5,60.5 128.5,59.5C 132.323,58.6641 135.989,57.6641 139.5,56.5 Z"/></g>
<g><path style="opacity:0.012" fill="#000000" d="M 167.5,60.5 C 168.833,61.1667 168.833,61.1667 167.5,60.5 Z"/></g>
<g><path style="opacity:1" fill="#6d9cb7" d="M 113.5,67.5 C 112.329,68.3446 110.995,69.0113 109.5,69.5C 109.33,68.1779 109.663,67.0113 110.5,66C 115.656,61.5859 121.323,57.9193 127.5,55C 131.675,52.6995 136.008,51.8661 140.5,52.5C 130.283,56.213 120.616,61.0463 111.5,67C 112.094,67.4643 112.761,67.631 113.5,67.5 Z"/></g>
<g><path style="opacity:0.004" fill="#000000" d="M 170.5,62.5 C 169.833,61.1667 169.833,61.1667 170.5,62.5 Z"/></g>
<g><path style="opacity:1" fill="#81aac2" d="M 91.5,57.5 C 96.1983,61.2636 100.198,65.5969 103.5,70.5C 102.494,71.3957 102.494,72.0623 103.5,72.5C 103.44,73.0431 103.107,73.3764 102.5,73.5C 99.1768,70.6752 95.5101,68.6752 91.5,67.5C 92.7383,67.19 92.7383,66.69 91.5,66C 83.503,59.6682 74.503,55.5015 64.5,53.5C 64.5,52.5 64.5,51.5 64.5,50.5C 74.4134,52.9569 83.4134,57.2902 91.5,63.5C 92.2309,61.5988 92.2309,59.5988 91.5,57.5 Z"/></g>
<g><path style="opacity:0.007" fill="#000000" d="M 170.5,62.5 C 172.382,63.221 172.715,64.221 171.5,65.5C 171.5,64.8333 171.167,64.5 170.5,64.5C 170.5,63.8333 170.5,63.1667 170.5,62.5 Z"/></g>
<g><path style="opacity:1" fill="#6092ae" d="M 90.5,67.5 C 87.5,67.5 84.5,67.5 81.5,67.5C 81.5,70.1667 81.5,72.8333 81.5,75.5C 78.4202,74.4827 75.4202,73.316 72.5,72C 69.1727,71.3897 65.8394,70.8897 62.5,70.5C 62.5,69.1667 62.5,67.8333 62.5,66.5C 68.574,67.5186 74.574,68.8519 80.5,70.5C 80.5,69.1667 80.5,67.8333 80.5,66.5C 84.0419,66.1872 87.3752,66.5206 90.5,67.5 Z"/></g>
<g><path style="opacity:1" fill="#5d93b1" d="M 124.5,74.5 C 124.5,73.1667 124.5,71.8333 124.5,70.5C 130.651,68.403 136.984,67.0697 143.5,66.5C 143.5,67.8333 143.5,69.1667 143.5,70.5C 136.995,71.0675 130.662,72.4008 124.5,74.5 Z"/></g>
<g><path style="opacity:0.009" fill="#1c1920" d="M 175.5,81.5 C 175.768,79.901 175.434,78.5676 174.5,77.5C 174.768,75.901 174.434,74.5676 173.5,73.5C 173.34,71.8008 173.506,70.1341 174,68.5C 174.912,71.9818 175.745,75.4818 176.5,79C 176.472,80.0698 176.139,80.9032 175.5,81.5 Z"/></g>
<g><path style="opacity:1" fill="#608daa" d="M 151.5,47.5 C 151.833,47.5 152.167,47.5 152.5,47.5C 152.263,48.791 152.596,49.791 153.5,50.5C 154.167,51.5 154.833,52.5 155.5,53.5C 155.5,54.8333 155.5,56.1667 155.5,57.5C 158.056,70.4997 160.723,83.4997 163.5,96.5C 163.38,98.5885 162.38,99.9218 160.5,100.5C 160.737,99.209 160.404,98.209 159.5,97.5C 156.833,80.8334 154.167,64.1668 151.5,47.5 Z"/></g>
<g><path style="opacity:1" fill="#92b6cc" d="M 155.5,57.5 C 157.144,57.2865 158.644,57.6198 160,58.5C 164.995,80.1454 169.828,101.812 174.5,123.5C 172.585,123.784 170.919,123.451 169.5,122.5C 170.376,122.631 171.043,122.298 171.5,121.5C 169.712,119.424 168.046,117.257 166.5,115C 164.19,114.503 161.857,114.337 159.5,114.5C 161.607,113.532 163.941,113.198 166.5,113.5C 166.5,111.833 166.5,110.167 166.5,108.5C 163.167,108.5 159.833,108.5 156.5,108.5C 158.369,107.835 160.369,107.169 162.5,106.5C 161.721,102.655 159.388,100.989 155.5,101.5C 156.919,100.549 158.585,100.216 160.5,100.5C 162.38,99.9218 163.38,98.5885 163.5,96.5C 160.723,83.4997 158.056,70.4997 155.5,57.5 Z"/></g>
<g><path style="opacity:0.01" fill="#000000" d="M 28.5,87.5 C 27.5655,88.5676 27.2322,89.901 27.5,91.5C 26.3569,88.9321 26.5236,86.2654 28,83.5C 28.49,84.7932 28.6567,86.1266 28.5,87.5 Z"/></g>
<g><path style="opacity:0.01" fill="#000000" d="M 25.5,100.5 C 24.5655,101.568 24.2322,102.901 24.5,104.5C 24.1667,104.5 23.8333,104.5 23.5,104.5C 23.4207,101.729 23.9207,99.0627 25,96.5C 25.49,97.7932 25.6567,99.1266 25.5,100.5 Z"/></g>
<g><path style="opacity:0.998" fill="#0d182a" d="M 47.5,53.5 C 48.1667,53.5 48.8333,53.5 49.5,53.5C 49.5,54.8333 49.5,56.1667 49.5,57.5C 47.6096,57.2965 46.1096,57.9632 45,59.5C 39.9213,80.7278 35.4213,102.061 31.5,123.5C 44.5619,120.762 57.5619,121.096 70.5,124.5C 70.5,125.167 70.1667,125.5 69.5,125.5C 54.6474,122.995 40.3141,124.829 26.5,131C 25.244,131.417 24.5774,132.25 24.5,133.5C 23.0695,133.579 21.7362,133.246 20.5,132.5C 19.8182,133.243 19.1515,133.909 18.5,134.5C 19.3266,130.193 19.9933,125.86 20.5,121.5C 21.4345,120.432 21.7678,119.099 21.5,117.5C 23.2598,113.453 24.2598,109.12 24.5,104.5C 25.4345,103.432 25.7678,102.099 25.5,100.5C 26.913,97.7814 27.5797,94.7814 27.5,91.5C 28.4345,90.4324 28.7678,89.099 28.5,87.5C 30.7744,80.7414 32.6078,73.7414 34,66.5C 35.025,64.313 36.525,62.6464 38.5,61.5C 39.8333,61.5 41.1667,61.5 42.5,61.5C 42.5,60.1667 42.5,58.8333 42.5,57.5C 43.1667,57.5 43.5,57.1667 43.5,56.5C 44.5,56.1667 45.1667,55.5 45.5,54.5C 46.4916,54.6716 47.1583,54.3382 47.5,53.5 Z"/></g>
<g><path style="opacity:1" fill="#6d99b3" d="M 110.5,116.5 C 108.597,118.628 106.931,120.961 105.5,123.5C 104.167,112.833 104.167,102.167 105.5,91.5C 111.383,90.3296 116.383,87.6629 120.5,83.5C 120.435,83.9382 120.601,84.2716 121,84.5C 128.189,79.9371 136.022,77.2704 144.5,76.5C 144.5,77.8333 144.5,79.1667 144.5,80.5C 131.277,82.1959 119.777,87.5292 110,96.5C 109.333,99.5 109.333,102.5 110,105.5C 119.88,95.6431 131.714,89.6431 145.5,87.5C 145.719,88.675 145.386,89.675 144.5,90.5C 132.052,93.7226 121.052,99.5559 111.5,108C 109.327,110.698 108.994,113.531 110.5,116.5 Z"/></g>
<g><path style="opacity:1" fill="#edefef" d="M 155.5,101.5 C 159.388,100.989 161.721,102.655 162.5,106.5C 160.369,107.169 158.369,107.835 156.5,108.5C 142.161,110.338 129.161,115.504 117.5,124C 114.223,126.766 111.557,129.933 109.5,133.5C 108.833,133.5 108.167,133.5 107.5,133.5C 106.022,133.762 104.689,133.429 103.5,132.5C 111.654,120.184 122.654,111.351 136.5,106C 142.661,103.71 148.995,102.21 155.5,101.5 Z"/></g>
<g><path style="opacity:0.011" fill="#22252d" d="M 182.5,110.5 C 182.768,108.901 182.434,107.568 181.5,106.5C 181.768,104.901 181.434,103.568 180.5,102.5C 180.457,98.1074 180.957,97.7741 182,101.5C 183.351,104.623 183.518,107.623 182.5,110.5 Z"/></g>
<g><path style="opacity:0.009" fill="#000000" d="M 23.5,104.5 C 23.6567,105.873 23.49,107.207 23,108.5C 22.235,106.934 22.4017,105.601 23.5,104.5 Z"/></g>
<g><path style="opacity:1" fill="#4c7fa1" d="M 85.5,84.5 C 89.8248,88.1693 94.8248,90.5026 100.5,91.5C 100.5,99.5 100.5,107.5 100.5,115.5C 96.0861,109.751 90.7527,105.084 84.5,101.5C 77.3954,96.1789 69.3954,92.6789 60.5,91C 59.6634,89.9887 59.33,88.8221 59.5,87.5C 67.7127,88.571 75.3793,91.2377 82.5,95.5C 87.3885,98.5491 91.8885,102.216 96,106.5C 96.6667,103.5 96.6667,100.5 96,97.5C 92.2912,94.2854 88.4579,91.2854 84.5,88.5C 77.9212,84.8799 70.9212,82.3799 63.5,81C 61.503,79.8469 61.1696,78.3469 62.5,76.5C 70.6,78.1029 78.2667,80.7695 85.5,84.5 Z"/></g>
<g><path style="opacity:1" fill="#131824" d="M 156.5,108.5 C 159.833,108.5 163.167,108.5 166.5,108.5C 166.5,110.167 166.5,111.833 166.5,113.5C 163.941,113.198 161.607,113.532 159.5,114.5C 142.148,115.612 126.815,121.612 113.5,132.5C 112.522,132.811 111.855,133.478 111.5,134.5C 113.071,136.415 115.071,137.415 117.5,137.5C 117.631,138.376 117.298,139.043 116.5,139.5C 115.575,138.359 114.741,138.359 114,139.5C 111.869,137.883 110.369,135.883 109.5,133.5C 111.557,129.933 114.223,126.766 117.5,124C 129.161,115.504 142.161,110.338 156.5,108.5 Z"/></g>
<g><path style="opacity:0.999" fill="#11192c" d="M 155.5,53.5 C 159.597,53.469 162.097,55.469 163,59.5C 163.333,58.5 163.667,57.5 164,56.5C 164.69,58.3502 165.856,59.6836 167.5,60.5C 166.127,60.3433 164.793,60.51 163.5,61C 166.139,61.6529 168.473,62.8196 170.5,64.5C 171.167,64.5 171.5,64.8333 171.5,65.5C 171.565,68.4282 172.232,71.0948 173.5,73.5C 173.232,75.099 173.566,76.4324 174.5,77.5C 174.232,79.099 174.566,80.4324 175.5,81.5C 176.407,88.7891 178.073,95.7891 180.5,102.5C 180.232,104.099 180.566,105.432 181.5,106.5C 181.232,108.099 181.566,109.432 182.5,110.5C 182.216,112.415 182.549,114.081 183.5,115.5C 184.66,121.139 185.66,126.805 186.5,132.5C 186.492,135.545 186.159,138.545 185.5,141.5C 185.5,141.833 185.5,142.167 185.5,142.5C 184.833,142.5 184.5,142.833 184.5,143.5C 183.833,143.5 183.5,143.833 183.5,144.5C 182.833,144.5 182.5,144.833 182.5,145.5C 181.833,145.5 181.167,145.5 180.5,145.5C 177.167,145.5 173.833,145.5 170.5,145.5C 170.666,151.176 170.499,156.843 170,162.5C 169.329,161.748 168.496,161.414 167.5,161.5C 166.105,160.185 165.105,160.519 164.5,162.5C 163.833,162.5 163.5,162.833 163.5,163.5C 162.662,163.842 162.328,164.508 162.5,165.5C 161.833,165.5 161.5,165.833 161.5,166.5C 160.833,166.5 160.5,166.833 160.5,167.5C 159.662,167.842 159.328,168.508 159.5,169.5C 158.833,169.5 158.5,169.833 158.5,170.5C 157.167,171.167 156.167,172.167 155.5,173.5C 153.55,168.265 152.883,162.598 153.5,156.5C 154.302,155.048 154.802,153.382 155,151.5C 155.18,154.956 155.847,158.289 157,161.5C 157.278,160.584 157.778,159.918 158.5,159.5C 159.5,159.167 160.167,158.5 160.5,157.5C 161.429,156.064 162.595,154.731 164,153.5C 164.5,146.174 164.666,138.841 164.5,131.5C 165.5,131.5 166.5,131.5 167.5,131.5C 171.149,132.95 174.816,134.617 178.5,136.5C 179.386,135.675 179.719,134.675 179.5,133.5C 180.692,132.434 180.359,131.601 178.5,131C 166.358,125.805 153.691,123.638 140.5,124.5C 139.508,124.672 138.842,124.338 138.5,123.5C 148.788,121.503 159.121,121.17 169.5,122.5C 170.919,123.451 172.585,123.784 174.5,123.5C 169.828,101.812 164.995,80.1454 160,58.5C 158.644,57.6198 157.144,57.2865 155.5,57.5C 155.5,56.1667 155.5,54.8333 155.5,53.5 Z"/></g>
<g><path style="opacity:0.008" fill="#17131c" d="M 183.5,115.5 C 183.836,110.589 184.502,110.923 185.5,116.5C 185.333,117.167 185.167,117.833 185,118.5C 184.768,117.263 184.268,116.263 183.5,115.5 Z"/></g>
<g><path style="opacity:0.01" fill="#000000" d="M 21.5,117.5 C 20.5655,118.568 20.2322,119.901 20.5,121.5C 19.3569,118.932 19.5236,116.265 21,113.5C 21.49,114.793 21.6567,116.127 21.5,117.5 Z"/></g>
<g><path style="opacity:1" fill="#121723" d="M 94.5,130.5 C 95.1667,131.5 95.8333,132.5 96.5,133.5C 95.5,133.5 94.5,133.5 93.5,133.5C 88.1025,129.439 82.4359,125.773 76.5,122.5C 64.3804,117.373 51.7138,114.207 38.5,113C 39.3802,111.644 39.7135,110.144 39.5,108.5C 61.1204,108.031 79.4537,115.365 94.5,130.5 Z"/></g>
<g><path style="opacity:1" fill="#edeff0" d="M 159.5,114.5 C 161.857,114.337 164.19,114.503 166.5,115C 168.046,117.257 169.712,119.424 171.5,121.5C 171.043,122.298 170.376,122.631 169.5,122.5C 159.121,121.17 148.788,121.503 138.5,123.5C 130.043,125.729 122.043,129.062 114.5,133.5C 113.893,133.376 113.56,133.043 113.5,132.5C 126.815,121.612 142.148,115.612 159.5,114.5 Z"/></g>
<g><path style="opacity:1" fill="#e3e6e7" d="M 69.5,125.5 C 73.2784,127.892 77.2784,130.059 81.5,132C 82.3805,132.708 83.0472,133.542 83.5,134.5C 68.801,129.209 53.801,128.209 38.5,131.5C 33.9639,131.15 29.6306,131.817 25.5,133.5C 25.1667,133.5 24.8333,133.5 24.5,133.5C 24.5774,132.25 25.244,131.417 26.5,131C 40.3141,124.829 54.6474,122.995 69.5,125.5 Z"/></g>
<g><path style="opacity:1" fill="#ebeced" d="M 140.5,124.5 C 153.691,123.638 166.358,125.805 178.5,131C 180.359,131.601 180.692,132.434 179.5,133.5C 175.705,131.857 171.705,131.191 167.5,131.5C 166.5,131.5 165.5,131.5 164.5,131.5C 162.735,130.539 160.735,130.205 158.5,130.5C 145.901,128.36 133.567,129.694 121.5,134.5C 121.062,134.565 120.728,134.399 120.5,134C 126.888,129.97 133.555,126.803 140.5,124.5 Z"/></g>
<g><path style="opacity:1" fill="#101825" d="M 90.5,67.5 C 90.8333,67.5 91.1667,67.5 91.5,67.5C 95.5101,68.6752 99.1768,70.6752 102.5,73.5C 103.107,73.3764 103.44,73.0431 103.5,72.5C 105.216,70.9752 107.216,69.9752 109.5,69.5C 110.995,69.0113 112.329,68.3446 113.5,67.5C 117.167,67.5 120.833,67.5 124.5,67.5C 124.5,68.5 124.5,69.5 124.5,70.5C 124.5,71.8333 124.5,73.1667 124.5,74.5C 122.892,77.3821 121.559,80.3821 120.5,83.5C 116.383,87.6629 111.383,90.3296 105.5,91.5C 104.167,102.167 104.167,112.833 105.5,123.5C 106.931,120.961 108.597,118.628 110.5,116.5C 122.363,104.738 136.697,98.071 153.5,96.5C 153.119,97.9311 152.119,98.7645 150.5,99C 153.72,99.3202 156.72,98.8202 159.5,97.5C 160.404,98.209 160.737,99.209 160.5,100.5C 158.585,100.216 156.919,100.549 155.5,101.5C 148.995,102.21 142.661,103.71 136.5,106C 122.654,111.351 111.654,120.184 103.5,132.5C 104.689,133.429 106.022,133.762 107.5,133.5C 108.562,134.575 108.562,135.575 107.5,136.5C 104.337,135.279 101.337,134.279 98.5,133.5C 99.5,133.5 100.5,133.5 101.5,133.5C 101.649,132.448 101.483,131.448 101,130.5C 96.5533,123.369 90.72,117.702 83.5,113.5C 71.9668,105.989 59.3002,101.655 45.5,100.5C 46.1743,93.7693 47.1743,87.1027 48.5,80.5C 50.9581,84.6922 50.6248,88.5256 47.5,92C 48.8333,94 48.8333,96 47.5,98C 50.1262,98.995 52.7929,99.3283 55.5,99C 54.5,98.6667 53.5,98.3333 52.5,98C 54.0581,97.79 55.3915,97.29 56.5,96.5C 66.0156,98.4237 75.0156,101.757 83.5,106.5C 90.1398,110.974 95.6398,116.641 100,123.5C 100.497,120.854 100.664,118.187 100.5,115.5C 100.5,107.5 100.5,99.5 100.5,91.5C 94.8248,90.5026 89.8248,88.1693 85.5,84.5C 83.8652,81.5697 82.5318,78.5697 81.5,75.5C 81.5,72.8333 81.5,70.1667 81.5,67.5C 84.5,67.5 87.5,67.5 90.5,67.5 Z"/></g>
<g><path style="opacity:1" fill="#8ab2cb" d="M 84.5,101.5 C 90.7527,105.084 96.0861,109.751 100.5,115.5C 100.664,118.187 100.497,120.854 100,123.5C 95.6398,116.641 90.1398,110.974 83.5,106.5C 84.4511,105.081 84.7845,103.415 84.5,101.5 Z"/></g>
<g><path style="opacity:1" fill="#95bcd4" d="M 84.5,88.5 C 88.4579,91.2854 92.2912,94.2854 96,97.5C 96.6667,100.5 96.6667,103.5 96,106.5C 91.8885,102.216 87.3885,98.5491 82.5,95.5C 84.3435,93.7211 85.0102,91.3878 84.5,88.5 Z"/></g>
<g><path style="opacity:1" fill="#0f789a" d="M 119.5,76.5 C 118.527,81.6466 115.527,85.1466 110.5,87C 108.257,87.7966 106.923,87.6299 106.5,86.5C 112.004,84.66 116.337,81.3267 119.5,76.5 Z"/></g>
<g><path style="opacity:1" fill="#16e9d1" d="M 119.5,76.5 C 116.337,81.3267 112.004,84.66 106.5,86.5C 108.497,81.9885 111.497,78.1551 115.5,75C 110.7,75.0724 107.034,77.239 104.5,81.5C 103.833,80.8333 103.167,80.1667 102.5,79.5C 101.549,80.3256 100.549,80.4922 99.5,80C 96.8411,76.67 93.5077,75.0033 89.5,75C 92.8702,78.035 95.8702,81.3683 98.5,85C 89.0749,85.0724 84.4082,80.239 84.5,70.5C 91.4613,69.6488 97.4613,71.6488 102.5,76.5C 107.307,72.1194 112.974,70.1194 119.5,70.5C 119.5,72.5 119.5,74.5 119.5,76.5 Z"/></g>
<g><path style="opacity:1" fill="#94b7cc" d="M 83.5,113.5 C 90.72,117.702 96.5533,123.369 101,130.5C 101.483,131.448 101.649,132.448 101.5,133.5C 100.5,133.5 99.5,133.5 98.5,133.5C 97.8333,133.5 97.1667,133.5 96.5,133.5C 95.8333,132.5 95.1667,131.5 94.5,130.5C 95.525,130.103 95.6917,129.437 95,128.5C 91.149,123.44 87.3157,118.44 83.5,113.5 Z"/></g>
<g><path style="opacity:0.007" fill="#030009" d="M 16.5,129.5 C 16.5139,133.263 16.6806,136.929 17,140.5C 15.4037,136.937 15.237,133.271 16.5,129.5 Z"/></g>
<g><path style="opacity:1" fill="#90b7cd" d="M 76.5,122.5 C 82.4359,125.773 88.1025,129.439 93.5,133.5C 93.5,134.167 93.5,134.833 93.5,135.5C 90.0146,137.791 86.6813,137.458 83.5,134.5C 83.0472,133.542 82.3805,132.708 81.5,132C 77.2784,130.059 73.2784,127.892 69.5,125.5C 70.1667,125.5 70.5,125.167 70.5,124.5C 74.0456,126.285 77.7123,127.452 81.5,128C 79.576,126.25 77.9093,124.417 76.5,122.5 Z"/></g>
<g><path style="opacity:1" fill="#181e28" d="M 158.5,130.5 C 158.5,130.833 158.5,131.167 158.5,131.5C 158.5,131.833 158.5,132.167 158.5,132.5C 153.162,131.998 147.828,131.831 142.5,132C 144.708,132.191 146.708,132.691 148.5,133.5C 140.232,132.846 132.232,133.846 124.5,136.5C 123.167,136.833 121.833,137.167 120.5,137.5C 120.5,136.833 120.167,136.5 119.5,136.5C 120.167,135.833 120.833,135.167 121.5,134.5C 133.567,129.694 145.901,128.36 158.5,130.5 Z"/></g>
<g><path style="opacity:1" fill="#121922" d="M 83.5,134.5 C 86.6813,137.458 90.0146,137.791 93.5,135.5C 94.7736,136.189 94.7736,137.023 93.5,138C 94.4158,138.278 95.0825,138.778 95.5,139.5C 94.1667,141.5 92.5,143.167 90.5,144.5C 92.322,141.893 91.822,139.893 89,138.5C 88.2303,139.598 87.397,139.598 86.5,138.5C 84.5,137.833 82.5,137.167 80.5,136.5C 65.294,132.861 49.9606,132.528 34.5,135.5C 33.8333,134.833 33.1667,134.167 32.5,133.5C 34.6976,133.125 36.6976,132.458 38.5,131.5C 53.801,128.209 68.801,129.209 83.5,134.5 Z"/></g>
<g><path style="opacity:1" fill="#8eb6cc" d="M 138.5,123.5 C 138.842,124.338 139.508,124.672 140.5,124.5C 133.555,126.803 126.888,129.97 120.5,134C 120.728,134.399 121.062,134.565 121.5,134.5C 120.833,135.167 120.167,135.833 119.5,136.5C 118.508,136.328 117.842,136.662 117.5,137.5C 115.071,137.415 113.071,136.415 111.5,134.5C 111.855,133.478 112.522,132.811 113.5,132.5C 113.56,133.043 113.893,133.376 114.5,133.5C 122.043,129.062 130.043,125.729 138.5,123.5 Z"/></g>
<g><path style="opacity:1" fill="#8daec0" d="M 38.5,131.5 C 36.6976,132.458 34.6976,133.125 32.5,133.5C 30.6137,134.361 28.7804,135.361 27,136.5C 25.9614,135.756 25.4614,134.756 25.5,133.5C 29.6306,131.817 33.9639,131.15 38.5,131.5 Z"/></g>
<g><path style="opacity:1" fill="#87aec3" d="M 167.5,131.5 C 171.705,131.191 175.705,131.857 179.5,133.5C 179.719,134.675 179.386,135.675 178.5,136.5C 174.816,134.617 171.149,132.95 167.5,131.5 Z"/></g>
<g><path style="opacity:0.999" fill="#0f1a2f" d="M 158.5,132.5 C 158.5,141.5 158.5,150.5 158.5,159.5C 157.778,159.918 157.278,160.584 157,161.5C 155.847,158.289 155.18,154.956 155,151.5C 154.802,153.382 154.302,155.048 153.5,156.5C 153.5,152.833 153.5,149.167 153.5,145.5C 143.985,145.173 134.652,145.506 125.5,146.5C 125.5,147.167 125.5,147.833 125.5,148.5C 125.5,149.5 125.5,150.5 125.5,151.5C 124.662,151.842 124.328,152.508 124.5,153.5C 123.662,153.842 123.328,154.508 123.5,155.5C 122.833,155.5 122.5,155.833 122.5,156.5C 121.833,156.5 121.5,156.833 121.5,157.5C 120.833,157.5 120.5,157.833 120.5,158.5C 119.833,158.5 119.5,158.833 119.5,159.5C 118.833,159.5 118.5,159.833 118.5,160.5C 117.833,160.5 117.5,160.833 117.5,161.5C 116.833,161.5 116.5,161.833 116.5,162.5C 115.508,162.328 114.842,162.662 114.5,163.5C 113.833,163.5 113.167,163.5 112.5,163.5C 105.833,164.833 99.1667,164.833 92.5,163.5C 88.2512,161.912 84.9179,159.245 82.5,155.5C 82.5,154.833 82.1667,154.5 81.5,154.5C 81.0388,152.45 80.3721,150.45 79.5,148.5C 61.1244,147.948 42.791,147.114 24.5,146C 20.0927,143.425 18.0927,139.592 18.5,134.5C 19.1515,133.909 19.8182,133.243 20.5,132.5C 21.7362,133.246 23.0695,133.579 24.5,133.5C 24.8333,133.5 25.1667,133.5 25.5,133.5C 25.4614,134.756 25.9614,135.756 27,136.5C 28.7804,135.361 30.6137,134.361 32.5,133.5C 33.1667,134.167 33.8333,134.833 34.5,135.5C 33.8333,135.833 33.1667,136.167 32.5,136.5C 31.3569,136.908 30.3569,137.575 29.5,138.5C 48.6625,139.828 67.6625,139.828 86.5,138.5C 87.397,139.598 88.2303,139.598 89,138.5C 91.822,139.893 92.322,141.893 90.5,144.5C 89.6506,149.265 91.3173,152.598 95.5,154.5C 97.4385,156.163 99.7718,156.829 102.5,156.5C 109.06,156.72 113.393,153.72 115.5,147.5C 114.653,145.129 113.32,143.129 111.5,141.5C 107.142,138.539 102.475,137.872 97.5,139.5C 96.8333,139.5 96.1667,139.5 95.5,139.5C 95.0825,138.778 94.4158,138.278 93.5,138C 94.7736,137.023 94.7736,136.189 93.5,135.5C 93.5,134.833 93.5,134.167 93.5,133.5C 94.5,133.5 95.5,133.5 96.5,133.5C 97.1667,133.5 97.8333,133.5 98.5,133.5C 101.337,134.279 104.337,135.279 107.5,136.5C 108.562,135.575 108.562,134.575 107.5,133.5C 108.167,133.5 108.833,133.5 109.5,133.5C 110.369,135.883 111.869,137.883 114,139.5C 114.741,138.359 115.575,138.359 116.5,139.5C 117.298,139.043 117.631,138.376 117.5,137.5C 117.842,136.662 118.508,136.328 119.5,136.5C 120.167,136.5 120.5,136.833 120.5,137.5C 120.389,138.117 120.056,138.617 119.5,139C 130.828,139.5 142.162,139.667 153.5,139.5C 153.795,137.265 153.461,135.265 152.5,133.5C 151.167,133.5 149.833,133.5 148.5,133.5C 146.708,132.691 144.708,132.191 142.5,132C 147.828,131.831 153.162,131.998 158.5,132.5 Z"/></g>
<g><path style="opacity:0.949" fill="#10e1d4" d="M 148.5,133.5 C 149.833,133.5 151.167,133.5 152.5,133.5C 152.5,134.833 152.5,136.167 152.5,137.5C 144.981,137.825 137.648,137.492 130.5,136.5C 128.389,137.742 126.389,137.742 124.5,136.5C 132.232,133.846 140.232,132.846 148.5,133.5 Z"/></g>
<g><path style="opacity:1" fill="#0cecdc" d="M 80.5,136.5 C 64.5,137.833 48.5,137.833 32.5,136.5C 33.1667,136.167 33.8333,135.833 34.5,135.5C 49.9606,132.528 65.294,132.861 80.5,136.5 Z"/></g>
<g><path style="opacity:1" fill="#fa464b" d="M 158.5,131.5 C 158.5,131.167 158.5,130.833 158.5,130.5C 160.735,130.205 162.735,130.539 164.5,131.5C 164.666,138.841 164.5,146.174 164,153.5C 162.595,154.731 161.429,156.064 160.5,157.5C 159.833,148.833 159.167,140.167 158.5,131.5 Z"/></g>
<g><path style="opacity:1" fill="#1083ae" d="M 32.5,136.5 C 48.5,137.833 64.5,137.833 80.5,136.5C 82.5,137.167 84.5,137.833 86.5,138.5C 67.6625,139.828 48.6625,139.828 29.5,138.5C 30.3569,137.575 31.3569,136.908 32.5,136.5 Z"/></g>
<g><path style="opacity:1" fill="#0e82a9" d="M 152.5,133.5 C 153.461,135.265 153.795,137.265 153.5,139.5C 142.162,139.667 130.828,139.5 119.5,139C 120.056,138.617 120.389,138.117 120.5,137.5C 121.833,137.167 123.167,136.833 124.5,136.5C 126.389,137.742 128.389,137.742 130.5,136.5C 137.648,137.492 144.981,137.825 152.5,137.5C 152.5,136.167 152.5,134.833 152.5,133.5 Z"/></g>
<g><path style="opacity:1" fill="#bb424a" d="M 158.5,131.5 C 159.167,140.167 159.833,148.833 160.5,157.5C 160.167,158.5 159.5,159.167 158.5,159.5C 158.5,150.5 158.5,141.5 158.5,132.5C 158.5,132.167 158.5,131.833 158.5,131.5 Z"/></g>
<g><path style="opacity:0.38" fill="#83878a" d="M 186.5,132.5 C 187.681,135.362 187.681,138.362 186.5,141.5C 186.167,141.5 185.833,141.5 185.5,141.5C 186.159,138.545 186.492,135.545 186.5,132.5 Z"/></g>
<g><path style="opacity:0.008" fill="#000000" d="M 186.5,141.5 C 187.833,142.167 187.833,142.167 186.5,141.5 Z"/></g>
<g><path style="opacity:0.008" fill="#000000" d="M 185.5,142.5 C 185.833,142.5 186.167,142.5 186.5,142.5C 186.315,143.17 185.981,143.17 185.5,142.5 Z"/></g>
<g><path style="opacity:1" fill="#ede4e4" d="M 95.5,139.5 C 96.1667,139.5 96.8333,139.5 97.5,139.5C 93.5519,142.922 93.5519,146.422 97.5,150C 95.9632,151.11 95.2965,152.61 95.5,154.5C 91.3173,152.598 89.6506,149.265 90.5,144.5C 92.5,143.167 94.1667,141.5 95.5,139.5 Z"/></g>
<g><path style="opacity:0.012" fill="#000000" d="M 184.5,143.5 C 184.833,143.5 185.167,143.5 185.5,143.5C 185.315,144.17 184.981,144.17 184.5,143.5 Z"/></g>
<g><path style="opacity:0.008" fill="#000000" d="M 183.5,144.5 C 183.833,144.5 184.167,144.5 184.5,144.5C 184.315,145.17 183.981,145.17 183.5,144.5 Z"/></g>
<g><path style="opacity:0.925" fill="#535960" d="M 180.5,145.5 C 180.5,145.833 180.5,146.167 180.5,146.5C 177.545,147.159 174.545,147.492 171.5,147.5C 171.829,153.206 171.495,158.872 170.5,164.5C 169.145,163.812 168.145,162.812 167.5,161.5C 168.496,161.414 169.329,161.748 170,162.5C 170.499,156.843 170.666,151.176 170.5,145.5C 173.833,145.5 177.167,145.5 180.5,145.5 Z"/></g>
<g><path style="opacity:0.012" fill="#000000" d="M 182.5,145.5 C 182.833,145.5 183.167,145.5 183.5,145.5C 183.315,146.17 182.981,146.17 182.5,145.5 Z"/></g>
<g><path style="opacity:0.149" fill="#b9c6c6" d="M 125.5,146.5 C 134.682,146.173 143.682,146.507 152.5,147.5C 143.651,147.174 134.984,147.507 126.5,148.5C 126.167,148.5 125.833,148.5 125.5,148.5C 125.5,147.833 125.5,147.167 125.5,146.5 Z"/></g>
<g><path style="opacity:0.008" fill="#535353" d="M 180.5,146.5 C 181.167,146.5 181.833,146.5 182.5,146.5C 181.833,147.833 181.167,147.833 180.5,146.5 Z"/></g>
<g><path style="opacity:0.012" fill="#a4a4a4" d="M 27.5,149.5 C 44.338,148.173 61.338,148.173 78.5,149.5C 61.7766,149.524 44.7766,149.524 27.5,149.5 Z"/></g>
<g><path style="opacity:0.012" fill="#636565" d="M 126.5,148.5 C 134.833,148.5 143.167,148.5 151.5,148.5C 151.666,157.506 151.5,166.506 151,175.5C 150.5,166.84 150.334,158.173 150.5,149.5C 142.228,148.915 134.228,149.582 126.5,151.5C 126.5,150.5 126.5,149.5 126.5,148.5 Z"/></g>
<g><path style="opacity:0.011" fill="#202222" d="M 172.5,148.5 C 178.167,148.664 178.5,148.997 173.5,149.5C 173.666,154.511 173.499,159.511 173,164.5C 172.501,159.177 172.334,153.844 172.5,148.5 Z"/></g>
<g><path style="opacity:1" fill="#ef454b" d="M 111.5,141.5 C 112.079,147.925 109.079,151.259 102.5,151.5C 102.5,153.167 102.5,154.833 102.5,156.5C 99.7718,156.829 97.4385,156.163 95.5,154.5C 95.2965,152.61 95.9632,151.11 97.5,150C 93.5519,146.422 93.5519,142.922 97.5,139.5C 102.475,137.872 107.142,138.539 111.5,141.5 Z"/></g>
<g><path style="opacity:1" fill="#131027" d="M 99.5,141.5 C 101.857,141.337 104.19,141.503 106.5,142C 107.747,143.494 107.747,144.994 106.5,146.5C 102.573,148.414 99.5731,147.58 97.5,144C 98.0556,142.989 98.7222,142.156 99.5,141.5 Z"/></g>
<g><path style="opacity:0.008" fill="#535353" d="M 125.5,151.5 C 125.833,151.5 126.167,151.5 126.5,151.5C 126.672,152.492 126.338,153.158 125.5,153.5C 125.5,152.833 125.5,152.167 125.5,151.5 Z"/></g>
<g><path style="opacity:1" fill="#862237" d="M 111.5,141.5 C 113.32,143.129 114.653,145.129 115.5,147.5C 113.393,153.72 109.06,156.72 102.5,156.5C 102.5,154.833 102.5,153.167 102.5,151.5C 109.079,151.259 112.079,147.925 111.5,141.5 Z"/></g>
<g><path style="opacity:0.01" fill="#1c1c1c" d="M 81.5,154.5 C 82.1667,154.5 82.5,154.833 82.5,155.5C 82.2533,157.975 81.5866,157.975 80.5,155.5C 80.6236,154.893 80.9569,154.56 81.5,154.5 Z"/></g>
<g><path style="opacity:0.008" fill="#535353" d="M 124.5,153.5 C 124.833,153.5 125.167,153.5 125.5,153.5C 125.672,154.492 125.338,155.158 124.5,155.5C 124.5,154.833 124.5,154.167 124.5,153.5 Z"/></g>
<g><path style="opacity:0.016" fill="#000000" d="M 123.5,155.5 C 123.833,155.5 124.167,155.5 124.5,155.5C 124.315,156.17 123.981,156.17 123.5,155.5 Z"/></g>
<g><path style="opacity:0.008" fill="#000000" d="M 122.5,156.5 C 122.833,156.5 123.167,156.5 123.5,156.5C 123.315,157.17 122.981,157.17 122.5,156.5 Z"/></g>
<g><path style="opacity:0.311" fill="#3a414b" d="M 125.5,146.5 C 134.652,145.506 143.985,145.173 153.5,145.5C 153.5,149.167 153.5,152.833 153.5,156.5C 152.883,162.598 153.55,168.265 155.5,173.5C 155.167,174.167 154.833,174.833 154.5,175.5C 152.528,166.56 151.861,157.227 152.5,147.5C 143.682,146.507 134.682,146.173 125.5,146.5 Z"/></g>
<g><path style="opacity:0.004" fill="#9c9c9c" d="M 121.5,157.5 C 121.833,157.5 122.167,157.5 122.5,157.5C 121.833,160.167 120.167,161.833 117.5,162.5C 117.5,162.167 117.5,161.833 117.5,161.5C 118.167,161.5 118.5,161.167 118.5,160.5C 119.167,160.5 119.5,160.167 119.5,159.5C 120.167,159.5 120.5,159.167 120.5,158.5C 121.167,158.5 121.5,158.167 121.5,157.5 Z"/></g>
<g><path style="opacity:0.016" fill="#000000" d="M 116.5,162.5 C 116.833,162.5 117.167,162.5 117.5,162.5C 117.315,163.17 116.981,163.17 116.5,162.5 Z"/></g>
<g><path style="opacity:0.612" fill="#787c80" d="M 92.5,163.5 C 99.1667,164.833 105.833,164.833 112.5,163.5C 112.5,163.833 112.5,164.167 112.5,164.5C 109.933,164.721 107.599,165.388 105.5,166.5C 100.808,166.575 96.4742,165.575 92.5,163.5 Z"/></g>
<g><path style="opacity:0.008" fill="#404040" d="M 114.5,163.5 C 115.167,163.5 115.833,163.5 116.5,163.5C 115.462,165.519 114.128,165.853 112.5,164.5C 113.492,164.672 114.158,164.338 114.5,163.5 Z"/></g>
<g><path style="opacity:0.008" fill="#6d6d6d" d="M 164.5,162.5 C 165.715,163.779 165.382,164.779 163.5,165.5C 163.5,164.833 163.5,164.167 163.5,163.5C 164.167,163.5 164.5,163.167 164.5,162.5 Z"/></g>
<g><path style="opacity:0.012" fill="#545554" d="M 162.5,165.5 C 162.833,165.5 163.167,165.5 163.5,165.5C 163.315,166.17 162.981,166.17 162.5,165.5 Z"/></g>
<g><path style="opacity:0.006" fill="#000000" d="M 169.5,166.5 C 169.897,165.475 170.563,165.308 171.5,166C 170.906,166.464 170.239,166.631 169.5,166.5 Z"/></g>
<g><path style="opacity:0.016" fill="#000000" d="M 161.5,166.5 C 161.833,166.5 162.167,166.5 162.5,166.5C 162.315,167.17 161.981,167.17 161.5,166.5 Z"/></g>
<g><path style="opacity:0.008" fill="#737373" d="M 105.5,166.5 C 107.199,166.34 108.866,166.506 110.5,167C 106.903,168.277 103.236,168.61 99.5,168C 101.708,167.809 103.708,167.309 105.5,166.5 Z"/></g>
<g><path style="opacity:0.008" fill="#535353" d="M 160.5,167.5 C 160.833,167.5 161.167,167.5 161.5,167.5C 161.672,168.492 161.338,169.158 160.5,169.5C 160.5,168.833 160.5,168.167 160.5,167.5 Z"/></g>
<g><path style="opacity:0.012" fill="#000000" d="M 159.5,169.5 C 159.833,169.5 160.167,169.5 160.5,169.5C 160.315,170.17 159.981,170.17 159.5,169.5 Z"/></g>
<g><path style="opacity:0.016" fill="#000000" d="M 158.5,170.5 C 158.833,170.5 159.167,170.5 159.5,170.5C 159.315,171.17 158.981,171.17 158.5,170.5 Z"/></g>
<g><path style="opacity:0.004" fill="#000000" d="M 154.5,175.5 C 155.833,176.167 155.833,176.167 154.5,175.5 Z"/></g>
<g><path style="opacity:0.008" fill="#000000" d="M 154.5,176.5 C 153.833,177.167 153.833,177.167 154.5,176.5 Z"/></g>
</svg>
