<?xml version="1.0" encoding="UTF-8"?>
<!DOCTYPE svg PUBLIC "-//W3C//DTD SVG 1.1//EN" "http://www.w3.org/Graphics/SVG/1.1/DTD/svg11.dtd">
<svg xmlns="http://www.w3.org/2000/svg" version="1.1" width="752px" height="539px" style="shape-rendering:geometricPrecision; text-rendering:geometricPrecision; image-rendering:optimizeQuality; fill-rule:evenodd; clip-rule:evenodd" xmlns:xlink="http://www.w3.org/1999/xlink">
<g><path style="opacity:0.995" fill="#060606" d="M 421.5,76.5 C 429.685,78.5307 438.018,78.864 446.5,77.5C 450.182,77.3347 453.848,77.5014 457.5,78C 463.66,82.5804 469.993,86.9138 476.5,91C 487.358,96.2614 498.025,101.761 508.5,107.5C 499.277,115.952 488.61,122.119 476.5,126C 465.439,129.646 454.105,131.812 442.5,132.5C 438.351,131.92 434.684,132.586 431.5,134.5C 426.762,164.764 421.428,194.93 415.5,225C 415.095,225.945 414.428,226.612 413.5,227C 407.469,228.839 401.469,230.673 395.5,232.5C 392.796,232.67 391.129,234.003 390.5,236.5C 386.691,256.811 374.524,267.811 354,269.5C 342.234,268.346 330.734,266.179 319.5,263C 307.97,274.196 296.803,285.696 286,297.5C 286,329.32 281.167,360.32 271.5,390.5C 246.186,401.159 220.519,410.826 194.5,419.5C 203.969,392.264 214.135,365.264 225,338.5C 227.357,332.269 229.19,325.935 230.5,319.5C 231.857,314.089 231.524,308.755 229.5,303.5C 228.078,298.649 226.078,293.983 223.5,289.5C 223.573,287.973 222.906,286.973 221.5,286.5C 220.833,286.5 220.5,286.167 220.5,285.5C 219.167,282.167 216.833,279.833 213.5,278.5C 213.027,277.094 212.027,276.427 210.5,276.5C 200.664,271.613 190.331,270.28 179.5,272.5C 177.102,272.259 175.102,272.926 173.5,274.5C 171.447,274.402 169.78,275.069 168.5,276.5C 164.189,279.132 159.856,281.799 155.5,284.5C 154.711,284.783 154.044,285.283 153.5,286C 155.712,286.789 157.712,286.622 159.5,285.5C 174.283,283.815 186.116,288.815 195,300.5C 198.263,307.499 199.263,314.832 198,322.5C 194.596,334.38 190.596,346.046 186,357.5C 170.874,395.414 156.04,433.414 141.5,471.5C 140.711,471.783 140.044,472.283 139.5,473C 140.749,473.74 141.749,473.573 142.5,472.5C 203.358,448.655 264.358,424.988 325.5,401.5C 328.022,400.335 328.022,399.002 325.5,397.5C 321.357,391.232 317.19,384.899 313,378.5C 312.944,365.836 313.277,353.169 314,340.5C 322.699,334.066 332.199,329.066 342.5,325.5C 346.649,325.662 349.316,327.662 350.5,331.5C 350.343,332.873 350.51,334.207 351,335.5C 351.717,334.956 352.217,334.289 352.5,333.5C 361.233,327.07 370.9,325.237 381.5,328C 384.562,329.061 387.062,330.894 389,333.5C 399.699,350.895 409.366,368.895 418,387.5C 420.078,396.884 418.078,405.217 412,412.5C 401.525,418.654 390.692,424.154 379.5,429C 326.354,451.409 273.354,474.075 220.5,497C 267.167,497.667 313.833,497.667 360.5,497C 382.515,458.502 415.515,443.502 459.5,452C 483.765,459.449 501.765,474.283 513.5,496.5C 513.611,497.117 513.944,497.617 514.5,498C 560.668,498.832 606.668,498.665 652.5,497.5C 652.167,417.831 652.5,338.164 653.5,258.5C 665.301,272.755 676.134,287.755 686,303.5C 686.5,368.166 686.667,432.832 686.5,497.5C 705.167,497.5 723.833,497.5 742.5,497.5C 742.5,508.5 742.5,519.5 742.5,530.5C 498.5,531.04 254.5,531.373 10.5,531.5C 10.5,520.167 10.5,508.833 10.5,497.5C 18.1667,497.5 25.8333,497.5 33.5,497.5C 37.3696,418.808 65.2029,350.142 117,291.5C 136.563,271.147 158.729,254.313 183.5,241C 207.075,228.634 229.909,215.134 252,200.5C 252.667,199.5 252.667,198.5 252,197.5C 233.658,166.406 229.324,133.406 239,98.5C 254.486,52.0102 286.319,24.5102 334.5,16C 346.868,15.1851 359.201,15.5185 371.5,17C 401.314,25.442 431.314,32.942 461.5,39.5C 447.691,51.1621 432.025,54.3288 414.5,49C 401.658,45.0526 388.658,41.7192 375.5,39C 365.87,37.589 356.203,37.2557 346.5,38C 346.167,38.3333 345.833,38.6667 345.5,39C 364.068,51.7883 383.734,62.7883 404.5,72C 410.084,73.9787 415.75,75.4787 421.5,76.5 Z M 377.5,117.5 C 385.875,122.515 394.875,126.181 404.5,128.5C 407.259,128.933 408.592,130.6 408.5,133.5C 405.632,147.043 403.298,160.71 401.5,174.5C 398.767,171.761 395.767,169.427 392.5,167.5C 387.816,161.817 382.483,156.817 376.5,152.5C 375.249,155.756 374.249,159.09 373.5,162.5C 374.78,166.083 376.78,169.083 379.5,171.5C 379.427,173.027 380.094,174.027 381.5,174.5C 381.427,176.027 382.094,177.027 383.5,177.5C 383.5,178.5 383.5,179.5 383.5,180.5C 380.677,180.025 378.677,181.025 377.5,183.5C 376.638,187.453 376.305,191.453 376.5,195.5C 377.791,195.737 378.791,195.404 379.5,194.5C 382.542,194.267 385.208,193.267 387.5,191.5C 388.791,191.737 389.791,191.404 390.5,190.5C 392.806,190.007 395.139,189.674 397.5,189.5C 397.5,191.5 397.5,193.5 397.5,195.5C 396.196,199.36 395.529,203.36 395.5,207.5C 393.694,208.024 392.028,208.691 390.5,209.5C 376.316,213.019 367.983,222.019 365.5,236.5C 364.086,238.867 362.752,241.367 361.5,244C 358.025,245.118 354.359,245.285 350.5,244.5C 347.933,243.525 345.267,242.858 342.5,242.5C 342.5,240.5 342.5,238.5 342.5,236.5C 353.457,197.346 364.124,158.013 374.5,118.5C 375.391,117.89 376.391,117.557 377.5,117.5 Z M 303.5,125.5 C 309.167,125.5 314.833,125.5 320.5,125.5C 322.229,126.236 323.229,127.57 323.5,129.5C 322.057,133.615 321.057,137.948 320.5,142.5C 318.307,143.895 315.974,144.895 313.5,145.5C 305.887,146.972 302.721,151.639 304,159.5C 305.714,162.97 307.881,165.97 310.5,168.5C 309.004,174.151 307.67,179.817 306.5,185.5C 303.673,185.416 301.006,184.75 298.5,183.5C 298.027,182.094 297.027,181.427 295.5,181.5C 290.515,176.844 286.515,171.51 283.5,165.5C 282.646,159.879 282.313,154.212 282.5,148.5C 283.738,146.786 284.405,144.786 284.5,142.5C 285.338,142.158 285.672,141.492 285.5,140.5C 287.326,138.853 288.66,136.853 289.5,134.5C 291.167,133.5 292.5,132.167 293.5,130.5C 295.027,130.573 296.027,129.906 296.5,128.5C 298.954,127.773 301.287,126.773 303.5,125.5 Z"/></g>
<g><path style="opacity:0.999" fill="#070707" d="M 539.5,45.5 C 551.851,45.1676 564.185,45.501 576.5,46.5C 596.532,78.7013 616.365,111.035 636,143.5C 636.667,215.167 636.667,286.833 636,358.5C 616.291,388.752 596.458,418.919 576.5,449C 564.505,449.5 552.505,449.667 540.5,449.5C 539.512,314.846 539.178,180.18 539.5,45.5 Z"/></g>
<g><path style="opacity:0.517" fill="#f9f9f8" d="M 421.5,76.5 C 430.017,76.1739 438.35,76.5073 446.5,77.5C 438.018,78.864 429.685,78.5307 421.5,76.5 Z"/></g>
<g><path style="opacity:0.402" fill="#fefffe" d="M 377.5,117.5 C 376.391,117.557 375.391,117.89 374.5,118.5C 374.351,114.999 375.351,114.666 377.5,117.5 Z"/></g>
<g><path style="opacity:0.375" fill="#f4f6f6" d="M 320.5,125.5 C 314.833,125.5 309.167,125.5 303.5,125.5C 309.156,122.941 314.823,122.941 320.5,125.5 Z"/></g>
<g><path style="opacity:0.395" fill="#e7e9e8" d="M 320.5,125.5 C 321.833,125.5 323.167,125.5 324.5,125.5C 324.768,127.099 324.434,128.432 323.5,129.5C 323.229,127.57 322.229,126.236 320.5,125.5 Z"/></g>
<g><path style="opacity:0.294" fill="#fcfffc" d="M 296.5,128.5 C 296.027,129.906 295.027,130.573 293.5,130.5C 293.973,129.094 294.973,128.427 296.5,128.5 Z"/></g>
<g><path style="opacity:0.34" fill="#fbfbfb" d="M 404.5,128.5 C 409.027,128.005 410.361,129.672 408.5,133.5C 408.592,130.6 407.259,128.933 404.5,128.5 Z"/></g>
<g><path style="opacity:0.166" fill="#f7f7f7" d="M 442.5,132.5 C 438.939,133.23 435.273,133.897 431.5,134.5C 434.684,132.586 438.351,131.92 442.5,132.5 Z"/></g>
<g><path style="opacity:0.392" fill="#fefffe" d="M 289.5,134.5 C 288.66,136.853 287.326,138.853 285.5,140.5C 285.845,137.802 287.178,135.802 289.5,134.5 Z"/></g>
<g><path style="opacity:0.295" fill="#fefffd" d="M 284.5,142.5 C 284.405,144.786 283.738,146.786 282.5,148.5C 282.259,146.102 282.926,144.102 284.5,142.5 Z"/></g>
<g><path style="opacity:0.116" fill="#fefffe" d="M 320.5,142.5 C 320.5,143.5 320.5,144.5 320.5,145.5C 318.167,145.5 315.833,145.5 313.5,145.5C 315.974,144.895 318.307,143.895 320.5,142.5 Z"/></g>
<g><path style="opacity:0.985" fill="#0d0d0d" d="M 454.5,156.5 C 475.403,165.951 495.736,176.451 515.5,188C 513.797,194.838 511.964,201.672 510,208.5C 509.439,209.022 508.772,209.355 508,209.5C 489.42,204.73 470.92,199.73 452.5,194.5C 452.271,181.759 452.938,169.092 454.5,156.5 Z"/></g>
<g><path style="opacity:0.397" fill="#fefffe" d="M 392.5,167.5 C 395.767,169.427 398.767,171.761 401.5,174.5C 401.631,175.239 401.464,175.906 401,176.5C 397.962,173.631 395.129,170.631 392.5,167.5 Z"/></g>
<g><path style="opacity:0.18" fill="#f7f7fa" d="M 379.5,171.5 C 380.906,171.973 381.573,172.973 381.5,174.5C 380.094,174.027 379.427,173.027 379.5,171.5 Z"/></g>
<g><path style="opacity:0.391" fill="#f9f9f9" d="M 283.5,165.5 C 286.515,171.51 290.515,176.844 295.5,181.5C 289.089,178.025 285.089,172.692 283.5,165.5 Z"/></g>
<g><path style="opacity:0.245" fill="#fefffe" d="M 381.5,174.5 C 382.906,174.973 383.573,175.973 383.5,177.5C 382.094,177.027 381.427,176.027 381.5,174.5 Z"/></g>
<g><path style="opacity:0.368" fill="#f1f4f1" d="M 383.5,177.5 C 385.985,178.74 385.985,179.74 383.5,180.5C 383.5,179.5 383.5,178.5 383.5,177.5 Z"/></g>
<g><path style="opacity:0.316" fill="#fefffe" d="M 295.5,181.5 C 297.027,181.427 298.027,182.094 298.5,183.5C 296.973,183.573 295.973,182.906 295.5,181.5 Z"/></g>
<g><path style="opacity:0.503" fill="#fbfcfb" d="M 397.5,195.5 C 397.5,193.5 397.5,191.5 397.5,189.5C 395.139,189.674 392.806,190.007 390.5,190.5C 392.975,188.994 395.642,187.661 398.5,186.5C 398.833,187 399.167,187.5 399.5,188C 398.984,190.669 398.317,193.169 397.5,195.5 Z"/></g>
<g><path style="opacity:0.387" fill="#fefffe" d="M 387.5,191.5 C 385.208,193.267 382.542,194.267 379.5,194.5C 381.792,192.733 384.458,191.733 387.5,191.5 Z"/></g>
<g><path style="opacity:0.363" fill="#fefffe" d="M 395.5,207.5 C 394.448,209.256 392.781,209.923 390.5,209.5C 392.028,208.691 393.694,208.024 395.5,207.5 Z"/></g>
<g><path style="opacity:0.503" fill="#f7f8f8" d="M 395.5,232.5 C 394.055,234.063 392.389,235.396 390.5,236.5C 391.129,234.003 392.796,232.67 395.5,232.5 Z"/></g>
<g><path style="opacity:0.509" fill="#fefffe" d="M 342.5,236.5 C 342.5,238.5 342.5,240.5 342.5,242.5C 341.624,242.631 340.957,242.298 340.5,241.5C 341.028,239.664 341.694,237.997 342.5,236.5 Z"/></g>
<g><path style="opacity:0.991" fill="#0b0b0b" d="M 452.5,240.5 C 471.898,241.087 491.231,242.421 510.5,244.5C 510.5,251.833 510.5,259.167 510.5,266.5C 491.244,268.959 471.911,270.625 452.5,271.5C 452.5,261.167 452.5,250.833 452.5,240.5 Z"/></g>
<g><path style="opacity:0.396" fill="#fdfdfd" d="M 365.5,236.5 C 364.149,245.953 359.149,248.619 350.5,244.5C 354.359,245.285 358.025,245.118 361.5,244C 362.752,241.367 364.086,238.867 365.5,236.5 Z"/></g>
<g><path style="opacity:0.393" fill="#eff6f6" d="M 179.5,272.5 C 177.786,273.738 175.786,274.405 173.5,274.5C 175.102,272.926 177.102,272.259 179.5,272.5 Z"/></g>
<g><path style="opacity:0.439" fill="#fefffe" d="M 173.5,274.5 C 172.22,275.931 170.553,276.598 168.5,276.5C 169.78,275.069 171.447,274.402 173.5,274.5 Z"/></g>
<g><path style="opacity:0.425" fill="#fefffe" d="M 210.5,276.5 C 212.027,276.427 213.027,277.094 213.5,278.5C 211.973,278.573 210.973,277.906 210.5,276.5 Z"/></g>
<g><path style="opacity:0.415" fill="#f1f1f3" d="M 213.5,278.5 C 216.833,279.833 219.167,282.167 220.5,285.5C 217.833,283.5 215.5,281.167 213.5,278.5 Z"/></g>
<g><path style="opacity:0.185" fill="#f8f9f8" d="M 155.5,284.5 C 156.568,285.434 157.901,285.768 159.5,285.5C 157.712,286.622 155.712,286.789 153.5,286C 154.044,285.283 154.711,284.783 155.5,284.5 Z"/></g>
<g><path style="opacity:0.282" fill="#f9f9f6" d="M 221.5,286.5 C 222.906,286.973 223.573,287.973 223.5,289.5C 222.094,289.027 221.427,288.027 221.5,286.5 Z"/></g>
<g><path style="opacity:0.986" fill="#0e0e0d" d="M 505.5,301.5 C 508.48,301.241 510.313,302.574 511,305.5C 512.982,311.722 513.982,318.055 514,324.5C 495.034,336.233 475.201,346.233 454.5,354.5C 453.047,342.208 452.547,329.874 453,317.5C 470.556,312.035 488.056,306.701 505.5,301.5 Z"/></g>
<g><path style="opacity:0.767" fill="#f7f7f6" d="M 229.5,303.5 C 231.524,308.755 231.857,314.089 230.5,319.5C 230.431,314.146 230.098,308.813 229.5,303.5 Z"/></g>
<g><path style="opacity:0.084" fill="#f4f6f6" d="M 350.5,331.5 C 351.167,332.167 351.833,332.833 352.5,333.5C 352.217,334.289 351.717,334.956 351,335.5C 350.51,334.207 350.343,332.873 350.5,331.5 Z"/></g>
<g><path style="opacity:0.469" fill="#f9fbfb" d="M 325.5,397.5 C 328.022,399.002 328.022,400.335 325.5,401.5C 326.405,400.298 326.405,398.964 325.5,397.5 Z"/></g>
<g><path style="opacity:0.672" fill="#f7f8f6" d="M 141.5,471.5 C 141.5,472.167 141.833,472.5 142.5,472.5C 141.749,473.573 140.749,473.74 139.5,473C 140.044,472.283 140.711,471.783 141.5,471.5 Z"/></g>
<g><path style="opacity:0.699" fill="#fefffe" d="M 513.5,496.5 C 559.831,497.063 606.165,497.397 652.5,497.5C 606.668,498.665 560.668,498.832 514.5,498C 513.944,497.617 513.611,497.117 513.5,496.5 Z"/></g>
</svg>
