<?xml version="1.0" encoding="UTF-8"?>
<!DOCTYPE svg PUBLIC "-//W3C//DTD SVG 1.1//EN" "http://www.w3.org/Graphics/SVG/1.1/DTD/svg11.dtd">
<svg xmlns="http://www.w3.org/2000/svg" version="1.1" width="752px" height="539px" style="shape-rendering:geometricPrecision; text-rendering:geometricPrecision; image-rendering:optimizeQuality; fill-rule:evenodd; clip-rule:evenodd" xmlns:xlink="http://www.w3.org/1999/xlink">
<g><path style="opacity:1" fill="#1c80fc" d="M 421.5,76.5 C 424.228,77.2052 427.061,77.8719 430,78.5C 435.62,77.6001 441.12,77.2667 446.5,77.5C 450.182,77.3347 453.848,77.5014 457.5,78C 472.937,89.3889 489.604,98.7222 507.5,106C 508.451,106.718 508.617,107.551 508,108.5C 491.368,121.384 472.535,129.218 451.5,132C 445.174,132.733 438.84,133.399 432.5,134C 426.983,164.936 420.983,195.769 414.5,226.5C 406.791,228.457 399.457,231.29 392.5,235C 389.388,242.323 385.888,249.489 382,256.5C 374.579,264.876 365.246,269.209 354,269.5C 342.234,268.346 330.734,266.179 319.5,263C 307.97,274.196 296.803,285.696 286,297.5C 285.841,328.798 281.341,359.465 272.5,389.5C 247.047,400.874 221.047,410.874 194.5,419.5C 205.695,388.42 217.195,357.42 229,326.5C 232.171,311.508 229.338,297.841 220.5,285.5C 219.167,282.167 216.833,279.833 213.5,278.5C 198.879,269.7 183.879,269.2 168.5,277C 163.902,279.27 159.569,281.937 155.5,285C 167.51,283.753 178.51,286.42 188.5,293C 197.062,301.021 200.229,310.855 198,322.5C 196.202,328.895 194.202,335.228 192,341.5C 174.709,385.056 158.042,428.722 142,472.5C 203.754,448.917 265.254,424.75 326.5,400C 322.125,392.749 317.625,385.582 313,378.5C 312.944,365.836 313.277,353.169 314,340.5C 322.699,334.066 332.199,329.066 342.5,325.5C 346.649,325.662 349.316,327.662 350.5,331.5C 350.276,336.145 351.61,336.478 354.5,332.5C 362.7,326.706 371.7,325.206 381.5,328C 384.562,329.061 387.062,330.894 389,333.5C 399.699,350.895 409.366,368.895 418,387.5C 420.078,396.884 418.078,405.217 412,412.5C 401.525,418.654 390.692,424.154 379.5,429C 326.354,451.409 273.354,474.075 220.5,497C 267.167,497.667 313.833,497.667 360.5,497C 382.515,458.502 415.515,443.502 459.5,452C 483.344,459.353 501.344,473.853 513.5,495.5C 559.82,497.063 606.153,497.73 652.5,497.5C 652.5,495.5 652.5,493.5 652.5,491.5C 653.333,414.668 653.833,337.668 654,260.5C 654.383,261.056 654.883,261.389 655.5,261.5C 666.577,274.758 676.744,288.758 686,303.5C 686.5,368.166 686.667,432.832 686.5,497.5C 705.167,497.5 723.833,497.5 742.5,497.5C 742.5,508.5 742.5,519.5 742.5,530.5C 498.5,531.04 254.5,531.373 10.5,531.5C 10.5,520.167 10.5,508.833 10.5,497.5C 18.1667,497.5 25.8333,497.5 33.5,497.5C 36.9598,428.608 59.1265,366.608 100,311.5C 105.284,305.237 110.784,299.237 116.5,293.5C 119.562,291.49 121.562,289.157 122.5,286.5C 122.833,285.5 123.5,284.833 124.5,284.5C 126.819,283.909 128.819,282.242 130.5,279.5C 140.445,269.392 151.445,260.558 163.5,253C 189.004,238.08 214.671,223.414 240.5,209C 244.6,206.533 248.434,203.699 252,200.5C 252.667,199.5 252.667,198.5 252,197.5C 232.455,163.076 229.122,127.076 242,89.5C 262.12,42.383 297.787,17.7164 349,15.5C 358.265,15.302 367.431,16.1353 376.5,18C 404.606,26.2763 432.939,33.443 461.5,39.5C 447.691,51.1621 432.025,54.3288 414.5,49C 395.875,42.3846 376.708,38.5513 357,37.5C 352.986,37.3657 349.153,37.8657 345.5,39C 362.521,50.85 380.521,61.1833 399.5,70C 406.601,73.0905 413.934,75.2572 421.5,76.5 Z M 404.5,128.5 C 407.259,128.933 408.592,130.6 408.5,133.5C 405.632,147.043 403.298,160.71 401.5,174.5C 398.767,171.761 395.767,169.427 392.5,167.5C 387.816,161.817 382.483,156.817 376.5,152.5C 375.249,155.756 374.249,159.09 373.5,162.5C 376.167,167.838 379.334,172.838 383,177.5C 383.483,178.448 383.649,179.448 383.5,180.5C 380.677,180.025 378.677,181.025 377.5,183.5C 376.638,187.453 376.305,191.453 376.5,195.5C 377.791,195.737 378.791,195.404 379.5,194.5C 382.542,194.267 385.208,193.267 387.5,191.5C 388.791,191.737 389.791,191.404 390.5,190.5C 392.806,190.007 395.139,189.674 397.5,189.5C 397.5,191.5 397.5,193.5 397.5,195.5C 396.354,199.394 395.521,203.394 395,207.5C 391.527,208.658 388.027,209.824 384.5,211C 381.894,211.792 379.894,213.292 378.5,215.5C 375.167,216.833 372.833,219.167 371.5,222.5C 368.162,226.492 366.162,231.158 365.5,236.5C 364.065,238.598 362.898,240.931 362,243.5C 360.378,244.099 358.878,244.766 357.5,245.5C 352.512,244.595 347.512,243.595 342.5,242.5C 352.387,200.952 363.221,159.619 375,118.5C 375.414,118.043 375.914,117.709 376.5,117.5C 385.418,122.295 394.751,125.962 404.5,128.5 Z M 303.5,125.5 C 309.167,125.5 314.833,125.5 320.5,125.5C 322.229,126.236 323.229,127.57 323.5,129.5C 322.057,133.615 321.057,137.948 320.5,142.5C 318.307,143.895 315.974,144.895 313.5,145.5C 308.299,145.701 305.299,148.368 304.5,153.5C 302.91,156.944 303.576,159.944 306.5,162.5C 307.809,164.497 309.142,166.497 310.5,168.5C 309.004,174.151 307.67,179.817 306.5,185.5C 302.505,184.999 298.838,183.666 295.5,181.5C 290.515,176.844 286.515,171.51 283.5,165.5C 281.753,156.954 282.42,148.62 285.5,140.5C 287.326,138.853 288.66,136.853 289.5,134.5C 293.629,130.712 298.296,127.712 303.5,125.5 Z"/></g>
<g><path style="opacity:1" fill="#1e81fd" d="M 539.5,45.5 C 551.851,45.1676 564.185,45.501 576.5,46.5C 596.532,78.7013 616.365,111.035 636,143.5C 636.667,215.167 636.667,286.833 636,358.5C 616.291,388.752 596.458,418.919 576.5,449C 564.505,449.5 552.505,449.667 540.5,449.5C 539.512,314.846 539.178,180.18 539.5,45.5 Z"/></g>
<g><path style="opacity:0.236" fill="#f6f7f5" d="M 421.5,76.5 C 430.017,76.1739 438.35,76.5073 446.5,77.5C 441.12,77.2667 435.62,77.6001 430,78.5C 427.061,77.8719 424.228,77.2052 421.5,76.5 Z"/></g>
<g><path style="opacity:0.219" fill="#f2f5f4" d="M 320.5,125.5 C 314.833,125.5 309.167,125.5 303.5,125.5C 305.218,124.776 307.052,124.109 309,123.5C 312.829,123.555 316.662,124.222 320.5,125.5 Z"/></g>
<g><path style="opacity:0.395" fill="#e7e9e8" d="M 320.5,125.5 C 321.833,125.5 323.167,125.5 324.5,125.5C 324.768,127.099 324.434,128.432 323.5,129.5C 323.229,127.57 322.229,126.236 320.5,125.5 Z"/></g>
<g><path style="opacity:0.34" fill="#fbfbfb" d="M 404.5,128.5 C 409.027,128.005 410.361,129.672 408.5,133.5C 408.592,130.6 407.259,128.933 404.5,128.5 Z"/></g>
<g><path style="opacity:0.392" fill="#fefffe" d="M 289.5,134.5 C 288.66,136.853 287.326,138.853 285.5,140.5C 285.845,137.802 287.178,135.802 289.5,134.5 Z"/></g>
<g><path style="opacity:0.116" fill="#fefffe" d="M 320.5,142.5 C 320.5,143.5 320.5,144.5 320.5,145.5C 318.167,145.5 315.833,145.5 313.5,145.5C 315.974,144.895 318.307,143.895 320.5,142.5 Z"/></g>
<g><path style="opacity:1" fill="#277ef5" d="M 454.5,194.5 C 453.534,186.92 453.201,179.253 453.5,171.5C 453.112,166.372 453.612,161.372 455,156.5C 475.686,166.092 495.853,176.592 515.5,188C 513.797,194.838 511.964,201.672 510,208.5C 509.439,209.022 508.772,209.355 508,209.5C 489.981,205.038 472.148,200.038 454.5,194.5 Z"/></g>
<g><path style="opacity:0.357" fill="#bbbabd" d="M 304.5,153.5 C 304.405,156.692 305.071,159.692 306.5,162.5C 303.576,159.944 302.91,156.944 304.5,153.5 Z"/></g>
<g><path style="opacity:0.359" fill="#fefffe" d="M 392.5,167.5 C 395.767,169.427 398.767,171.761 401.5,174.5C 401.103,175.525 400.437,175.692 399.5,175C 396.961,172.63 394.628,170.13 392.5,167.5 Z"/></g>
<g><path style="opacity:0.391" fill="#f9f9f9" d="M 283.5,165.5 C 286.515,171.51 290.515,176.844 295.5,181.5C 289.089,178.025 285.089,172.692 283.5,165.5 Z"/></g>
<g><path style="opacity:0.735" fill="#bfc1c2" d="M 453.5,171.5 C 453.201,179.253 453.534,186.92 454.5,194.5C 453.177,191.062 452.51,187.229 452.5,183C 452.501,178.985 452.835,175.151 453.5,171.5 Z"/></g>
<g><path style="opacity:0.232" fill="#fafcfa" d="M 397.5,195.5 C 397.5,193.5 397.5,191.5 397.5,189.5C 395.139,189.674 392.806,190.007 390.5,190.5C 397.078,185.961 399.411,187.628 397.5,195.5 Z"/></g>
<g><path style="opacity:0.387" fill="#fefffe" d="M 387.5,191.5 C 385.208,193.267 382.542,194.267 379.5,194.5C 381.792,192.733 384.458,191.733 387.5,191.5 Z"/></g>
<g><path style="opacity:0.616" fill="#4a4a4a" d="M 378.5,215.5 C 376.5,218.167 374.167,220.5 371.5,222.5C 372.833,219.167 375.167,216.833 378.5,215.5 Z"/></g>
<g><path style="opacity:1" fill="#2980f7" d="M 452.5,240.5 C 471.898,241.087 491.231,242.421 510.5,244.5C 510.5,251.833 510.5,259.167 510.5,266.5C 491.244,268.959 471.911,270.625 452.5,271.5C 452.5,261.167 452.5,250.833 452.5,240.5 Z"/></g>
<g><path style="opacity:0.269" fill="#fdfdfd" d="M 365.5,236.5 C 365.174,239.311 364.341,241.978 363,244.5C 361.301,245.406 359.467,245.739 357.5,245.5C 358.878,244.766 360.378,244.099 362,243.5C 362.898,240.931 364.065,238.598 365.5,236.5 Z"/></g>
<g><path style="opacity:0.371" fill="#030303" d="M 655.5,261.5 C 654.883,261.389 654.383,261.056 654,260.5C 653.833,337.668 653.333,414.668 652.5,491.5C 652.167,413.83 652.5,336.164 653.5,258.5C 654.919,259.005 655.585,260.005 655.5,261.5 Z"/></g>
<g><path style="opacity:0.415" fill="#f1f1f3" d="M 213.5,278.5 C 216.833,279.833 219.167,282.167 220.5,285.5C 217.833,283.5 215.5,281.167 213.5,278.5 Z"/></g>
<g><path style="opacity:0.898" fill="#4a4a4a" d="M 130.5,279.5 C 128.819,282.242 126.819,283.909 124.5,284.5C 125.911,282.086 127.911,280.419 130.5,279.5 Z"/></g>
<g><path style="opacity:0.992" fill="#4a4a4a" d="M 122.5,286.5 C 121.562,289.157 119.562,291.49 116.5,293.5C 117.757,290.573 119.757,288.239 122.5,286.5 Z"/></g>
<g><path style="opacity:1" fill="#2e80f5" d="M 505.5,301.5 C 508.48,301.241 510.313,302.574 511,305.5C 512.982,311.722 513.982,318.055 514,324.5C 495.034,336.233 475.201,346.233 454.5,354.5C 453.047,342.208 452.547,329.874 453,317.5C 470.556,312.035 488.056,306.701 505.5,301.5 Z"/></g>
<g><path style="opacity:0.084" fill="#cacfd1" d="M 350.5,331.5 C 351.222,331.918 351.722,332.584 352,333.5C 352.671,332.748 353.504,332.414 354.5,332.5C 351.61,336.478 350.276,336.145 350.5,331.5 Z"/></g>
</svg>
