<?xml version="1.0" encoding="UTF-8"?>
<!DOCTYPE svg PUBLIC "-//W3C//DTD SVG 1.1//EN" "http://www.w3.org/Graphics/SVG/1.1/DTD/svg11.dtd">
<svg xmlns="http://www.w3.org/2000/svg" version="1.1" width="752px" height="539px" style="shape-rendering:geometricPrecision; text-rendering:geometricPrecision; image-rendering:optimizeQuality; fill-rule:evenodd; clip-rule:evenodd" xmlns:xlink="http://www.w3.org/1999/xlink">
<g><path style="opacity:1" fill="#af8e4f" d="M 421.5,76.5 C 424.228,77.2052 427.061,77.8719 430,78.5C 435.407,77.5268 440.907,77.1934 446.5,77.5C 450.182,77.3347 453.848,77.5014 457.5,78C 472.937,89.3889 489.604,98.7222 507.5,106C 508.451,106.718 508.617,107.551 508,108.5C 491.368,121.384 472.535,129.218 451.5,132C 445.174,132.733 438.84,133.399 432.5,134C 426.983,164.936 420.983,195.769 414.5,226.5C 406.791,228.457 399.457,231.29 392.5,235C 389.388,242.323 385.888,249.489 382,256.5C 374.579,264.876 365.246,269.209 354,269.5C 342.234,268.346 330.734,266.179 319.5,263C 307.97,274.196 296.803,285.696 286,297.5C 285.841,328.798 281.341,359.465 272.5,389.5C 247.047,400.874 221.047,410.874 194.5,419.5C 205.695,388.42 217.195,357.42 229,326.5C 232.171,311.508 229.338,297.841 220.5,285.5C 219.167,282.167 216.833,279.833 213.5,278.5C 198.879,269.7 183.879,269.2 168.5,277C 163.902,279.27 159.569,281.937 155.5,285C 167.51,283.753 178.51,286.42 188.5,293C 197.062,301.021 200.229,310.855 198,322.5C 196.202,328.895 194.202,335.228 192,341.5C 174.709,385.056 158.042,428.722 142,472.5C 203.754,448.917 265.254,424.75 326.5,400C 322.125,392.749 317.625,385.582 313,378.5C 312.944,365.836 313.277,353.169 314,340.5C 322.699,334.066 332.199,329.066 342.5,325.5C 347.327,326.158 350.494,328.825 352,333.5C 361.018,327.119 370.851,325.285 381.5,328C 384.562,329.061 387.062,330.894 389,333.5C 399.095,350.019 408.428,367.019 417,384.5C 420.225,394.78 418.558,404.113 412,412.5C 401.525,418.654 390.692,424.154 379.5,429C 326.354,451.409 273.354,474.075 220.5,497C 267.167,497.667 313.833,497.667 360.5,497C 382.515,458.502 415.515,443.502 459.5,452C 483.344,459.353 501.344,473.853 513.5,495.5C 559.82,497.063 606.153,497.73 652.5,497.5C 652.5,495.5 652.5,493.5 652.5,491.5C 653.333,414.668 653.833,337.668 654,260.5C 654.383,261.056 654.883,261.389 655.5,261.5C 666.577,274.758 676.744,288.758 686,303.5C 686.5,368.166 686.667,432.832 686.5,497.5C 705.167,497.5 723.833,497.5 742.5,497.5C 742.5,508.5 742.5,519.5 742.5,530.5C 498.5,531.04 254.5,531.373 10.5,531.5C 10.5,520.167 10.5,508.833 10.5,497.5C 18.1667,497.5 25.8333,497.5 33.5,497.5C 37.3696,418.808 65.2029,350.142 117,291.5C 136.563,271.147 158.729,254.313 183.5,241C 207.075,228.634 229.909,215.134 252,200.5C 252.667,199.5 252.667,198.5 252,197.5C 233.658,166.406 229.324,133.406 239,98.5C 254.486,52.0102 286.319,24.5102 334.5,16C 346.868,15.1851 359.201,15.5185 371.5,17C 401.314,25.442 431.314,32.942 461.5,39.5C 447.691,51.1621 432.025,54.3288 414.5,49C 401.658,45.0526 388.658,41.7192 375.5,39C 365.87,37.589 356.203,37.2557 346.5,38C 346.167,38.3333 345.833,38.6667 345.5,39C 364.068,51.7883 383.734,62.7883 404.5,72C 410.084,73.9787 415.75,75.4787 421.5,76.5 Z M 404.5,128.5 C 407.259,128.933 408.592,130.6 408.5,133.5C 405.632,147.043 403.298,160.71 401.5,174.5C 398.767,171.761 395.767,169.427 392.5,167.5C 387.816,161.817 382.483,156.817 376.5,152.5C 375.249,155.756 374.249,159.09 373.5,162.5C 376.167,167.838 379.334,172.838 383,177.5C 383.483,178.448 383.649,179.448 383.5,180.5C 380.677,180.025 378.677,181.025 377.5,183.5C 376.638,187.453 376.305,191.453 376.5,195.5C 377.791,195.737 378.791,195.404 379.5,194.5C 382.542,194.267 385.208,193.267 387.5,191.5C 388.791,191.737 389.791,191.404 390.5,190.5C 392.806,190.007 395.139,189.674 397.5,189.5C 397.5,191.5 397.5,193.5 397.5,195.5C 396.354,199.394 395.521,203.394 395,207.5C 378.687,210.647 368.854,220.313 365.5,236.5C 364.065,238.598 362.898,240.931 362,243.5C 360.378,244.099 358.878,244.766 357.5,245.5C 352.512,244.595 347.512,243.595 342.5,242.5C 352.387,200.952 363.221,159.619 375,118.5C 375.414,118.043 375.914,117.709 376.5,117.5C 385.418,122.295 394.751,125.962 404.5,128.5 Z M 303.5,125.5 C 308.833,125.5 314.167,125.5 319.5,125.5C 321.2,126.016 322.533,127.016 323.5,128.5C 322.183,133.102 321.183,137.769 320.5,142.5C 318.307,143.895 315.974,144.895 313.5,145.5C 305.887,146.972 302.721,151.639 304,159.5C 305.714,162.97 307.881,165.97 310.5,168.5C 309.004,174.151 307.67,179.817 306.5,185.5C 302.505,184.999 298.838,183.666 295.5,181.5C 290.515,176.844 286.515,171.51 283.5,165.5C 281.753,156.954 282.42,148.62 285.5,140.5C 287.326,138.853 288.66,136.853 289.5,134.5C 293.629,130.712 298.296,127.712 303.5,125.5 Z"/></g>
<g><path style="opacity:1" fill="#b08f50" d="M 539.5,45.5 C 551.851,45.1676 564.185,45.501 576.5,46.5C 596.532,78.7013 616.365,111.035 636,143.5C 636.667,215.167 636.667,286.833 636,358.5C 616.291,388.752 596.458,418.919 576.5,449C 564.505,449.5 552.505,449.667 540.5,449.5C 539.512,314.846 539.178,180.18 539.5,45.5 Z"/></g>
<g><path style="opacity:0.236" fill="#fbfbfa" d="M 421.5,76.5 C 430.017,76.1739 438.35,76.5073 446.5,77.5C 440.907,77.1934 435.407,77.5268 430,78.5C 427.061,77.8719 424.228,77.2052 421.5,76.5 Z"/></g>
<g><path style="opacity:0.219" fill="#f9fbfa" d="M 319.5,125.5 C 314.167,125.5 308.833,125.5 303.5,125.5C 305.218,124.776 307.052,124.109 309,123.5C 312.603,123.21 316.103,123.876 319.5,125.5 Z"/></g>
<g><path style="opacity:0.34" fill="#fbfbfb" d="M 404.5,128.5 C 409.027,128.005 410.361,129.672 408.5,133.5C 408.592,130.6 407.259,128.933 404.5,128.5 Z"/></g>
<g><path style="opacity:0.392" fill="#fefffe" d="M 289.5,134.5 C 288.66,136.853 287.326,138.853 285.5,140.5C 285.845,137.802 287.178,135.802 289.5,134.5 Z"/></g>
<g><path style="opacity:0.116" fill="#fefffe" d="M 320.5,142.5 C 320.5,143.5 320.5,144.5 320.5,145.5C 318.167,145.5 315.833,145.5 313.5,145.5C 315.974,144.895 318.307,143.895 320.5,142.5 Z"/></g>
<g><path style="opacity:1" fill="#ac8c4f" d="M 454.5,194.5 C 453.534,186.92 453.201,179.253 453.5,171.5C 453.112,166.372 453.612,161.372 455,156.5C 475.686,166.092 495.853,176.592 515.5,188C 513.797,194.838 511.964,201.672 510,208.5C 509.439,209.022 508.772,209.355 508,209.5C 489.981,205.038 472.148,200.038 454.5,194.5 Z"/></g>
<g><path style="opacity:0.359" fill="#fefffe" d="M 392.5,167.5 C 395.767,169.427 398.767,171.761 401.5,174.5C 401.103,175.525 400.437,175.692 399.5,175C 396.961,172.63 394.628,170.13 392.5,167.5 Z"/></g>
<g><path style="opacity:0.391" fill="#f9f9f9" d="M 283.5,165.5 C 286.515,171.51 290.515,176.844 295.5,181.5C 289.089,178.025 285.089,172.692 283.5,165.5 Z"/></g>
<g><path style="opacity:0.735" fill="#bfc1c2" d="M 453.5,171.5 C 453.201,179.253 453.534,186.92 454.5,194.5C 453.177,191.062 452.51,187.229 452.5,183C 452.501,178.985 452.835,175.151 453.5,171.5 Z"/></g>
<g><path style="opacity:0.232" fill="#fafcfa" d="M 397.5,195.5 C 397.5,193.5 397.5,191.5 397.5,189.5C 395.139,189.674 392.806,190.007 390.5,190.5C 397.078,185.961 399.411,187.628 397.5,195.5 Z"/></g>
<g><path style="opacity:0.387" fill="#fefffe" d="M 387.5,191.5 C 385.208,193.267 382.542,194.267 379.5,194.5C 381.792,192.733 384.458,191.733 387.5,191.5 Z"/></g>
<g><path style="opacity:1" fill="#ad8d50" d="M 452.5,240.5 C 471.898,241.087 491.231,242.421 510.5,244.5C 510.5,251.833 510.5,259.167 510.5,266.5C 491.244,268.959 471.911,270.625 452.5,271.5C 452.5,261.167 452.5,250.833 452.5,240.5 Z"/></g>
<g><path style="opacity:0.269" fill="#fdfdfd" d="M 365.5,236.5 C 365.174,239.311 364.341,241.978 363,244.5C 361.301,245.406 359.467,245.739 357.5,245.5C 358.878,244.766 360.378,244.099 362,243.5C 362.898,240.931 364.065,238.598 365.5,236.5 Z"/></g>
<g><path style="opacity:0.371" fill="#030303" d="M 655.5,261.5 C 654.883,261.389 654.383,261.056 654,260.5C 653.833,337.668 653.333,414.668 652.5,491.5C 652.167,413.83 652.5,336.164 653.5,258.5C 654.919,259.005 655.585,260.005 655.5,261.5 Z"/></g>
<g><path style="opacity:0.415" fill="#f1f1f3" d="M 213.5,278.5 C 216.833,279.833 219.167,282.167 220.5,285.5C 217.833,283.5 215.5,281.167 213.5,278.5 Z"/></g>
<g><path style="opacity:1" fill="#ad8d51" d="M 505.5,301.5 C 508.48,301.241 510.313,302.574 511,305.5C 512.982,311.722 513.982,318.055 514,324.5C 495.034,336.233 475.201,346.233 454.5,354.5C 453.047,342.208 452.547,329.874 453,317.5C 470.556,312.035 488.056,306.701 505.5,301.5 Z"/></g>
</svg>
