<?xml version="1.0" encoding="UTF-8"?>
<!DOCTYPE svg PUBLIC "-//W3C//DTD SVG 1.1//EN" "http://www.w3.org/Graphics/SVG/1.1/DTD/svg11.dtd">
<svg xmlns="http://www.w3.org/2000/svg" version="1.1" width="752px" height="539px" style="shape-rendering:geometricPrecision; text-rendering:geometricPrecision; image-rendering:optimizeQuality; fill-rule:evenodd; clip-rule:evenodd" xmlns:xlink="http://www.w3.org/1999/xlink">
<g><path style="opacity:0.986" fill="#fcfcfc" d="M 458.5,38.5 C 459.167,39.1667 459.833,39.8333 460.5,40.5C 446.806,51.3368 431.473,54.1702 414.5,49C 395.875,42.3846 376.708,38.5513 357,37.5C 352.986,37.3657 349.153,37.8657 345.5,39C 362.521,50.85 380.521,61.1833 399.5,70C 406.209,73.0139 413.209,75.0139 420.5,76C 432.856,76.2829 445.189,76.9496 457.5,78C 463.66,82.5804 469.993,86.9138 476.5,91C 487.358,96.2614 498.025,101.761 508.5,107.5C 499.277,115.952 488.61,122.119 476.5,126C 462.167,130.466 447.501,133.133 432.5,134C 426.983,164.936 420.983,195.769 414.5,226.5C 406.791,228.457 399.457,231.29 392.5,235C 389.388,242.323 385.888,249.489 382,256.5C 374.579,264.876 365.246,269.209 354,269.5C 342.234,268.346 330.734,266.179 319.5,263C 307.97,274.196 296.803,285.696 286,297.5C 285.841,328.798 281.341,359.465 272.5,389.5C 248.048,400.54 223.048,410.207 197.5,418.5C 196.167,418.5 195.5,417.833 195.5,416.5C 204.636,390.263 214.469,364.263 225,338.5C 233.286,320.329 231.953,302.996 221,286.5C 205.999,270.233 188.499,267.067 168.5,277C 163.902,279.27 159.569,281.937 155.5,285C 167.51,283.753 178.51,286.42 188.5,293C 197.062,301.021 200.229,310.855 198,322.5C 196.202,328.895 194.202,335.228 192,341.5C 174.709,385.056 158.042,428.722 142,472.5C 203.754,448.917 265.254,424.75 326.5,400C 322.125,392.749 317.625,385.582 313,378.5C 312.944,365.836 313.277,353.169 314,340.5C 322.699,334.066 332.199,329.066 342.5,325.5C 347.327,326.158 350.494,328.825 352,333.5C 361.018,327.119 370.851,325.285 381.5,328C 384.562,329.061 387.062,330.894 389,333.5C 399.095,350.019 408.428,367.019 417,384.5C 421.207,396.787 418.373,406.954 408.5,415C 401.833,418.333 395.167,421.667 388.5,425C 332.302,448.619 276.302,472.619 220.5,497C 267.167,497.667 313.833,497.667 360.5,497C 382.515,458.502 415.515,443.502 459.5,452C 472.085,455.619 483.085,461.785 492.5,470.5C 493.262,472.262 494.596,473.262 496.5,473.5C 503.114,480.042 508.781,487.375 513.5,495.5C 559.82,497.063 606.153,497.73 652.5,497.5C 652.5,495.5 652.5,493.5 652.5,491.5C 653.333,414.668 653.833,337.668 654,260.5C 654.383,261.056 654.883,261.389 655.5,261.5C 666.577,274.758 676.744,288.758 686,303.5C 686.5,368.166 686.667,432.832 686.5,497.5C 705.167,497.5 723.833,497.5 742.5,497.5C 742.5,508.5 742.5,519.5 742.5,530.5C 498.5,531.04 254.5,531.373 10.5,531.5C 10.5,520.167 10.5,508.833 10.5,497.5C 18.1667,497.5 25.8333,497.5 33.5,497.5C 36.9598,428.608 59.1265,366.608 100,311.5C 105.284,305.237 110.784,299.237 116.5,293.5C 119.562,291.49 121.562,289.157 122.5,286.5C 122.833,285.5 123.5,284.833 124.5,284.5C 126.819,283.909 128.819,282.242 130.5,279.5C 140.445,269.392 151.445,260.558 163.5,253C 189.004,238.08 214.671,223.414 240.5,209C 244.6,206.533 248.434,203.699 252,200.5C 252.667,199.5 252.667,198.5 252,197.5C 233.658,166.406 229.324,133.406 239,98.5C 243.424,82.9716 250.924,69.3049 261.5,57.5C 262.906,57.0269 263.573,56.0269 263.5,54.5C 266.833,50.5 270.5,46.8333 274.5,43.5C 276.404,43.2624 277.738,42.2624 278.5,40.5C 278.833,39.5 279.5,38.8333 280.5,38.5C 282.027,38.573 283.027,37.9063 283.5,36.5C 285.027,36.573 286.027,35.9063 286.5,34.5C 286.973,33.0937 287.973,32.427 289.5,32.5C 291.027,32.573 292.027,31.9063 292.5,30.5C 314.366,17.5595 338.033,12.7262 363.5,16C 385.135,20.0755 406.469,25.4088 427.5,32C 437.901,34.5122 448.234,36.6789 458.5,38.5 Z M 379.5,181.5 C 377.824,182.183 377.157,183.517 377.5,185.5C 376.521,188.625 376.187,191.958 376.5,195.5C 383.417,193.208 390.417,191.208 397.5,189.5C 397.123,195.554 396.29,201.554 395,207.5C 391.527,208.658 388.027,209.824 384.5,211C 381.894,211.792 379.894,213.292 378.5,215.5C 375.167,216.833 372.833,219.167 371.5,222.5C 369.864,223.749 368.697,225.416 368,227.5C 366.416,233.254 364.25,238.754 361.5,244C 359.899,244.273 358.399,244.773 357,245.5C 352.185,244.548 347.352,243.548 342.5,242.5C 352.387,200.952 363.221,159.619 375,118.5C 375.414,118.043 375.914,117.709 376.5,117.5C 386.474,122.547 396.807,126.714 407.5,130C 408.059,130.725 408.392,131.558 408.5,132.5C 405.892,146.479 403.392,160.479 401,174.5C 392.982,166.981 384.816,159.648 376.5,152.5C 375.249,155.756 374.249,159.09 373.5,162.5C 376.167,167.838 379.334,172.838 383,177.5C 383.483,178.448 383.649,179.448 383.5,180.5C 381.901,180.232 380.568,180.566 379.5,181.5 Z M 302.5,125.5 C 308.509,125.334 314.509,125.501 320.5,126C 321.91,126.368 322.91,127.201 323.5,128.5C 322.324,133.539 320.99,138.539 319.5,143.5C 316.197,144.44 312.864,145.273 309.5,146C 304.74,149.274 302.907,153.774 304,159.5C 305.714,162.97 307.881,165.97 310.5,168.5C 309.004,174.151 307.67,179.817 306.5,185.5C 291.523,181.18 283.523,171.18 282.5,155.5C 283.237,141.449 289.903,131.449 302.5,125.5 Z"/></g>
<g><path style="opacity:0.425" fill="#000000" d="M 292.5,30.5 C 292.027,31.9063 291.027,32.573 289.5,32.5C 289.973,31.0937 290.973,30.427 292.5,30.5 Z"/></g>
<g><path style="opacity:0.496" fill="#000000" d="M 286.5,34.5 C 286.027,35.9063 285.027,36.573 283.5,36.5C 283.973,35.0937 284.973,34.427 286.5,34.5 Z"/></g>
<g><path style="opacity:0.382" fill="#000000" d="M 283.5,36.5 C 283.027,37.9063 282.027,38.573 280.5,38.5C 280.973,37.0937 281.973,36.427 283.5,36.5 Z"/></g>
<g><path style="opacity:0.492" fill="#000000" d="M 458.5,38.5 C 459.675,38.281 460.675,38.6143 461.5,39.5C 461.376,40.1067 461.043,40.44 460.5,40.5C 459.833,39.8333 459.167,39.1667 458.5,38.5 Z"/></g>
<g><path style="opacity:0.473" fill="#000000" d="M 278.5,40.5 C 277.738,42.2624 276.404,43.2624 274.5,43.5C 275.262,41.7376 276.596,40.7376 278.5,40.5 Z"/></g>
<g><path style="opacity:0.993" fill="#fdfdfd" d="M 630.5,135.5 C 630.427,137.027 631.094,138.027 632.5,138.5C 633.338,138.842 633.672,139.508 633.5,140.5C 633.626,142.622 634.293,143.622 635.5,143.5C 636.666,214.999 636.832,286.665 636,358.5C 616.291,388.752 596.458,418.919 576.5,449C 564.505,449.5 552.505,449.667 540.5,449.5C 539.512,314.846 539.178,180.18 539.5,45.5C 551.851,45.1676 564.185,45.501 576.5,46.5C 594.774,76.0559 612.774,105.723 630.5,135.5 Z"/></g>
<g><path style="opacity:0.487" fill="#000000" d="M 263.5,54.5 C 263.573,56.0269 262.906,57.0269 261.5,57.5C 261.427,55.9731 262.094,54.9731 263.5,54.5 Z"/></g>
<g><path style="opacity:0.489" fill="#000000" d="M 630.5,135.5 C 631.906,135.973 632.573,136.973 632.5,138.5C 631.094,138.027 630.427,137.027 630.5,135.5 Z"/></g>
<g><path style="opacity:0.58" fill="#1a1a1a" d="M 633.5,140.5 C 634.906,140.973 635.573,141.973 635.5,143.5C 634.293,143.622 633.626,142.622 633.5,140.5 Z"/></g>
<g><path style="opacity:0.971" fill="#f4f4f4" d="M 454.5,156.5 C 475.403,165.951 495.736,176.451 515.5,188C 513.797,194.838 511.964,201.672 510,208.5C 509.439,209.022 508.772,209.355 508,209.5C 489.42,204.73 470.92,199.73 452.5,194.5C 452.271,181.759 452.938,169.092 454.5,156.5 Z"/></g>
<g><path style="opacity:0.591" fill="#1a1a1a" d="M 379.5,181.5 C 379.011,182.995 378.345,184.329 377.5,185.5C 377.157,183.517 377.824,182.183 379.5,181.5 Z"/></g>
<g><path style="opacity:0.616" fill="#4a4a4a" d="M 378.5,215.5 C 376.5,218.167 374.167,220.5 371.5,222.5C 372.833,219.167 375.167,216.833 378.5,215.5 Z"/></g>
<g><path style="opacity:0.974" fill="#f8f8f8" d="M 510.5,260.5 C 509.715,262.374 509.048,264.374 508.5,266.5C 489.963,269.087 471.297,270.753 452.5,271.5C 452.5,261.167 452.5,250.833 452.5,240.5C 471.898,241.087 491.231,242.421 510.5,244.5C 510.5,249.833 510.5,255.167 510.5,260.5 Z"/></g>
<g><path style="opacity:0.371" fill="#030303" d="M 655.5,261.5 C 654.883,261.389 654.383,261.056 654,260.5C 653.833,337.668 653.333,414.668 652.5,491.5C 652.167,413.83 652.5,336.164 653.5,258.5C 654.919,259.005 655.585,260.005 655.5,261.5 Z"/></g>
<g><path style="opacity:0.865" fill="#000000" d="M 510.5,260.5 C 510.975,263.082 510.308,265.082 508.5,266.5C 509.048,264.374 509.715,262.374 510.5,260.5 Z"/></g>
<g><path style="opacity:0.898" fill="#4a4a4a" d="M 130.5,279.5 C 128.819,282.242 126.819,283.909 124.5,284.5C 125.911,282.086 127.911,280.419 130.5,279.5 Z"/></g>
<g><path style="opacity:0.992" fill="#4a4a4a" d="M 122.5,286.5 C 121.562,289.157 119.562,291.49 116.5,293.5C 117.757,290.573 119.757,288.239 122.5,286.5 Z"/></g>
<g><path style="opacity:0.968" fill="#f5f6f5" d="M 458.5,353.5 C 457.041,353.567 455.708,353.234 454.5,352.5C 452.776,340.659 452.443,328.826 453.5,317C 471.412,311.529 489.412,306.363 507.5,301.5C 509.353,302.189 510.519,303.522 511,305.5C 512.982,311.722 513.982,318.055 514,324.5C 496.089,335.232 477.589,344.899 458.5,353.5 Z"/></g>
<g><path style="opacity:0.315" fill="#000000" d="M 454.5,352.5 C 455.708,353.234 457.041,353.567 458.5,353.5C 458.083,354.124 457.416,354.457 456.5,354.5C 455.287,354.253 454.62,353.586 454.5,352.5 Z"/></g>
<g><path style="opacity:0.22" fill="#000000" d="M 195.5,416.5 C 195.5,417.833 196.167,418.5 197.5,418.5C 196.791,419.404 195.791,419.737 194.5,419.5C 194.263,418.209 194.596,417.209 195.5,416.5 Z"/></g>
<g><path style="opacity:0.477" fill="#000000" d="M 492.5,470.5 C 494.404,470.738 495.738,471.738 496.5,473.5C 494.596,473.262 493.262,472.262 492.5,470.5 Z"/></g>
</svg>
