<?xml version="1.0" encoding="UTF-8"?>
<!DOCTYPE svg PUBLIC "-//W3C//DTD SVG 1.1//EN" "http://www.w3.org/Graphics/SVG/1.1/DTD/svg11.dtd">
<svg xmlns="http://www.w3.org/2000/svg" version="1.1" width="200px" height="200px" style="shape-rendering:geometricPrecision; text-rendering:geometricPrecision; image-rendering:optimizeQuality; fill-rule:evenodd; clip-rule:evenodd" xmlns:xlink="http://www.w3.org/1999/xlink">
<g><path style="opacity:0.004" fill="#92bd81" d="M 87.5,15.5 C 95.3225,14.3439 103.323,14.1772 111.5,15C 103.507,15.4997 95.5069,15.6664 87.5,15.5 Z"/></g>
<g><path style="opacity:0.008" fill="#d5800a" d="M 87.5,15.5 C 87.5,15.8333 87.5,16.1667 87.5,16.5C 84.1337,16.7878 80.8004,16.9545 77.5,17C 80.7256,15.8011 84.059,15.3011 87.5,15.5 Z"/></g>
<g><path style="opacity:0.012" fill="#20a5b3" d="M 117.5,17.5 C 116.048,16.6981 114.382,16.1981 112.5,16C 115.899,15.454 119.232,15.7873 122.5,17C 120.866,17.4935 119.199,17.6602 117.5,17.5 Z"/></g>
<g><path style="opacity:0.008" fill="#ff78fe" d="M 70.5,19.5 C 71.2506,18.4265 72.2506,18.2599 73.5,19C 72.552,19.4828 71.552,19.6495 70.5,19.5 Z"/></g>
<g><path style="opacity:0.012" fill="#dea000" d="M 67.5,20.5 C 68.209,19.596 69.209,19.2627 70.5,19.5C 69.791,20.404 68.791,20.7373 67.5,20.5 Z"/></g>
<g><path style="opacity:0.016" fill="#ff8e00" d="M 65.5,21.5 C 65.8417,20.6618 66.5084,20.3284 67.5,20.5C 67.1583,21.3382 66.4916,21.6716 65.5,21.5 Z"/></g>
<g><path style="opacity:0.012" fill="#40a48a" d="M 128.5,20.5 C 130.435,19.291 132.435,19.4577 134.5,21C 133.552,21.4828 132.552,21.6495 131.5,21.5C 130.791,20.596 129.791,20.2627 128.5,20.5 Z"/></g>
<g><path style="opacity:0.012" fill="#feaa00" d="M 65.5,21.5 C 65.5,21.8333 65.5,22.1667 65.5,22.5C 62.8333,22.1667 62.8333,21.8333 65.5,21.5 Z"/></g>
<g><path style="opacity:0.012" fill="#ffc6ff" d="M 60.5,23.5 C 60.8966,22.475 61.5632,22.3083 62.5,23C 61.9056,23.4643 61.2389,23.631 60.5,23.5 Z"/></g>
<g><path style="opacity:0.012" fill="#24dea8" d="M 136.5,23.5 C 138.666,22.3711 140.666,22.8711 142.5,25C 141.906,25.4643 141.239,25.631 140.5,25.5C 140.158,24.6618 139.492,24.3284 138.5,24.5C 138.158,23.6618 137.492,23.3284 136.5,23.5 Z"/></g>
<g><path style="opacity:0.004" fill="#f57dfa" d="M 58.5,25.5 C 57.8333,25.5 57.5,25.8333 57.5,26.5C 55.0248,26.2533 55.0248,25.5866 57.5,24.5C 58.1067,24.6236 58.44,24.9569 58.5,25.5 Z"/></g>
<g><path style="opacity:1" fill="#20cfb8" d="M 99.5,16.5 C 105.523,16.502 111.523,16.8354 117.5,17.5C 120.937,18.9448 124.603,19.9448 128.5,20.5C 129.209,21.404 130.209,21.7373 131.5,21.5C 132.93,22.5375 134.597,23.2041 136.5,23.5C 136.842,24.3382 137.508,24.6716 138.5,24.5C 138.842,25.3382 139.508,25.6716 140.5,25.5C 143.549,27.8627 146.882,29.8627 150.5,31.5C 150.5,32.1667 150.833,32.5 151.5,32.5C 152.29,33.4013 153.29,34.0679 154.5,34.5C 154.5,35.1667 154.833,35.5 155.5,35.5C 159.167,38.5 162.5,41.8333 165.5,45.5C 165.5,46.1667 165.833,46.5 166.5,46.5C 166.5,47.1667 166.833,47.5 167.5,47.5C 167.427,49.0269 168.094,50.0269 169.5,50.5C 169.5,50.8333 169.5,51.1667 169.5,51.5C 168.127,51.6567 166.793,51.49 165.5,51C 164.48,47.2583 162.813,44.7583 160.5,43.5C 155.065,43.2609 149.732,43.2609 144.5,43.5C 142.212,42.3067 140.045,40.9734 138,39.5C 137.667,40.1667 137.333,40.8333 137,41.5C 136.023,40.2264 135.189,40.2264 134.5,41.5C 128.455,37.8557 122.121,37.5224 115.5,40.5C 110.266,39.0296 104.933,38.3629 99.5,38.5C 99.5,35.8333 99.5,33.1667 99.5,30.5C 101.924,30.8076 104.257,30.4742 106.5,29.5C 106.291,28.914 105.957,28.414 105.5,28C 103.527,27.5045 101.527,27.3379 99.5,27.5C 99.5,24.8333 99.5,22.1667 99.5,19.5C 99.5,18.5 99.5,17.5 99.5,16.5 Z"/></g>
<g><path style="opacity:1" fill="#edfaf8" d="M 126.5,25.5 C 131.421,26.9041 136.421,28.0707 141.5,29C 142.687,30.0195 143.687,31.1861 144.5,32.5C 133.167,33.8333 121.833,33.8333 110.5,32.5C 114.445,31.5091 118.445,31.1758 122.5,31.5C 122.657,28.6824 123.991,26.6824 126.5,25.5 Z"/></g>
<g><path style="opacity:1" fill="#f8a41b" d="M 87.5,16.5 C 90.5,16.5 93.5,16.5 96.5,16.5C 87.7116,19.1397 83.2116,25.1397 83,34.5C 81.549,36.4641 79.7157,37.7974 77.5,38.5C 72.6069,37.738 68.2736,38.738 64.5,41.5C 64.2239,34.2288 60.5572,30.2288 53.5,29.5C 54.8333,28.5 56.1667,27.5 57.5,26.5C 58.1667,26.5 58.5,26.1667 58.5,25.5C 61.1573,25.0652 63.4907,24.0652 65.5,22.5C 72.8793,20.2561 80.2127,18.2561 87.5,16.5 Z"/></g>
<g><path style="opacity:1" fill="#e2f1e2" d="M 99.5,27.5 C 101.527,27.3379 103.527,27.5045 105.5,28C 105.957,28.414 106.291,28.914 106.5,29.5C 104.257,30.4742 101.924,30.8076 99.5,30.5C 97.5,30.5 95.5,30.5 93.5,30.5C 93.5,29.5 93.5,28.5 93.5,27.5C 95.5,27.5 97.5,27.5 99.5,27.5 Z"/></g>
<g><path style="opacity:0.006" fill="#000000" d="M 19.5,30.5 C 18.8333,30.5 18.5,30.8333 18.5,31.5C 16.0248,31.2533 16.0248,30.5866 18.5,29.5C 19.1067,29.6236 19.44,29.9569 19.5,30.5 Z"/></g>
<g><path style="opacity:0.006" fill="#000000" d="M 29.5,30.5 C 30.779,29.2848 31.779,29.6182 32.5,31.5C 31.8333,31.5 31.1667,31.5 30.5,31.5C 30.5,30.8333 30.1667,30.5 29.5,30.5 Z"/></g>
<g><path style="opacity:0.004" fill="#d7761c" d="M 52.5,29.5 C 52.5,29.8333 52.5,30.1667 52.5,30.5C 51.5084,30.3284 50.8417,30.6618 50.5,31.5C 49.209,31.2627 48.209,31.596 47.5,32.5C 46.8333,32.5 46.5,32.8333 46.5,33.5C 45.8333,33.5 45.5,33.8333 45.5,34.5C 44.8333,34.5 44.5,34.8333 44.5,35.5C 43.8333,35.5 43.5,35.8333 43.5,36.5C 42.5,36.5 41.5,36.5 40.5,36.5C 43.6228,32.8877 47.4561,30.221 52,28.5C 52.3988,28.7284 52.5654,29.0618 52.5,29.5 Z"/></g>
<g><path style="opacity:0.004" fill="#93e2ac" d="M 150.5,31.5 C 151.497,30.2875 152.497,30.4542 153.5,32C 152.906,32.4643 152.239,32.631 151.5,32.5C 150.833,32.5 150.5,32.1667 150.5,31.5 Z"/></g>
<g><path style="opacity:0.012" fill="#242424" d="M 32.5,31.5 C 38.9857,32.7755 38.9857,33.4422 32.5,33.5C 32.5,32.8333 32.5,32.1667 32.5,31.5 Z"/></g>
<g><path style="opacity:1" fill="#f9f4e7" d="M 96.5,16.5 C 97.5,16.5 98.5,16.5 99.5,16.5C 99.5,17.5 99.5,18.5 99.5,19.5C 90.35,20.8563 86.85,26.1896 89,35.5C 87.2703,37.4019 85.437,39.0686 83.5,40.5C 81.2143,40.405 79.2143,39.7384 77.5,38.5C 79.7157,37.7974 81.549,36.4641 83,34.5C 83.2116,25.1397 87.7116,19.1397 96.5,16.5 Z"/></g>
<g><path style="opacity:1" fill="#f2a01c" d="M 99.5,19.5 C 99.5,22.1667 99.5,24.8333 99.5,27.5C 97.5,27.5 95.5,27.5 93.5,27.5C 93.5,28.5 93.5,29.5 93.5,30.5C 95.5,30.5 97.5,30.5 99.5,30.5C 99.5,33.1667 99.5,35.8333 99.5,38.5C 94.0297,38.2465 88.6964,38.9132 83.5,40.5C 85.437,39.0686 87.2703,37.4019 89,35.5C 86.85,26.1896 90.35,20.8563 99.5,19.5 Z"/></g>
<g><path style="opacity:0.008" fill="#000000" d="M 13.5,34.5 C 14.7125,35.4971 14.5458,36.4971 13,37.5C 12.5304,36.4232 12.6971,35.4232 13.5,34.5 Z"/></g>
<g><path style="opacity:0.012" fill="#6eb3b2" d="M 154.5,34.5 C 155.497,33.2875 156.497,33.4542 157.5,35C 156.906,35.4643 156.239,35.631 155.5,35.5C 154.833,35.5 154.5,35.1667 154.5,34.5 Z"/></g>
<g><path style="opacity:0.939" fill="#2d2c38" d="M 29.5,30.5 C 30.1667,30.5 30.5,30.8333 30.5,31.5C 30.8333,32.5 31.5,33.1667 32.5,33.5C 35.1702,34.2479 37.8369,35.2479 40.5,36.5C 41.209,37.404 42.209,37.7373 43.5,37.5C 45.7401,40.2754 48.5734,42.2754 52,43.5C 52.7401,44.7494 52.5735,45.7494 51.5,46.5C 51.5858,45.5041 51.2524,44.6708 50.5,44C 48.3367,43.7547 46.67,42.7547 45.5,41C 40.6164,39.743 35.9498,38.0764 31.5,36C 27.7513,30.9332 23.7513,30.4332 19.5,34.5C 19.5,35.1667 19.5,35.8333 19.5,36.5C 18.8333,36.5 18.5,36.8333 18.5,37.5C 14.1659,39.7157 13.1659,40.0491 15.5,38.5C 15.1496,35.5466 16.1496,33.2133 18.5,31.5C 19.1667,31.5 19.5,31.1667 19.5,30.5C 22.8333,29.1667 26.1667,29.1667 29.5,30.5 Z M 21.5,35.5 C 23.0269,35.427 24.0269,36.0937 24.5,37.5C 22.901,37.7678 21.5676,37.4345 20.5,36.5C 21.1667,36.5 21.5,36.1667 21.5,35.5 Z M 27.5,34.5 C 28.404,35.209 28.7373,36.209 28.5,37.5C 27.5,37.5 26.5,37.5 25.5,37.5C 26.5511,36.7777 27.2178,35.7777 27.5,34.5 Z M 19.5,34.5 C 20.1667,34.5 20.8333,34.5 21.5,34.5C 21.5,34.8333 21.5,35.1667 21.5,35.5C 20.8333,35.5 20.5,35.8333 20.5,36.5C 20.1667,36.5 19.8333,36.5 19.5,36.5C 19.5,35.8333 19.5,35.1667 19.5,34.5 Z M 21.5,34.5 C 23.5,33.1667 25.5,33.1667 27.5,34.5C 25.6119,35.2751 23.6119,35.2751 21.5,34.5 Z"/></g>
<g><path style="opacity:0.004" fill="#e6e4d7" d="M 21.5,35.5 C 21.5,35.1667 21.5,34.8333 21.5,34.5C 23.6119,35.2751 25.6119,35.2751 27.5,34.5C 27.2178,35.7777 26.5511,36.7777 25.5,37.5C 25.1667,37.5 24.8333,37.5 24.5,37.5C 24.0269,36.0937 23.0269,35.427 21.5,35.5 Z"/></g>
<g><path style="opacity:1" fill="#d89e2e" d="M 148.5,35.5 C 149.995,35.4148 150.995,36.0815 151.5,37.5C 150.167,38.8333 148.833,38.8333 147.5,37.5C 147.863,36.8165 148.196,36.1499 148.5,35.5 Z"/></g>
<g><path style="opacity:0.012" fill="#a0cde8" d="M 19.5,36.5 C 19.8333,36.5 20.1667,36.5 20.5,36.5C 21.5676,37.4345 22.901,37.7678 24.5,37.5C 22.5,38.8333 20.5,38.8333 18.5,37.5C 19.1667,37.5 19.5,37.1667 19.5,36.5 Z"/></g>
<g><path style="opacity:1" fill="#f7a62a" d="M 47.5,32.5 C 48.5,32.5 49.5,32.5 50.5,32.5C 58.1474,32.3133 61.3141,35.98 60,43.5C 56.2651,51.2262 50.0984,54.7262 41.5,54C 40.944,54.3826 40.6107,54.8826 40.5,55.5C 36.0765,52.0172 31.4098,51.6838 26.5,54.5C 26.5106,52.9826 27.1772,51.8159 28.5,51C 28.1667,50.6667 27.8333,50.3333 27.5,50C 24.1667,49.6667 20.8333,49.3333 17.5,49C 22.3514,48.8255 27.0181,48.3255 31.5,47.5C 38.0779,46.5399 44.7446,46.2066 51.5,46.5C 52.5735,45.7494 52.7401,44.7494 52,43.5C 48.5734,42.2754 45.7401,40.2754 43.5,37.5C 43.5,37.1667 43.5,36.8333 43.5,36.5C 44.1667,36.5 44.5,36.1667 44.5,35.5C 45.1667,35.5 45.5,35.1667 45.5,34.5C 46.1667,34.5 46.5,34.1667 46.5,33.5C 47.1667,33.5 47.5,33.1667 47.5,32.5 Z"/></g>
<g><path style="opacity:0.016" fill="#6c9191" d="M 9.5,40.5 C 10.6225,42.2884 10.7891,44.2884 10,46.5C 9.50454,44.5273 9.33788,42.5273 9.5,40.5 Z"/></g>
<g><path style="opacity:1" fill="#d3d9df" d="M 109.5,40.5 C 104.167,41.1667 98.8333,41.8333 93.5,42.5C 81.2869,44.0508 71.9536,50.0508 65.5,60.5C 64.1084,63.0067 63.1084,65.6733 62.5,68.5C 61.6618,68.1583 61.3284,67.4916 61.5,66.5C 66.9013,52.6061 76.9013,43.7727 91.5,40C 97.5508,39.254 103.551,39.4207 109.5,40.5 Z"/></g>
<g><path style="opacity:0.982" fill="#c2d7f1" d="M 51.5,46.5 C 44.7446,46.2066 38.0779,46.5399 31.5,47.5C 26.6367,47.8195 21.97,47.4861 17.5,46.5C 20.5719,46.8174 23.5719,46.4841 26.5,45.5C 21.544,44.5059 16.544,44.1725 11.5,44.5C 11.5,43.1667 11.5,41.8333 11.5,40.5C 15.0274,40.4963 18.5274,40.1629 22,39.5C 23.6811,39.3917 24.8478,38.7251 25.5,37.5C 26.5,37.5 27.5,37.5 28.5,37.5C 28.7373,36.209 28.404,35.209 27.5,34.5C 25.5,33.1667 23.5,33.1667 21.5,34.5C 20.8333,34.5 20.1667,34.5 19.5,34.5C 23.7513,30.4332 27.7513,30.9332 31.5,36C 35.9498,38.0764 40.6164,39.743 45.5,41C 46.67,42.7547 48.3367,43.7547 50.5,44C 51.2524,44.6708 51.5858,45.5041 51.5,46.5 Z"/></g>
<g><path style="opacity:0.872" fill="#34343e" d="M 11.5,44.5 C 16.544,44.1725 21.544,44.5059 26.5,45.5C 23.5719,46.4841 20.5719,46.8174 17.5,46.5C 14.9179,46.9746 12.9179,46.3079 11.5,44.5 Z"/></g>
<g><path style="opacity:0.012" fill="#80d99d" d="M 167.5,47.5 C 166.833,47.5 166.5,47.1667 166.5,46.5C 165.833,46.5 165.5,46.1667 165.5,45.5C 166.286,43.4076 167.286,43.7409 168.5,46.5C 168.376,47.1067 168.043,47.44 167.5,47.5 Z"/></g>
<g><path style="opacity:1" fill="#7f909c" d="M 93.5,42.5 C 98.5111,42.3341 103.511,42.5007 108.5,43C 89.9317,41.8341 75.765,49.0008 66,64.5C 66.3308,62.9813 66.1641,61.648 65.5,60.5C 71.9536,50.0508 81.2869,44.0508 93.5,42.5 Z"/></g>
<g><path style="opacity:1" fill="#3a5678" d="M 130.5,40.5 C 126.097,40.9871 121.764,42.1538 117.5,44C 121.876,48.2507 123.876,53.4174 123.5,59.5C 116.299,55.2126 108.465,53.2126 100,53.5C 96.5911,53.257 94.7578,53.5903 94.5,54.5C 82.6066,55.0783 74.2733,60.745 69.5,71.5C 68.8423,72.3984 68.1757,73.3984 67.5,74.5C 66.5723,72.6652 65.4056,72.3318 64,73.5C 63.8019,71.6183 63.3019,69.9516 62.5,68.5C 63.1084,65.6733 64.1084,63.0067 65.5,60.5C 66.1641,61.648 66.3308,62.9813 66,64.5C 75.765,49.0008 89.9317,41.8341 108.5,43C 103.511,42.5007 98.5111,42.3341 93.5,42.5C 98.8333,41.8333 104.167,41.1667 109.5,40.5C 111.366,41.0138 113.2,41.6805 115,42.5C 119.996,39.8088 125.163,39.1421 130.5,40.5 Z"/></g>
<g><path style="opacity:1" fill="#32ccb7" d="M 169.5,51.5 C 167.42,54.6421 165.086,57.6421 162.5,60.5C 160.597,60.7959 158.93,61.4625 157.5,62.5C 149.392,63.9382 144.059,68.6049 141.5,76.5C 140.295,69.4602 138.295,62.4602 135.5,55.5C 135.717,50.7697 135.383,46.1031 134.5,41.5C 135.189,40.2264 136.023,40.2264 137,41.5C 137.333,40.8333 137.667,40.1667 138,39.5C 140.045,40.9734 142.212,42.3067 144.5,43.5C 149.732,43.2609 155.065,43.2609 160.5,43.5C 162.813,44.7583 164.48,47.2583 165.5,51C 166.793,51.49 168.127,51.6567 169.5,51.5 Z"/></g>
<g><path style="opacity:1" fill="#321826" d="M 142.5,44.5 C 149.628,44.7063 151.294,47.873 147.5,54C 143.202,55.352 140.536,53.852 139.5,49.5C 140.26,47.6396 141.26,45.973 142.5,44.5 Z"/></g>
<g><path style="opacity:1" fill="#f2a032" d="M 143.5,45.5 C 148.041,45.8152 149.041,47.6485 146.5,51C 144.866,51.4935 143.199,51.6602 141.5,51.5C 141.253,49.1417 141.919,47.1417 143.5,45.5 Z"/></g>
<g><path style="opacity:1" fill="#18192c" d="M 77.5,38.5 C 79.2143,39.7384 81.2143,40.405 83.5,40.5C 88.6964,38.9132 94.0297,38.2465 99.5,38.5C 104.933,38.3629 110.266,39.0296 115.5,40.5C 122.121,37.5224 128.455,37.8557 134.5,41.5C 135.383,46.1031 135.717,50.7697 135.5,55.5C 134.566,54.4324 134.232,53.099 134.5,51.5C 135.343,46.9057 134.009,43.2391 130.5,40.5C 125.163,39.1421 119.996,39.8088 115,42.5C 113.2,41.6805 111.366,41.0138 109.5,40.5C 103.551,39.4207 97.5508,39.254 91.5,40C 76.9013,43.7727 66.9013,52.6061 61.5,66.5C 61.1667,66.5 60.8333,66.5 60.5,66.5C 60.4598,63.5755 61.2932,60.9088 63,58.5C 63.499,54.1794 63.6657,49.8461 63.5,45.5C 63.8333,44.1667 64.1667,42.8333 64.5,41.5C 68.2736,38.738 72.6069,37.738 77.5,38.5 Z"/></g>
<g><path style="opacity:1" fill="#bec4cd" d="M 69.5,39.5 C 73.747,39.1778 77.747,40.0111 81.5,42C 77.5,42 73.5,42 69.5,42C 68,42.8333 66.8333,44 66,45.5C 65.6506,42.6695 66.8173,40.6695 69.5,39.5 Z"/></g>
<g><path style="opacity:0.004" fill="#152a2a" d="M 181.5,51.5 C 177.833,51.5 174.167,51.5 170.5,51.5C 170.5,50.8333 170.167,50.5 169.5,50.5C 169.511,47.9991 170.178,47.8324 171.5,50C 175.025,50.1787 178.359,50.6787 181.5,51.5 Z"/></g>
<g><path style="opacity:0.004" fill="#000000" d="M 183.5,51.5 C 183.897,50.475 184.563,50.3083 185.5,51C 184.906,51.4643 184.239,51.631 183.5,51.5 Z"/></g>
<g><path style="opacity:1" fill="#fbf5e4" d="M 52.5,29.5 C 52.8333,29.5 53.1667,29.5 53.5,29.5C 60.5572,30.2288 64.2239,34.2288 64.5,41.5C 64.1667,42.8333 63.8333,44.1667 63.5,45.5C 60.694,49.1373 57.3607,52.3039 53.5,55C 49.4155,55.2332 45.4155,55.7332 41.5,56.5C 41.1667,56.5 40.8333,56.5 40.5,56.5C 40.5,56.1667 40.5,55.8333 40.5,55.5C 40.6107,54.8826 40.944,54.3826 41.5,54C 50.0984,54.7262 56.2651,51.2262 60,43.5C 61.3141,35.98 58.1474,32.3133 50.5,32.5C 50.5,32.1667 50.5,31.8333 50.5,31.5C 51.4916,31.6716 52.1583,31.3382 52.5,30.5C 52.5,30.1667 52.5,29.8333 52.5,29.5 Z"/></g>
<g><path style="opacity:0.008" fill="#140754" d="M 187.5,52.5 C 188.525,52.8966 188.692,53.5632 188,54.5C 187.536,53.9056 187.369,53.2389 187.5,52.5 Z"/></g>
<g><path style="opacity:0.835" fill="#dd5430" d="M 40.5,55.5 C 40.5,55.8333 40.5,56.1667 40.5,56.5C 40.1667,56.5 39.8333,56.5 39.5,56.5C 30.2653,52.3974 25.2653,55.3974 24.5,65.5C 22.8958,64.713 22.2291,63.3797 22.5,61.5C 22.5548,58.3855 23.8881,56.0522 26.5,54.5C 31.4098,51.6838 36.0765,52.0172 40.5,55.5 Z"/></g>
<g><path style="opacity:1" fill="#1c2d70" d="M 130.5,40.5 C 134.009,43.2391 135.343,46.9057 134.5,51.5C 132.226,43.5558 127.226,41.3891 119.5,45C 124.054,48.887 127.887,53.387 131,58.5C 131.824,61.8823 131.657,65.2156 130.5,68.5C 128.525,65.1951 126.191,62.1951 123.5,59.5C 123.876,53.4174 121.876,48.2507 117.5,44C 121.764,42.1538 126.097,40.9871 130.5,40.5 Z"/></g>
<g><path style="opacity:1" fill="#e2dcd1" d="M 94.5,54.5 C 100.43,54.1282 106.097,54.7949 111.5,56.5C 103.389,56.0648 95.3888,56.5648 87.5,58C 82,60.8333 77.8333,65 75,70.5C 74.8227,74.3563 74.3227,78.023 73.5,81.5C 72.4182,69.583 71.4182,69.583 70.5,81.5C 69.5206,78.3752 69.1872,75.0419 69.5,71.5C 74.2733,60.745 82.6066,55.0783 94.5,54.5 Z"/></g>
<g><path style="opacity:1" fill="#f7d59d" d="M 111.5,56.5 C 112.791,56.2627 113.791,56.596 114.5,57.5C 113.761,57.369 113.094,57.5357 112.5,58C 122.069,62.0566 126.403,69.2233 125.5,79.5C 123.562,87.9331 118.228,92.7665 109.5,94C 102.5,94.6667 95.5,94.6667 88.5,94C 81.1851,92.5114 76.1851,88.3448 73.5,81.5C 74.3227,78.023 74.8227,74.3563 75,70.5C 77.8333,65 82,60.8333 87.5,58C 95.3888,56.5648 103.389,56.0648 111.5,56.5 Z"/></g>
<g><path style="opacity:0.008" fill="#000000" d="M 186.5,58.5 C 187.833,59.5 187.833,60.5 186.5,61.5C 186.5,60.5 186.5,59.5 186.5,58.5 Z"/></g>
<g><path style="opacity:0.016" fill="#33160e" d="M 21.5,61.5 C 19.1432,61.6633 16.8098,61.4966 14.5,61C 17.047,60.9326 19.2137,60.0993 21,58.5C 21.4828,59.448 21.6495,60.448 21.5,61.5 Z"/></g>
<g><path style="opacity:1" fill="#858a9d" d="M 39.5,56.5 C 39.8333,56.5 40.1667,56.5 40.5,56.5C 40.8333,56.5 41.1667,56.5 41.5,56.5C 42.3007,58.0418 42.634,59.7085 42.5,61.5C 43.9778,61.238 45.3112,61.5713 46.5,62.5C 43.8929,63.3184 41.2263,63.8184 38.5,64C 36.2425,66.9947 33.9092,67.1613 31.5,64.5C 33.2802,60.1049 36.2802,58.7716 40.5,60.5C 40.5674,59.0413 40.2341,57.7079 39.5,56.5 Z"/></g>
<g><path style="opacity:0.012" fill="#000000" d="M 185.5,61.5 C 185.833,61.5 186.167,61.5 186.5,61.5C 186.315,62.1701 185.981,62.1701 185.5,61.5 Z"/></g>
<g><path style="opacity:1" fill="#f5a017" d="M 63.5,45.5 C 63.6657,49.8461 63.499,54.1794 63,58.5C 61.2932,60.9088 60.4598,63.5755 60.5,66.5C 59.6753,70.6472 59.1753,74.9805 59,79.5C 56.7724,77.8866 54.2724,77.22 51.5,77.5C 48.5962,76.7148 45.9296,75.3815 43.5,73.5C 47.8094,73.756 51.8094,72.756 55.5,70.5C 47.606,68.6287 39.606,67.6287 31.5,67.5C 31.5,66.5 31.5,65.5 31.5,64.5C 33.9092,67.1613 36.2425,66.9947 38.5,64C 41.2263,63.8184 43.8929,63.3184 46.5,62.5C 45.3112,61.5713 43.9778,61.238 42.5,61.5C 42.634,59.7085 42.3007,58.0418 41.5,56.5C 45.4155,55.7332 49.4155,55.2332 53.5,55C 57.3607,52.3039 60.694,49.1373 63.5,45.5 Z"/></g>
<g><path style="opacity:0.994" fill="#eda022" d="M 175.5,65.5 C 174.365,63.7868 172.698,63.1201 170.5,63.5C 171.306,62.2719 172.306,61.2719 173.5,60.5C 174.492,60.6716 175.158,60.3382 175.5,59.5C 176.167,59.5 176.5,59.1667 176.5,58.5C 177.167,58.5 177.5,58.1667 177.5,57.5C 178.5,57.1667 179.167,56.5 179.5,55.5C 180.568,54.5655 181.901,54.2322 183.5,54.5C 183.948,60.391 181.281,64.0576 175.5,65.5 Z"/></g>
<g><path style="opacity:0.996" fill="#d0d2c5" d="M 162.5,60.5 C 163.5,60.5 164.5,60.5 165.5,60.5C 164.41,61.8571 163.076,62.8571 161.5,63.5C 157.646,64.2911 153.979,65.7911 150.5,68C 146.303,73.6867 141.97,79.1867 137.5,84.5C 138.429,81.5881 139.762,78.9214 141.5,76.5C 145.3,70.0302 150.633,65.3635 157.5,62.5C 158.93,61.4625 160.597,60.7959 162.5,60.5 Z"/></g>
<g><path style="opacity:0.006" fill="#000000" d="M 10.5,66.5 C 9.66175,66.8417 9.32842,67.5084 9.5,68.5C 8.2035,67.1512 8.37017,65.8179 10,64.5C 10.4643,65.0944 10.631,65.7611 10.5,66.5 Z"/></g>
<g><path style="opacity:1" fill="#f19848" d="M 114.5,57.5 C 122.167,59.1667 126.833,63.8333 128.5,71.5C 128.66,73.1992 128.494,74.8659 128,76.5C 127.667,76.1667 127.333,75.8333 127,75.5C 126.79,77.0581 126.29,78.3915 125.5,79.5C 126.403,69.2233 122.069,62.0566 112.5,58C 113.094,57.5357 113.761,57.369 114.5,57.5 Z"/></g>
<g><path style="opacity:1" fill="#0b0a17" d="M 157.5,62.5 C 150.633,65.3635 145.3,70.0302 141.5,76.5C 144.059,68.6049 149.392,63.9382 157.5,62.5 Z"/></g>
<g><path style="opacity:1" fill="#ebecec" d="M 39.5,56.5 C 40.2341,57.7079 40.5674,59.0413 40.5,60.5C 36.2802,58.7716 33.2802,60.1049 31.5,64.5C 31.5,65.5 31.5,66.5 31.5,67.5C 39.606,67.6287 47.606,68.6287 55.5,70.5C 51.8094,72.756 47.8094,73.756 43.5,73.5C 39.5662,72.6403 35.5662,72.307 31.5,72.5C 28.1667,72.5 24.8333,72.5 21.5,72.5C 21.5,71.5 21.5,70.5 21.5,69.5C 20.5,69.5 19.5,69.5 18.5,69.5C 18.5,70.5 18.5,71.5 18.5,72.5C 14.5149,72.5601 12.8482,70.5601 13.5,66.5C 18.7206,63.0142 22.0539,64.3475 23.5,70.5C 24.675,70.719 25.675,70.3857 26.5,69.5C 25.3698,68.3777 24.7031,67.0443 24.5,65.5C 25.2653,55.3974 30.2653,52.3974 39.5,56.5 Z"/></g>
<g><path style="opacity:1" fill="#0a0d33" d="M 134.5,51.5 C 134.232,53.099 134.566,54.4324 135.5,55.5C 138.295,62.4602 140.295,69.4602 141.5,76.5C 139.762,78.9214 138.429,81.5881 137.5,84.5C 136.752,86.3325 135.752,87.9991 134.5,89.5C 131.766,93.3745 128.1,96.0412 123.5,97.5C 122.909,96.8485 122.243,96.1818 121.5,95.5C 123.422,94.289 125.255,92.9557 127,91.5C 127.47,90.4232 127.303,89.4232 126.5,88.5C 129.453,82.9897 130.12,77.3231 128.5,71.5C 126.833,63.8333 122.167,59.1667 114.5,57.5C 113.791,56.596 112.791,56.2627 111.5,56.5C 106.097,54.7949 100.43,54.1282 94.5,54.5C 94.7578,53.5903 96.5911,53.257 100,53.5C 108.465,53.2126 116.299,55.2126 123.5,59.5C 126.191,62.1951 128.525,65.1951 130.5,68.5C 131.657,65.2156 131.824,61.8823 131,58.5C 127.887,53.387 124.054,48.887 119.5,45C 127.226,41.3891 132.226,43.5558 134.5,51.5 Z"/></g>
<g><path style="opacity:1" fill="#1e1b34" d="M 110.5,64.5 C 113.547,63.8554 115.713,64.8554 117,67.5C 117.956,71.572 117.456,75.4054 115.5,79C 113.559,79.7429 111.726,79.5762 110,78.5C 107.895,73.6799 108.062,69.0133 110.5,64.5 Z"/></g>
<g><path style="opacity:1" fill="#15132d" d="M 84.5,65.5 C 85.8845,64.1991 87.3845,64.1991 89,65.5C 91,69.8333 91,74.1667 89,78.5C 86.1192,80.0283 83.7859,79.3616 82,76.5C 81.0969,72.9668 81.4303,69.6335 83,66.5C 83.7096,67.9733 84.8762,68.6399 86.5,68.5C 86.7148,66.8212 86.0481,65.8212 84.5,65.5 Z"/></g>
<g><path style="opacity:1" fill="#4b555e" d="M 169.5,51.5 C 169.833,51.5 170.167,51.5 170.5,51.5C 174.167,52.8333 177.833,52.8333 181.5,51.5C 182.167,51.5 182.833,51.5 183.5,51.5C 184.209,52.404 185.209,52.7373 186.5,52.5C 186.5,54.5 186.5,56.5 186.5,58.5C 185.596,59.209 185.263,60.209 185.5,61.5C 183.704,62.7927 182.037,64.2927 180.5,66C 181.167,66.3333 181.833,66.6667 182.5,67C 181.751,68.7337 181.251,70.567 181,72.5C 180.667,71.1667 180.333,69.8333 180,68.5C 178.512,71.1942 178.679,73.5275 180.5,75.5C 181.396,74.4937 182.062,74.4937 182.5,75.5C 178.123,76.2223 173.79,76.8889 169.5,77.5C 169.158,76.6618 168.492,76.3284 167.5,76.5C 168.263,75.7321 169.263,75.2321 170.5,75C 165.274,75.0559 160.274,76.2226 155.5,78.5C 155.369,77.6236 155.702,76.9569 156.5,76.5C 162.796,73.2898 169.462,71.9564 176.5,72.5C 176.5,71.5 176.5,70.5 176.5,69.5C 176.5,68.5 176.5,67.5 176.5,66.5C 173.119,66.4595 169.786,66.7929 166.5,67.5C 169.123,65.7345 172.123,65.0679 175.5,65.5C 181.281,64.0576 183.948,60.391 183.5,54.5C 181.901,54.2322 180.568,54.5655 179.5,55.5C 175.351,54.9197 171.684,55.5864 168.5,57.5C 167.728,58.6935 166.728,59.6935 165.5,60.5C 164.5,60.5 163.5,60.5 162.5,60.5C 165.086,57.6421 167.42,54.6421 169.5,51.5 Z M 179.5,55.5 C 179.167,56.5 178.5,57.1667 177.5,57.5C 174.833,56.1667 172.167,56.1667 169.5,57.5C 169.167,57.5 168.833,57.5 168.5,57.5C 171.684,55.5864 175.351,54.9197 179.5,55.5 Z"/></g>
<g><path style="opacity:0.012" fill="#ffa7fd" d="M 175.5,58.5 C 175.5,58.8333 175.5,59.1667 175.5,59.5C 174.508,59.3284 173.842,59.6618 173.5,60.5C 172.761,60.631 172.094,60.4643 171.5,60C 172.563,58.8118 173.897,58.3118 175.5,58.5 Z"/></g>
<g><path style="opacity:0.012" fill="#6a6a54" d="M 169.5,57.5 C 172.167,56.1667 174.833,56.1667 177.5,57.5C 176.833,57.5 176.5,57.8333 176.5,58.5C 176.167,58.5 175.833,58.5 175.5,58.5C 173.735,57.5386 171.735,57.2053 169.5,57.5 Z"/></g>
<g><path style="opacity:0.008" fill="#535353" d="M 9.5,72.5 C 9.63101,73.2389 9.46434,73.9056 9,74.5C 8.30831,73.5632 8.47498,72.8966 9.5,72.5 Z"/></g>
<g><path style="opacity:1" fill="#99afe5" d="M 13.5,66.5 C 12.8482,70.5601 14.5149,72.5601 18.5,72.5C 18.5,71.5 18.5,70.5 18.5,69.5C 19.5,69.5 20.5,69.5 21.5,69.5C 21.5,70.5 21.5,71.5 21.5,72.5C 24.8333,72.5 28.1667,72.5 31.5,72.5C 31.0472,73.4584 30.3805,74.2917 29.5,75C 24.8333,75.6667 20.1667,75.6667 15.5,75C 14.5838,74.6258 13.7504,74.1258 13,73.5C 12.2042,70.9615 12.3709,68.6282 13.5,66.5 Z"/></g>
<g><path style="opacity:1" fill="#0c9869" d="M 176.5,69.5 C 176.5,70.5 176.5,71.5 176.5,72.5C 169.462,71.9564 162.796,73.2898 156.5,76.5C 155.702,76.9569 155.369,77.6236 155.5,78.5C 151.01,84.8041 146.51,91.1375 142,97.5C 140.729,98.8825 139.229,99.8825 137.5,100.5C 143.341,92.4861 149.007,84.3194 154.5,76C 160.977,71.1898 168.311,69.0232 176.5,69.5 Z"/></g>
<g><path style="opacity:1" fill="#dee5ea" d="M 51.5,77.5 C 56.9861,78.9809 60.9861,82.3142 63.5,87.5C 61.5887,86.925 59.922,85.925 58.5,84.5C 57.5994,82.2729 55.9328,81.2729 53.5,81.5C 48.364,79.6923 43.1973,77.6923 38,75.5C 34.1637,75.8369 31.6637,77.8369 30.5,81.5C 29.0815,80.9953 28.4148,79.9953 28.5,78.5C 30.3104,75.1754 33.1437,73.5088 37,73.5C 41.7234,75.2812 46.5568,76.6146 51.5,77.5 Z"/></g>
<g><path style="opacity:0.998" fill="#2c2833" d="M 21.5,61.5 C 21.8333,61.5 22.1667,61.5 22.5,61.5C 22.2291,63.3797 22.8958,64.713 24.5,65.5C 24.7031,67.0443 25.3698,68.3777 26.5,69.5C 25.675,70.3857 24.675,70.719 23.5,70.5C 22.0539,64.3475 18.7206,63.0142 13.5,66.5C 12.3709,68.6282 12.2042,70.9615 13,73.5C 13.7504,74.1258 14.5838,74.6258 15.5,75C 20.1667,75.6667 24.8333,75.6667 29.5,75C 30.3805,74.2917 31.0472,73.4584 31.5,72.5C 35.5662,72.307 39.5662,72.6403 43.5,73.5C 45.9296,75.3815 48.5962,76.7148 51.5,77.5C 46.5568,76.6146 41.7234,75.2812 37,73.5C 33.1437,73.5088 30.3104,75.1754 28.5,78.5C 27.1667,80.5 27.1667,82.5 28.5,84.5C 28.6107,85.1174 28.944,85.6174 29.5,86C 32.3647,86.1829 35.0314,86.6829 37.5,87.5C 30.825,87.3337 24.1583,87.5004 17.5,88C 16.646,89.0217 15.646,89.8551 14.5,90.5C 12.736,88.7224 10.736,87.3891 8.5,86.5C 9.75355,83.9066 11.4202,81.5732 13.5,79.5C 14.1667,79.5 14.5,79.1667 14.5,78.5C 16.1667,78.5 17.8333,78.5 19.5,78.5C 17.2475,82.2435 18.2475,84.5769 22.5,85.5C 23.8583,86.6256 25.1916,86.6256 26.5,85.5C 25.1667,82.8333 25.1667,80.1667 26.5,77.5C 24.3635,76.2072 22.3635,76.2072 20.5,77.5C 18.5,77.5 16.5,77.5 14.5,77.5C 12.5,76.1667 10.8333,74.5 9.5,72.5C 9.5,71.1667 9.5,69.8333 9.5,68.5C 10.3382,68.1583 10.6716,67.4916 10.5,66.5C 13.5281,63.3175 17.1947,61.6508 21.5,61.5 Z"/></g>
<g><path style="opacity:1" fill="#f1c326" d="M 161.5,63.5 C 163.292,63.366 164.958,63.6993 166.5,64.5C 162.121,65.9015 157.788,67.7349 153.5,70C 150.285,73.7088 147.285,77.5421 144.5,81.5C 140.538,83.7946 137.205,86.7946 134.5,90.5C 134.5,90.1667 134.5,89.8333 134.5,89.5C 135.752,87.9991 136.752,86.3325 137.5,84.5C 141.97,79.1867 146.303,73.6867 150.5,68C 153.979,65.7911 157.646,64.2911 161.5,63.5 Z"/></g>
<g><path style="opacity:0.008" fill="#000000" d="M 14.5,77.5 C 14.5,77.8333 14.5,78.1667 14.5,78.5C 13.8333,78.5 13.5,78.8333 13.5,79.5C 12.2426,78.3774 12.5759,77.7107 14.5,77.5 Z"/></g>
<g><path style="opacity:0.994" fill="#f0a321" d="M 22.5,85.5 C 21.2264,83.0075 20.5597,80.3408 20.5,77.5C 22.3635,76.2072 24.3635,76.2072 26.5,77.5C 25.1667,80.1667 25.1667,82.8333 26.5,85.5C 25.1916,86.6256 23.8583,86.6256 22.5,85.5 Z"/></g>
<g><path style="opacity:1" fill="#b8ded3" d="M 166.5,67.5 C 161.616,68.9703 157.116,71.3037 153,74.5C 146.679,83.9498 140.512,92.9498 134.5,101.5C 131.479,102.967 128.479,104.633 125.5,106.5C 125.167,106.167 124.833,105.833 124.5,105.5C 128.787,103.103 132.62,100.103 136,96.5C 141.58,89.0079 146.913,81.3412 152,73.5C 155.973,69.4527 160.806,67.4527 166.5,67.5 Z"/></g>
<g><path style="opacity:1" fill="#3778a1" d="M 53.5,81.5 C 55.9328,81.2729 57.5994,82.2729 58.5,84.5C 57.8333,84.5 57.5,84.8333 57.5,85.5C 56.1805,84.0582 54.5138,83.3915 52.5,83.5C 48.6942,83.98 45.3609,82.98 42.5,80.5C 42.6667,80.1667 42.8333,79.8333 43,79.5C 46.2432,81.2625 49.7432,81.9292 53.5,81.5 Z"/></g>
<g><path style="opacity:0.816" fill="#37d1ba" d="M 167.5,76.5 C 168.492,76.3284 169.158,76.6618 169.5,77.5C 169.5,77.8333 169.5,78.1667 169.5,78.5C 168.5,79.1667 167.5,79.8333 166.5,80.5C 161.876,81.5937 157.543,83.2603 153.5,85.5C 156.141,79.5043 160.808,76.5043 167.5,76.5 Z"/></g>
<g><path style="opacity:1" fill="#26e062" d="M 176.5,69.5 C 168.311,69.0232 160.977,71.1898 154.5,76C 149.007,84.3194 143.341,92.4861 137.5,100.5C 136.609,101.11 135.609,101.443 134.5,101.5C 140.512,92.9498 146.679,83.9498 153,74.5C 157.116,71.3037 161.616,68.9703 166.5,67.5C 169.786,66.7929 173.119,66.4595 176.5,66.5C 176.5,67.5 176.5,68.5 176.5,69.5 Z"/></g>
<g><path style="opacity:1" fill="#24a1ce" d="M 61.5,100.5 C 60.5041,100.586 59.6708,100.252 59,99.5C 57.2223,94.8851 54.0556,91.8851 49.5,90.5C 46.5049,90.7062 43.8383,90.0395 41.5,88.5C 40.4324,87.5655 39.099,87.2322 37.5,87.5C 35.0314,86.6829 32.3647,86.1829 29.5,86C 28.944,85.6174 28.6107,85.1174 28.5,84.5C 32.1306,83.588 35.7973,83.4213 39.5,84C 43.7109,85.7095 48.0443,87.0428 52.5,88C 56.3522,91.5317 59.3522,95.6984 61.5,100.5 Z"/></g>
<g><path style="opacity:1" fill="#89e8ee" d="M 53.5,81.5 C 49.7432,81.9292 46.2432,81.2625 43,79.5C 42.8333,79.8333 42.6667,80.1667 42.5,80.5C 45.3609,82.98 48.6942,83.98 52.5,83.5C 54.7706,85.2659 56.9373,87.2659 59,89.5C 62.1667,96.6667 67.3333,101.833 74.5,105C 69.8274,104.673 65.494,103.173 61.5,100.5C 59.3522,95.6984 56.3522,91.5317 52.5,88C 48.0443,87.0428 43.7109,85.7095 39.5,84C 35.7973,83.4213 32.1306,83.588 28.5,84.5C 27.1667,82.5 27.1667,80.5 28.5,78.5C 28.4148,79.9953 29.0815,80.9953 30.5,81.5C 31.6637,77.8369 34.1637,75.8369 38,75.5C 43.1973,77.6923 48.364,79.6923 53.5,81.5 Z"/></g>
<g><path style="opacity:0.004" fill="#fefffe" d="M 190.5,88.5 C 190.369,87.7611 190.536,87.0944 191,86.5C 191.692,87.4368 191.525,88.1034 190.5,88.5 Z"/></g>
<g><path style="opacity:1" fill="#20212f" d="M 170.5,63.5 C 172.698,63.1201 174.365,63.7868 175.5,65.5C 172.123,65.0679 169.123,65.7345 166.5,67.5C 160.806,67.4527 155.973,69.4527 152,73.5C 146.913,81.3412 141.58,89.0079 136,96.5C 132.62,100.103 128.787,103.103 124.5,105.5C 124.833,105.833 125.167,106.167 125.5,106.5C 128.479,104.633 131.479,102.967 134.5,101.5C 135.609,101.443 136.609,101.11 137.5,100.5C 139.229,99.8825 140.729,98.8825 142,97.5C 146.51,91.1375 151.01,84.8041 155.5,78.5C 160.274,76.2226 165.274,75.0559 170.5,75C 169.263,75.2321 168.263,75.7321 167.5,76.5C 160.808,76.5043 156.141,79.5043 153.5,85.5C 152.833,85.5 152.5,85.8333 152.5,86.5C 142.81,97.8044 143.476,98.8044 154.5,89.5C 157.861,87.1528 161.528,85.3194 165.5,84C 166.381,83.2917 167.047,82.4584 167.5,81.5C 168.71,81.0679 169.71,80.4013 170.5,79.5C 180.631,74.7336 186.965,77.7336 189.5,88.5C 188.596,89.209 188.263,90.209 188.5,91.5C 187.662,91.8417 187.328,92.5084 187.5,93.5C 186.833,93.5 186.5,93.8333 186.5,94.5C 185.508,94.3284 184.842,94.6618 184.5,95.5C 183.508,95.3284 182.842,95.6618 182.5,96.5C 179.941,96.1984 177.607,96.5318 175.5,97.5C 174.508,97.3284 173.842,97.6618 173.5,98.5C 172.833,98.5 172.5,98.8333 172.5,99.5C 171.508,99.3284 170.842,99.6618 170.5,100.5C 169.833,100.5 169.5,100.833 169.5,101.5C 168.833,101.5 168.5,101.833 168.5,102.5C 167.833,102.5 167.5,102.833 167.5,103.5C 163.559,106.29 164.226,107.623 169.5,107.5C 174.151,108.109 178.818,109.109 183.5,110.5C 183.5,111.167 183.833,111.5 184.5,111.5C 184.328,112.492 184.662,113.158 185.5,113.5C 185.5,115.167 185.5,116.833 185.5,118.5C 184.662,118.842 184.328,119.508 184.5,120.5C 183.833,120.5 183.5,120.833 183.5,121.5C 183.167,121.5 182.833,121.5 182.5,121.5C 178.84,121.841 175.507,121.175 172.5,119.5C 175.518,119.665 178.518,119.498 181.5,119C 182.252,118.329 182.586,117.496 182.5,116.5C 182.167,115.5 181.5,114.833 180.5,114.5C 180.5,114.167 180.5,113.833 180.5,113.5C 181.774,112.811 181.774,111.977 180.5,111C 175.327,110.56 170.161,110.06 165,109.5C 163.293,109.508 161.793,109.842 160.5,110.5C 159.402,111.601 159.235,112.934 160,114.5C 162.378,115.967 164.878,116.967 167.5,117.5C 165.219,117.077 163.552,117.744 162.5,119.5C 156.909,113.049 152.243,105.882 148.5,98C 145.505,98.329 142.838,99.4957 140.5,101.5C 129.617,105.274 119.617,110.607 110.5,117.5C 109.494,117.062 109.494,116.396 110.5,115.5C 114.177,112.664 118.011,109.997 122,107.5C 122.018,105.203 121.851,102.869 121.5,100.5C 121.833,100.5 122.167,100.5 122.5,100.5C 122.962,101.88 123.962,102.547 125.5,102.5C 127.606,101.57 129.606,100.404 131.5,99C 136.051,93.2892 140.384,87.4559 144.5,81.5C 147.285,77.5421 150.285,73.7088 153.5,70C 157.788,67.7349 162.121,65.9015 166.5,64.5C 167.708,63.7659 169.041,63.4326 170.5,63.5 Z M 169.5,78.5 C 169.5,79.1667 169.833,79.5 170.5,79.5C 169.71,80.4013 168.71,81.0679 167.5,81.5C 166.833,81.5 166.5,81.1667 166.5,80.5C 167.5,79.8333 168.5,79.1667 169.5,78.5 Z M 180.5,114.5 C 181.5,114.833 182.167,115.5 182.5,116.5C 181.833,116.5 181.167,116.5 180.5,116.5C 180.5,115.833 180.5,115.167 180.5,114.5 Z"/></g>
<g><path style="opacity:0.998" fill="#e5ede1" d="M 166.5,80.5 C 166.5,81.1667 166.833,81.5 167.5,81.5C 167.047,82.4584 166.381,83.2917 165.5,84C 161.528,85.3194 157.861,87.1528 154.5,89.5C 153.833,88.5 153.167,87.5 152.5,86.5C 152.5,85.8333 152.833,85.5 153.5,85.5C 157.543,83.2603 161.876,81.5937 166.5,80.5 Z"/></g>
<g><path style="opacity:1" fill="#e4bebb" d="M 184.5,82.5 C 181.221,81.5078 177.888,81.3412 174.5,82C 166.594,86.2311 158.927,90.7311 151.5,95.5C 153.294,93.2034 155.294,91.0367 157.5,89C 163.61,86.779 169.277,83.779 174.5,80C 178.463,78.8634 181.796,79.6967 184.5,82.5 Z"/></g>
<g><path style="opacity:0.992" fill="#c7c8c5" d="M 8.5,86.5 C 10.736,87.3891 12.736,88.7224 14.5,90.5C 15.646,89.8551 16.646,89.0217 17.5,88C 24.1583,87.5004 30.825,87.3337 37.5,87.5C 39.099,87.2322 40.4324,87.5655 41.5,88.5C 38.4781,88.804 35.4781,89.304 32.5,90C 30.6763,90.66 29.343,91.8267 28.5,93.5C 26.0326,93.2451 24.0326,92.2451 22.5,90.5C 21.4798,89.2153 19.8131,89.2153 17.5,90.5C 16.5,91.1667 15.5,91.8333 14.5,92.5C 14.1667,91.1667 13.8333,91.1667 13.5,92.5C 12.8333,92.5 12.5,92.8333 12.5,93.5C 11.2264,92.8106 11.2264,91.9772 12.5,91C 10.9586,89.6288 9.62529,88.1288 8.5,86.5 Z"/></g>
<g><path style="opacity:0.007" fill="#161616" d="M 189.5,88.5 C 189.833,88.5 190.167,88.5 190.5,88.5C 190.88,90.698 190.213,92.3646 188.5,93.5C 188.5,92.8333 188.5,92.1667 188.5,91.5C 189.404,90.791 189.737,89.791 189.5,88.5 Z"/></g>
<g><path style="opacity:1" fill="#1cc9b1" d="M 152.5,86.5 C 153.167,87.5 153.833,88.5 154.5,89.5C 143.476,98.8044 142.81,97.8044 152.5,86.5 Z"/></g>
<g><path style="opacity:1" fill="#3462d4" d="M 41.5,88.5 C 43.8383,90.0395 46.5049,90.7062 49.5,90.5C 57.8303,98.0112 56.8303,99.1779 46.5,94C 40.5092,93.5005 34.5092,93.3338 28.5,93.5C 29.343,91.8267 30.6763,90.66 32.5,90C 35.4781,89.304 38.4781,88.804 41.5,88.5 Z"/></g>
<g><path style="opacity:0.004" fill="#000000" d="M 187.5,93.5 C 187.833,93.5 188.167,93.5 188.5,93.5C 188.315,94.1701 187.981,94.1701 187.5,93.5 Z"/></g>
<g><path style="opacity:0.008" fill="#000000" d="M 186.5,94.5 C 186.833,94.5 187.167,94.5 187.5,94.5C 187.315,95.1701 186.981,95.1701 186.5,94.5 Z"/></g>
<g><path style="opacity:1" fill="#d8574d" d="M 128.5,71.5 C 130.12,77.3231 129.453,82.9897 126.5,88.5C 123.157,92.6461 118.824,95.4794 113.5,97C 101.465,99.7217 89.7982,98.7217 78.5,94C 73.9139,90.942 71.2472,86.7753 70.5,81.5C 71.4182,69.583 72.4182,69.583 73.5,81.5C 76.1851,88.3448 81.1851,92.5114 88.5,94C 95.5,94.6667 102.5,94.6667 109.5,94C 118.228,92.7665 123.562,87.9331 125.5,79.5C 126.29,78.3915 126.79,77.0581 127,75.5C 127.333,75.8333 127.667,76.1667 128,76.5C 128.494,74.8659 128.66,73.1992 128.5,71.5 Z"/></g>
<g><path style="opacity:1" fill="#26132a" d="M 92.5,84.5 C 97.2451,85.4664 101.912,85.7997 106.5,85.5C 104.352,90.9119 100.685,92.4119 95.5,90C 93.84,88.5123 92.84,86.679 92.5,84.5 Z"/></g>
<g><path style="opacity:1" fill="#1b192d" d="M 96.5,78.5 C 98.604,78.2011 100.604,78.5344 102.5,79.5C 101.307,81.3837 99.6406,81.8837 97.5,81C 96.7476,80.3292 96.4142,79.4959 96.5,78.5 Z"/></g>
<g><path style="opacity:1" fill="#dfb8a7" d="M 134.5,89.5 C 134.5,89.8333 134.5,90.1667 134.5,90.5C 134.141,92.371 133.141,93.871 131.5,95C 128.436,96.8588 125.436,98.6921 122.5,100.5C 122.167,100.5 121.833,100.5 121.5,100.5C 121.782,99.2223 122.449,98.2223 123.5,97.5C 128.1,96.0412 131.766,93.3745 134.5,89.5 Z"/></g>
<g><path style="opacity:1" fill="#dc234e" d="M 184.5,82.5 C 187.339,86.1659 187.005,89.6659 183.5,93C 178.648,92.8071 174.315,94.1404 170.5,97C 165.312,100.688 160.978,105.188 157.5,110.5C 156.237,108.971 155.237,107.305 154.5,105.5C 159.476,99.4972 165.476,94.6638 172.5,91C 174.466,89.6534 174.799,88.1534 173.5,86.5C 168.651,89.8377 163.651,93.0044 158.5,96C 156.649,97.6837 154.982,99.5171 153.5,101.5C 151.639,100.472 150.305,98.9717 149.5,97C 150.044,96.2828 150.711,95.7828 151.5,95.5C 158.927,90.7311 166.594,86.2311 174.5,82C 177.888,81.3412 181.221,81.5078 184.5,82.5 Z"/></g>
<g><path style="opacity:1" fill="#191827" d="M 60.5,66.5 C 59.8289,82.1892 66.4956,93.1892 80.5,99.5C 78.1423,101.168 76.4757,103.501 75.5,106.5C 75.8333,106.833 76.1667,107.167 76.5,107.5C 77.5836,106.335 78.4169,105.002 79,103.5C 79.4955,105.473 79.6621,107.473 79.5,109.5C 79.5,109.833 79.5,110.167 79.5,110.5C 70.1884,106.178 60.855,101.845 51.5,97.5C 48.4045,102.701 45.0712,107.701 41.5,112.5C 41.8925,110.716 42.5592,109.05 43.5,107.5C 43.0844,105.248 41.751,103.748 39.5,103C 33.4199,102.626 27.4199,101.793 21.5,100.5C 19.668,99.8595 19.3347,98.8595 20.5,97.5C 26.5429,100.008 32.8762,101.174 39.5,101C 41.3049,101.972 42.9716,103.139 44.5,104.5C 46.6159,102.6 47.9493,100.267 48.5,97.5C 47.9423,96.2101 46.9423,95.3768 45.5,95C 36.7296,94.9627 28.0629,94.1294 19.5,92.5C 17.0582,92.2858 15.3915,93.2858 14.5,95.5C 11.7804,99.0869 12.1137,102.587 15.5,106C 18.6946,106.181 21.6946,106.681 24.5,107.5C 21.5,107.5 18.5,107.5 15.5,107.5C 13.629,107.141 12.129,106.141 11,104.5C 10.5026,101.854 10.3359,99.1873 10.5,96.5C 11.4013,95.7095 12.0679,94.7095 12.5,93.5C 13.1667,93.5 13.5,93.1667 13.5,92.5C 13.8333,92.5 14.1667,92.5 14.5,92.5C 15.5,91.8333 16.5,91.1667 17.5,90.5C 19.1667,90.5 20.8333,90.5 22.5,90.5C 24.0326,92.2451 26.0326,93.2451 28.5,93.5C 34.5092,93.3338 40.5092,93.5005 46.5,94C 56.8303,99.1779 57.8303,98.0112 49.5,90.5C 54.0556,91.8851 57.2223,94.8851 59,99.5C 59.6708,100.252 60.5041,100.586 61.5,100.5C 65.494,103.173 69.8274,104.673 74.5,105C 67.3333,101.833 62.1667,96.6667 59,89.5C 56.9373,87.2659 54.7706,85.2659 52.5,83.5C 54.5138,83.3915 56.1805,84.0582 57.5,85.5C 60.6131,89.5491 63.6131,93.7157 66.5,98C 68.7481,99.9137 71.2481,101.414 74,102.5C 75.301,102.361 76.1344,101.695 76.5,100.5C 77.7733,99.9232 77.7733,99.2565 76.5,98.5C 73.7802,97.1401 71.1136,95.8068 68.5,94.5C 66.5879,92.3428 64.9213,90.0094 63.5,87.5C 60.9861,82.3142 56.9861,78.9809 51.5,77.5C 54.2724,77.22 56.7724,77.8866 59,79.5C 59.1753,74.9805 59.6753,70.6472 60.5,66.5 Z"/></g>
<g><path style="opacity:1" fill="#bfb5ce" d="M 68.5,94.5 C 71.1136,95.8068 73.7802,97.1401 76.5,98.5C 77.7733,99.2565 77.7733,99.9232 76.5,100.5C 73.5106,98.9974 70.8439,96.9974 68.5,94.5 Z"/></g>
<g><path style="opacity:1" fill="#cfc9db" d="M 48.5,97.5 C 38.9343,97.0409 29.4343,96.0409 20,94.5C 18.1216,94.6962 16.2883,95.0295 14.5,95.5C 15.3915,93.2858 17.0582,92.2858 19.5,92.5C 28.0629,94.1294 36.7296,94.9627 45.5,95C 46.9423,95.3768 47.9423,96.2101 48.5,97.5 Z"/></g>
<g><path style="opacity:1" fill="#5a41c6" d="M 58.5,84.5 C 59.922,85.925 61.5887,86.925 63.5,87.5C 64.9213,90.0094 66.5879,92.3428 68.5,94.5C 70.8439,96.9974 73.5106,98.9974 76.5,100.5C 76.1344,101.695 75.301,102.361 74,102.5C 71.2481,101.414 68.7481,99.9137 66.5,98C 63.6131,93.7157 60.6131,89.5491 57.5,85.5C 57.5,84.8333 57.8333,84.5 58.5,84.5 Z"/></g>
<g><path style="opacity:0.012" fill="#1a1031" d="M 184.5,95.5 C 185.167,95.5 185.833,95.5 186.5,95.5C 185.713,97.1042 184.38,97.7709 182.5,97.5C 182.5,97.1667 182.5,96.8333 182.5,96.5C 183.492,96.6716 184.158,96.3382 184.5,95.5 Z"/></g>
<g><path style="opacity:0.01" fill="#1c1a1f" d="M 10.5,96.5 C 9.6829,98.9686 9.1829,101.635 9,104.5C 8.09692,100.967 8.43026,97.6335 10,94.5C 10.4643,95.0944 10.631,95.7611 10.5,96.5 Z"/></g>
<g><path style="opacity:0.012" fill="#5c6371" d="M 175.5,98.5 C 175.5,98.1667 175.5,97.8333 175.5,97.5C 177.833,97.5 180.167,97.5 182.5,97.5C 180.393,98.4682 178.059,98.8016 175.5,98.5 Z"/></g>
<g><path style="opacity:1" fill="#f7f5ee" d="M 79.5,110.5 C 80.3065,111.728 81.3065,112.728 82.5,113.5C 81.5028,113.47 80.8361,113.97 80.5,115C 81.6198,116.737 82.6198,118.571 83.5,120.5C 83.3764,121.107 83.0431,121.44 82.5,121.5C 72.9568,116.038 62.9568,112.372 52.5,110.5C 63.0371,113.676 73.0371,118.009 82.5,123.5C 82.7214,124.735 83.3881,125.735 84.5,126.5C 84.0431,127.298 83.3764,127.631 82.5,127.5C 72.3863,121.963 61.7196,118.13 50.5,116C 62.8776,119.73 74.5443,124.897 85.5,131.5C 85.4338,133.083 85.7672,134.75 86.5,136.5C 81.0454,133.271 75.3788,130.271 69.5,127.5C 69.1667,127.833 68.8333,128.167 68.5,128.5C 76.9654,131.987 84.2988,136.987 90.5,143.5C 90.6567,144.873 90.49,146.207 90,147.5C 84.708,142.881 78.8747,139.047 72.5,136C 60.1183,130.928 47.4516,126.762 34.5,123.5C 37.2546,120.083 39.588,116.417 41.5,112.5C 45.0712,107.701 48.4045,102.701 51.5,97.5C 60.855,101.845 70.1884,106.178 79.5,110.5 Z"/></g>
<g><path style="opacity:1" fill="#f9f7ef" d="M 162.5,119.5 C 162.833,120.167 163.167,120.833 163.5,121.5C 163.53,122.497 163.03,123.164 162,123.5C 151.379,126.596 140.879,130.096 130.5,134C 123.334,137.414 116.667,141.581 110.5,146.5C 109.167,146.167 107.833,145.833 106.5,145.5C 113.062,137.878 121.062,132.212 130.5,128.5C 130.167,128.167 129.833,127.833 129.5,127.5C 124.78,129.86 120.114,132.193 115.5,134.5C 115.577,133.25 116.244,132.417 117.5,132C 116.552,131.517 115.552,131.351 114.5,131.5C 125.251,124.517 136.918,119.351 149.5,116C 137.277,117.606 125.944,121.772 115.5,128.5C 115.586,127.504 115.252,126.671 114.5,126C 115.416,125.722 116.082,125.222 116.5,124.5C 119.93,121.274 123.93,118.774 128.5,117C 134.482,114.729 140.482,112.562 146.5,110.5C 146.167,110.167 145.833,109.833 145.5,109.5C 141.188,110.993 136.855,112.327 132.5,113.5C 130.539,112.166 130.539,110.5 132.5,108.5C 132.369,109.239 132.536,109.906 133,110.5C 136.785,108.738 140.618,107.071 144.5,105.5C 144.043,104.702 143.376,104.369 142.5,104.5C 141.449,103.778 140.782,102.778 140.5,101.5C 142.838,99.4957 145.505,98.329 148.5,98C 152.243,105.882 156.909,113.049 162.5,119.5 Z"/></g>
<g><path style="opacity:1" fill="#e33a36" d="M 144.5,81.5 C 140.384,87.4559 136.051,93.2892 131.5,99C 129.606,100.404 127.606,101.57 125.5,102.5C 123.962,102.547 122.962,101.88 122.5,100.5C 125.436,98.6921 128.436,96.8588 131.5,95C 133.141,93.871 134.141,92.371 134.5,90.5C 137.205,86.7946 140.538,83.7946 144.5,81.5 Z"/></g>
<g><path style="opacity:0.004" fill="#218797" d="M 173.5,98.5 C 174.167,98.5 174.833,98.5 175.5,98.5C 175.027,99.9063 174.027,100.573 172.5,100.5C 172.5,100.167 172.5,99.8333 172.5,99.5C 173.167,99.5 173.5,99.1667 173.5,98.5 Z"/></g>
<g><path style="opacity:1" fill="#6542c7" d="M 48.5,97.5 C 47.9493,100.267 46.6159,102.6 44.5,104.5C 42.9716,103.139 41.3049,101.972 39.5,101C 32.8762,101.174 26.5429,100.008 20.5,97.5C 19.3347,98.8595 19.668,99.8595 21.5,100.5C 21.6107,101.117 21.944,101.617 22.5,102C 27.6613,103.797 32.9947,104.797 38.5,105C 39.6526,106.883 41.3193,107.716 43.5,107.5C 42.5592,109.05 41.8925,110.716 41.5,112.5C 39.5669,113.642 38.0669,115.308 37,117.5C 36.6174,116.944 36.1174,116.611 35.5,116.5C 33.3294,111.662 29.6627,108.662 24.5,107.5C 21.6946,106.681 18.6946,106.181 15.5,106C 12.1137,102.587 11.7804,99.0869 14.5,95.5C 16.2883,95.0295 18.1216,94.6962 20,94.5C 29.4343,96.0409 38.9343,97.0409 48.5,97.5 Z"/></g>
<g><path style="opacity:1" fill="#0a1343" d="M 60.5,66.5 C 60.8333,66.5 61.1667,66.5 61.5,66.5C 61.3284,67.4916 61.6618,68.1583 62.5,68.5C 63.3019,69.9516 63.8019,71.6183 64,73.5C 65.4056,72.3318 66.5723,72.6652 67.5,74.5C 68.1757,73.3984 68.8423,72.3984 69.5,71.5C 69.1872,75.0419 69.5206,78.3752 70.5,81.5C 71.2472,86.7753 73.9139,90.942 78.5,94C 89.7982,98.7217 101.465,99.7217 113.5,97C 118.824,95.4794 123.157,92.6461 126.5,88.5C 127.303,89.4232 127.47,90.4232 127,91.5C 125.255,92.9557 123.422,94.289 121.5,95.5C 122.243,96.1818 122.909,96.8485 123.5,97.5C 122.449,98.2223 121.782,99.2223 121.5,100.5C 121.851,102.869 122.018,105.203 122,107.5C 118.011,109.997 114.177,112.664 110.5,115.5C 109.866,112.357 108.2,109.857 105.5,108C 98.2813,105.194 90.948,102.694 83.5,100.5C 82.8326,103.642 82.166,106.642 81.5,109.5C 81.8128,105.958 81.4794,102.625 80.5,99.5C 66.4956,93.1892 59.8289,82.1892 60.5,66.5 Z"/></g>
<g><path style="opacity:0.004" fill="#9c8f8a" d="M 170.5,100.5 C 171.167,100.5 171.833,100.5 172.5,100.5C 171.402,101.397 171.402,102.23 172.5,103C 171.207,103.49 169.873,103.657 168.5,103.5C 168.5,103.167 168.5,102.833 168.5,102.5C 169.167,102.5 169.5,102.167 169.5,101.5C 170.167,101.5 170.5,101.167 170.5,100.5 Z"/></g>
<g><path style="opacity:1" fill="#35557b" d="M 110.5,115.5 C 109.494,116.396 109.494,117.062 110.5,117.5C 110.167,118.5 109.5,119.167 108.5,119.5C 108.103,118.475 107.437,118.308 106.5,119C 104.041,121.446 101.708,123.946 99.5,126.5C 97.106,123.103 94.106,120.437 90.5,118.5C 87.8508,116.86 85.1841,115.193 82.5,113.5C 81.3065,112.728 80.3065,111.728 79.5,110.5C 79.5,110.167 79.5,109.833 79.5,109.5C 80.1667,109.5 80.8333,109.5 81.5,109.5C 82.166,106.642 82.8326,103.642 83.5,100.5C 90.948,102.694 98.2813,105.194 105.5,108C 108.2,109.857 109.866,112.357 110.5,115.5 Z"/></g>
<g><path style="opacity:1" fill="#e9cfcf" d="M 173.5,86.5 C 174.799,88.1534 174.466,89.6534 172.5,91C 165.476,94.6638 159.476,99.4972 154.5,105.5C 155.779,101.698 158.112,98.5313 161.5,96C 164.833,94 168.167,92 171.5,90C 172.823,89.1841 173.489,88.0174 173.5,86.5 Z"/></g>
<g><path style="opacity:1" fill="#dbd3e6" d="M 21.5,100.5 C 27.4199,101.793 33.4199,102.626 39.5,103C 41.751,103.748 43.0844,105.248 43.5,107.5C 41.3193,107.716 39.6526,106.883 38.5,105C 32.9947,104.797 27.6613,103.797 22.5,102C 21.944,101.617 21.6107,101.117 21.5,100.5 Z"/></g>
<g><path style="opacity:1" fill="#f7b631" d="M 54.5,104.5 C 58.6721,105.779 62.6721,107.446 66.5,109.5C 66.1667,109.833 65.8333,110.167 65.5,110.5C 62.3741,109.069 59.2074,107.736 56,106.5C 54.9701,106.164 54.4701,105.497 54.5,104.5 Z"/></g>
<g><path style="opacity:0.012" fill="#0054ff" d="M 181.5,105.5 C 182.833,106.167 182.833,106.167 181.5,105.5 Z"/></g>
<g><path style="opacity:1" fill="#d2d7dd" d="M 80.5,99.5 C 81.4794,102.625 81.8128,105.958 81.5,109.5C 80.8333,109.5 80.1667,109.5 79.5,109.5C 79.6621,107.473 79.4955,105.473 79,103.5C 78.4169,105.002 77.5836,106.335 76.5,107.5C 76.1667,107.167 75.8333,106.833 75.5,106.5C 76.4757,103.501 78.1423,101.168 80.5,99.5 Z"/></g>
<g><path style="opacity:1" fill="#f7f3ea" d="M 140.5,101.5 C 140.782,102.778 141.449,103.778 142.5,104.5C 139.482,106.4 136.149,107.733 132.5,108.5C 130.539,110.5 130.539,112.166 132.5,113.5C 126.272,116.284 120.272,119.617 114.5,123.5C 114.957,124.298 115.624,124.631 116.5,124.5C 116.082,125.222 115.416,125.722 114.5,126C 115.252,126.671 115.586,127.504 115.5,128.5C 113.618,129.221 113.285,130.221 114.5,131.5C 115.552,131.351 116.552,131.517 117.5,132C 116.244,132.417 115.577,133.25 115.5,134.5C 111.562,137.935 107.729,141.602 104,145.5C 103.333,146.167 103.333,146.833 104,147.5C 104.708,146.619 105.542,145.953 106.5,145.5C 107.833,145.833 109.167,146.167 110.5,146.5C 107.229,149.001 104.396,152.001 102,155.5C 101.5,146.173 101.334,136.839 101.5,127.5C 103.117,124.216 105.45,121.549 108.5,119.5C 109.5,119.167 110.167,118.5 110.5,117.5C 119.617,110.607 129.617,105.274 140.5,101.5 Z"/></g>
<g><path style="opacity:1" fill="#f5b222" d="M 142.5,104.5 C 143.376,104.369 144.043,104.702 144.5,105.5C 140.618,107.071 136.785,108.738 133,110.5C 132.536,109.906 132.369,109.239 132.5,108.5C 136.149,107.733 139.482,106.4 142.5,104.5 Z"/></g>
<g><path style="opacity:1" fill="#6e81e6" d="M 167.5,103.5 C 167.833,103.5 168.167,103.5 168.5,103.5C 172.833,104.167 177.167,104.833 181.5,105.5C 169.5,105.833 169.5,106.167 181.5,106.5C 182.6,107.605 183.267,108.938 183.5,110.5C 178.818,109.109 174.151,108.109 169.5,107.5C 168.194,106.533 167.527,105.199 167.5,103.5 Z"/></g>
<g><path style="opacity:0.992" fill="#2e5f6c" d="M 15.5,107.5 C 18.5,107.5 21.5,107.5 24.5,107.5C 29.6627,108.662 33.3294,111.662 35.5,116.5C 35.9754,119.313 34.9754,121.313 32.5,122.5C 34.0441,119.828 33.7107,117.495 31.5,115.5C 28.4754,110.177 23.8087,108.011 17.5,109C 16.5842,108.722 15.9175,108.222 15.5,107.5 Z"/></g>
<g><path style="opacity:0.875" fill="#c1e5d0" d="M 160.5,110.5 C 161.793,109.842 163.293,109.508 165,109.5C 170.161,110.06 175.327,110.56 180.5,111C 181.774,111.977 181.774,112.811 180.5,113.5C 179.688,112.007 178.355,111.34 176.5,111.5C 174.811,111.726 173.145,112.059 171.5,112.5C 167.966,111.078 164.3,110.411 160.5,110.5 Z"/></g>
<g><path style="opacity:0.008" fill="#29233e" d="M 186.5,118.5 C 186.784,116.585 186.451,114.919 185.5,113.5C 185.672,112.508 185.338,111.842 184.5,111.5C 184.351,110.448 184.517,109.448 185,108.5C 187.376,111.734 187.876,115.067 186.5,118.5 Z"/></g>
<g><path style="opacity:0.996" fill="#23e35c" d="M 160.5,110.5 C 164.3,110.411 167.966,111.078 171.5,112.5C 173.145,112.059 174.811,111.726 176.5,111.5C 178.355,111.34 179.688,112.007 180.5,113.5C 180.5,113.833 180.5,114.167 180.5,114.5C 180.5,115.167 180.5,115.833 180.5,116.5C 180.167,116.5 179.833,116.5 179.5,116.5C 174.573,114.914 169.573,113.581 164.5,112.5C 163.833,111.167 163.167,111.167 162.5,112.5C 161.167,112.5 160.5,111.833 160.5,110.5 Z"/></g>
<g><path style="opacity:1" fill="#f5b423" d="M 82.5,121.5 C 83.0906,122.151 83.7573,122.818 84.5,123.5C 84.0302,124.463 83.3635,124.463 82.5,123.5C 73.0371,118.009 63.0371,113.676 52.5,110.5C 62.9568,112.372 72.9568,116.038 82.5,121.5 Z"/></g>
<g><path style="opacity:0.008" fill="#afb4ca" d="M 31.5,115.5 C 31.631,116.239 31.4643,116.906 31,117.5C 30.3083,116.563 30.475,115.897 31.5,115.5 Z"/></g>
<g><path style="opacity:1" fill="#f5b529" d="M 82.5,127.5 C 83.9361,128.429 85.2695,129.595 86.5,131C 86.2716,131.399 85.9382,131.565 85.5,131.5C 74.5443,124.897 62.8776,119.73 50.5,116C 61.7196,118.13 72.3863,121.963 82.5,127.5 Z"/></g>
<g><path style="opacity:0.327" fill="#0b936a" d="M 160.5,110.5 C 160.5,111.833 161.167,112.5 162.5,112.5C 163.167,112.5 163.833,112.5 164.5,112.5C 169.573,113.581 174.573,114.914 179.5,116.5C 179.833,117.833 180.167,117.833 180.5,116.5C 181.167,116.5 181.833,116.5 182.5,116.5C 182.586,117.496 182.252,118.329 181.5,119C 178.518,119.498 175.518,119.665 172.5,119.5C 171.07,118.463 169.403,117.796 167.5,117.5C 164.878,116.967 162.378,115.967 160,114.5C 159.235,112.934 159.402,111.601 160.5,110.5 Z"/></g>
<g><path style="opacity:1" fill="#cdc3ce" d="M 82.5,113.5 C 85.1841,115.193 87.8508,116.86 90.5,118.5C 93.075,121.319 95.4083,124.319 97.5,127.5C 97.8315,136.525 97.4982,145.525 96.5,154.5C 95.8933,154.376 95.56,154.043 95.5,153.5C 96.6569,145.01 96.8236,136.343 96,127.5C 95.7508,128.624 95.2508,129.624 94.5,130.5C 92.5171,129.018 90.6837,127.351 89,125.5C 89.7203,128.265 91.3869,130.599 94,132.5C 94.6667,133.833 94.6667,135.167 94,136.5C 92.8333,135.333 91.6667,134.167 90.5,133C 89.6683,132.312 89.0016,132.479 88.5,133.5C 90.483,135.984 92.6496,138.317 95,140.5C 95.4935,142.134 95.6602,143.801 95.5,145.5C 92.8333,142.167 89.8333,139.167 86.5,136.5C 85.7672,134.75 85.4338,133.083 85.5,131.5C 85.9382,131.565 86.2716,131.399 86.5,131C 85.2695,129.595 83.9361,128.429 82.5,127.5C 83.3764,127.631 84.0431,127.298 84.5,126.5C 83.3881,125.735 82.7214,124.735 82.5,123.5C 83.3635,124.463 84.0302,124.463 84.5,123.5C 83.7573,122.818 83.0906,122.151 82.5,121.5C 83.0431,121.44 83.3764,121.107 83.5,120.5C 82.6198,118.571 81.6198,116.737 80.5,115C 80.8361,113.97 81.5028,113.47 82.5,113.5 Z"/></g>
<g><path style="opacity:1" fill="#f6b42a" d="M 114.5,131.5 C 113.285,130.221 113.618,129.221 115.5,128.5C 125.944,121.772 137.277,117.606 149.5,116C 136.918,119.351 125.251,124.517 114.5,131.5 Z"/></g>
<g><path style="opacity:1" fill="#f4b225" d="M 116.5,124.5 C 115.624,124.631 114.957,124.298 114.5,123.5C 120.272,119.617 126.272,116.284 132.5,113.5C 136.855,112.327 141.188,110.993 145.5,109.5C 145.833,109.833 146.167,110.167 146.5,110.5C 140.482,112.562 134.482,114.729 128.5,117C 123.93,118.774 119.93,121.274 116.5,124.5 Z"/></g>
<g><path style="opacity:0.006" fill="#000000" d="M 185.5,118.5 C 185.833,118.5 186.167,118.5 186.5,118.5C 186.672,119.492 186.338,120.158 185.5,120.5C 185.5,119.833 185.5,119.167 185.5,118.5 Z"/></g>
<g><path style="opacity:0.008" fill="#000080" d="M 184.5,120.5 C 184.833,120.5 185.167,120.5 185.5,120.5C 185.315,121.17 184.981,121.17 184.5,120.5 Z"/></g>
<g><path style="opacity:0.012" fill="#545554" d="M 183.5,121.5 C 183.833,121.5 184.167,121.5 184.5,121.5C 184.315,122.17 183.981,122.17 183.5,121.5 Z"/></g>
<g><path style="opacity:0.013" fill="#000000" d="M 10.5,124.5 C 11.9464,123.387 13.6131,123.22 15.5,124C 13.8659,124.494 12.1992,124.66 10.5,124.5 Z"/></g>
<g><path style="opacity:1" fill="#f4b11c" d="M 148.5,120.5 C 151.083,121.092 151.083,121.758 148.5,122.5C 144.879,123.882 141.212,124.715 137.5,125C 141.262,123.583 144.928,122.083 148.5,120.5 Z"/></g>
<g><path style="opacity:0.012" fill="#2f2961" d="M 182.5,122.5 C 182.833,122.5 183.167,122.5 183.5,122.5C 185.167,123.167 186.833,123.833 188.5,124.5C 186.585,124.216 184.919,124.549 183.5,125.5C 182.167,125.5 181.5,124.833 181.5,123.5C 182.167,123.5 182.5,123.167 182.5,122.5 Z"/></g>
<g><path style="opacity:1" fill="#f5b836" d="M 48.5,120.5 C 53.0196,121.544 57.3529,123.044 61.5,125C 57.5464,125.023 53.713,124.189 50,122.5C 48.9701,122.164 48.4701,121.497 48.5,120.5 Z"/></g>
<g><path style="opacity:0.004" fill="#000000" d="M 188.5,124.5 C 189.167,124.5 189.5,124.833 189.5,125.5C 189.167,125.167 188.833,124.833 188.5,124.5 Z"/></g>
<g><path style="opacity:0.005" fill="#000000" d="M 189.5,125.5 C 190.573,126.251 190.74,127.251 190,128.5C 189.517,127.552 189.351,126.552 189.5,125.5 Z"/></g>
<g><path style="opacity:0.333" fill="#4061c0" d="M 167.5,117.5 C 169.403,117.796 171.07,118.463 172.5,119.5C 175.507,121.175 178.84,121.841 182.5,121.5C 182.5,121.833 182.5,122.167 182.5,122.5C 181.833,122.5 181.5,122.833 181.5,123.5C 180.5,125.167 179.167,126.5 177.5,127.5C 176.508,127.328 175.842,127.662 175.5,128.5C 174.167,128.5 172.833,128.5 171.5,128.5C 169.058,128.646 168.391,127.813 169.5,126C 167.963,124.293 166.296,122.793 164.5,121.5C 164.167,121.5 163.833,121.5 163.5,121.5C 163.167,120.833 162.833,120.167 162.5,119.5C 163.552,117.744 165.219,117.077 167.5,117.5 Z M 172.5,122.5 C 174.379,122.393 174.712,122.893 173.5,124C 171.934,124.765 170.601,124.598 169.5,123.5C 170.791,123.737 171.791,123.404 172.5,122.5 Z M 165.5,119.5 C 168.157,119.935 170.491,120.935 172.5,122.5C 170.861,122.074 169.528,122.074 168.5,122.5C 167.167,121.833 166.167,120.833 165.5,119.5 Z"/></g>
<g><path style="opacity:1" fill="#383449" d="M 183.5,125.5 C 185.167,125.5 186.833,125.5 188.5,125.5C 188.5,126.167 188.5,126.833 188.5,127.5C 184.507,127.5 180.841,128.5 177.5,130.5C 177.158,129.662 176.492,129.328 175.5,129.5C 175.5,129.167 175.5,128.833 175.5,128.5C 176.492,128.672 177.158,128.338 177.5,127.5C 179.786,127.405 181.786,126.738 183.5,125.5 Z"/></g>
<g><path style="opacity:0.004" fill="#240fa2" d="M 8.5,126.5 C 9.52502,126.897 9.69169,127.563 9,128.5C 8.53566,127.906 8.36899,127.239 8.5,126.5 Z"/></g>
<g><path style="opacity:0.02" fill="#2b5761" d="M 27.5,128.5 C 26.8333,128.5 26.5,128.833 26.5,129.5C 26.1667,129.5 25.8333,129.5 25.5,129.5C 25.1583,128.662 24.4916,128.328 23.5,128.5C 23.1583,127.662 22.4916,127.328 21.5,127.5C 22.6719,126.295 24.0052,126.295 25.5,127.5C 27.0025,123.626 27.6691,123.959 27.5,128.5 Z"/></g>
<g><path style="opacity:1" fill="#edeef0" d="M 37.5,128.5 C 37.5,129.833 37.5,131.167 37.5,132.5C 34.6146,132.806 31.9479,132.473 29.5,131.5C 31.1848,127.749 33.8514,126.749 37.5,128.5 Z"/></g>
<g><path style="opacity:1" fill="#1c2232" d="M 41.5,112.5 C 39.588,116.417 37.2546,120.083 34.5,123.5C 33.7109,123.783 33.0442,124.283 32.5,125C 36.6096,126.515 40.6096,128.015 44.5,129.5C 42.139,129.326 39.8056,128.993 37.5,128.5C 33.8514,126.749 31.1848,127.749 29.5,131.5C 26.4785,132.708 26.1451,134.042 28.5,135.5C 26.8008,135.66 25.1341,135.494 23.5,135C 24.3567,134.311 25.0233,133.478 25.5,132.5C 22.1135,130.371 18.4468,129.038 14.5,128.5C 13.1667,128.5 11.8333,128.5 10.5,128.5C 10.5,127.5 10.5,126.5 10.5,125.5C 14.2488,125.751 17.9155,126.417 21.5,127.5C 21.8417,128.338 22.5084,128.672 23.5,128.5C 23.8417,129.338 24.5084,129.672 25.5,129.5C 25.8333,130.833 26.1667,130.833 26.5,129.5C 27.1667,129.5 27.5,129.167 27.5,128.5C 28.2115,125.765 29.8782,123.765 32.5,122.5C 34.9754,121.313 35.9754,119.313 35.5,116.5C 36.1174,116.611 36.6174,116.944 37,117.5C 38.0669,115.308 39.5669,113.642 41.5,112.5 Z"/></g>
<g><path style="opacity:1" fill="#a79fd8" d="M 135.5,138.5 C 138.606,136.732 141.939,135.232 145.5,134C 146.381,133.292 147.047,132.458 147.5,131.5C 150.187,131.664 152.854,131.497 155.5,131C 158.275,129.351 161.275,128.184 164.5,127.5C 167.575,129.066 170.242,131.233 172.5,134C 160.158,135.556 147.825,137.056 135.5,138.5 Z"/></g>
<g><path style="opacity:0.012" fill="#be9950" d="M 188.5,132.5 C 188.393,130.621 188.893,130.288 190,131.5C 190.667,133.5 190.667,135.5 190,137.5C 189.802,135.618 189.302,133.952 188.5,132.5 Z"/></g>
<g><path style="opacity:0.006" fill="#5f4a22" d="M 8.5,131.5 C 9.62247,133.288 9.78914,135.288 9,137.5C 8.50454,135.527 8.33788,133.527 8.5,131.5 Z"/></g>
<g><path style="opacity:1" fill="#eebb34" d="M 14.5,128.5 C 18.4468,129.038 22.1135,130.371 25.5,132.5C 25.0233,133.478 24.3567,134.311 23.5,135C 25.1341,135.494 26.8008,135.66 28.5,135.5C 27.8784,138.776 25.8784,140.109 22.5,139.5C 18.7337,137.461 14.7337,135.795 10.5,134.5C 10.2837,132.319 11.117,130.653 13,129.5C 14.1068,130.712 14.6068,130.379 14.5,128.5 Z"/></g>
<g><path style="opacity:1" fill="#f0b78b" d="M 95.5,153.5 C 94.6586,151.621 94.3253,149.621 94.5,147.5C 95.3382,147.158 95.6716,146.492 95.5,145.5C 95.6602,143.801 95.4935,142.134 95,140.5C 92.6496,138.317 90.483,135.984 88.5,133.5C 89.0016,132.479 89.6683,132.312 90.5,133C 91.6667,134.167 92.8333,135.333 94,136.5C 94.6667,135.167 94.6667,133.833 94,132.5C 91.3869,130.599 89.7203,128.265 89,125.5C 90.6837,127.351 92.5171,129.018 94.5,130.5C 95.2508,129.624 95.7508,128.624 96,127.5C 96.8236,136.343 96.6569,145.01 95.5,153.5 Z"/></g>
<g><path style="opacity:1" fill="#a097cf" d="M 163.5,121.5 C 163.833,121.5 164.167,121.5 164.5,121.5C 164.511,123.017 165.177,124.184 166.5,125C 159.91,126.737 153.576,128.904 147.5,131.5C 139.985,133.002 132.985,135.669 126.5,139.5C 117.649,142.834 110.316,148.334 104.5,156C 103.207,156.49 101.873,156.657 100.5,156.5C 100.173,146.652 100.506,136.986 101.5,127.5C 101.334,136.839 101.5,146.173 102,155.5C 104.396,152.001 107.229,149.001 110.5,146.5C 116.667,141.581 123.334,137.414 130.5,134C 140.879,130.096 151.379,126.596 162,123.5C 163.03,123.164 163.53,122.497 163.5,121.5 Z"/></g>
<g><path style="opacity:1" fill="#f5b128" d="M 106.5,145.5 C 105.542,145.953 104.708,146.619 104,147.5C 103.333,146.833 103.333,146.167 104,145.5C 107.729,141.602 111.562,137.935 115.5,134.5C 120.114,132.193 124.78,129.86 129.5,127.5C 129.833,127.833 130.167,128.167 130.5,128.5C 121.062,132.212 113.062,137.878 106.5,145.5 Z"/></g>
<g><path style="opacity:1" fill="#f0bf41" d="M 188.5,127.5 C 186.842,128.181 185.175,129.015 183.5,130C 185.452,130.366 187.118,131.199 188.5,132.5C 188.5,133.167 188.5,133.833 188.5,134.5C 183.727,136.258 178.894,137.924 174,139.5C 169.412,137.272 169.912,135.938 175.5,135.5C 175.023,134.522 174.357,133.689 173.5,133C 174.571,132.148 175.571,131.315 176.5,130.5C 176.833,130.5 177.167,130.5 177.5,130.5C 180.841,128.5 184.507,127.5 188.5,127.5 Z"/></g>
<g><path style="opacity:0.024" fill="#222222" d="M 12.5,139.5 C 11.6365,140.463 10.9698,140.463 10.5,139.5C 11.2565,138.227 11.9232,138.227 12.5,139.5 Z"/></g>
<g><path style="opacity:1" fill="#343982" d="M 147.5,131.5 C 147.047,132.458 146.381,133.292 145.5,134C 141.939,135.232 138.606,136.732 135.5,138.5C 133.371,139.203 131.371,140.203 129.5,141.5C 127.821,141.715 126.821,141.048 126.5,139.5C 132.985,135.669 139.985,133.002 147.5,131.5 Z"/></g>
<g><path style="opacity:0.004" fill="#767676" d="M 186.5,139.5 C 187.077,138.227 187.743,138.227 188.5,139.5C 188.03,140.463 187.363,140.463 186.5,139.5 Z"/></g>
<g><path style="opacity:1" fill="#938ac5" d="M 37.5,128.5 C 39.8056,128.993 42.139,129.326 44.5,129.5C 47.4488,131.461 50.7821,132.627 54.5,133C 56.8633,135.18 59.53,136.847 62.5,138C 55.9626,136.63 49.296,136.297 42.5,137C 57.3485,137.619 71.3485,141.286 84.5,148C 86.1667,149.667 87.8333,151.333 89.5,153C 88.1667,153 86.8333,153 85.5,153C 87.2415,154.62 89.0748,156.12 91,157.5C 91.5908,158.483 91.2575,159.15 90,159.5C 88.2996,157.394 86.133,155.894 83.5,155C 79.8225,153.971 76.1558,153.304 72.5,153C 76.6133,154.188 80.28,156.021 83.5,158.5C 74.7434,155.769 66.0768,153.102 57.5,150.5C 59.8568,150.663 62.1902,150.497 64.5,150C 53.1392,148.078 41.8059,148.078 30.5,150C 31.7932,150.49 33.1266,150.657 34.5,150.5C 31.3601,151.641 28.0267,151.808 24.5,151C 26.3115,149.959 26.6448,148.793 25.5,147.5C 25.6107,146.883 25.944,146.383 26.5,146C 37.8333,145.667 49.1667,145.333 60.5,145C 48.4861,144.833 36.4861,144.333 24.5,143.5C 24.8555,142.478 25.5222,141.811 26.5,141.5C 32.6783,142.817 39.0117,142.817 45.5,141.5C 41.2044,140.672 36.8711,140.172 32.5,140C 33.8228,139.184 34.4894,138.017 34.5,136.5C 36.5273,136.662 38.5273,136.495 40.5,136C 36.5138,135.501 32.5138,135.334 28.5,135.5C 26.1451,134.042 26.4785,132.708 29.5,131.5C 31.9479,132.473 34.6146,132.806 37.5,132.5C 37.5,131.167 37.5,129.833 37.5,128.5 Z"/></g>
<g><path style="opacity:1" fill="#a195d2" d="M 34.5,123.5 C 47.4516,126.762 60.1183,130.928 72.5,136C 78.8747,139.047 84.708,142.881 90,147.5C 90.49,146.207 90.6567,144.873 90.5,143.5C 92.1667,144.5 93.5,145.833 94.5,147.5C 94.3253,149.621 94.6586,151.621 95.5,153.5C 95.56,154.043 95.8933,154.376 96.5,154.5C 97.4982,145.525 97.8315,136.525 97.5,127.5C 98.4938,136.986 98.8271,146.652 98.5,156.5C 97.1266,156.657 95.7932,156.49 94.5,156C 84.3942,144.521 71.8942,136.688 57,132.5C 52.8902,131.184 48.7235,130.184 44.5,129.5C 40.6096,128.015 36.6096,126.515 32.5,125C 33.0442,124.283 33.7109,123.783 34.5,123.5 Z"/></g>
<g><path style="opacity:1" fill="#f3b02a" d="M 86.5,136.5 C 89.8333,139.167 92.8333,142.167 95.5,145.5C 95.6716,146.492 95.3382,147.158 94.5,147.5C 93.5,145.833 92.1667,144.5 90.5,143.5C 84.2988,136.987 76.9654,131.987 68.5,128.5C 68.8333,128.167 69.1667,127.833 69.5,127.5C 75.3788,130.271 81.0454,133.271 86.5,136.5 Z"/></g>
<g><path style="opacity:1" fill="#e1dfeb" d="M 164.5,136.5 C 168.175,136.5 170.841,138.167 172.5,141.5C 165.345,142.655 158.012,142.822 150.5,142C 155.689,140.879 161.022,140.045 166.5,139.5C 165.388,138.735 164.721,137.735 164.5,136.5 Z"/></g>
<g><path style="opacity:1" fill="#24222f" d="M 164.5,121.5 C 166.296,122.793 167.963,124.293 169.5,126C 168.391,127.813 169.058,128.646 171.5,128.5C 172.403,130.62 173.737,130.954 175.5,129.5C 175.5,130.167 175.833,130.5 176.5,130.5C 175.571,131.315 174.571,132.148 173.5,133C 174.357,133.689 175.023,134.522 175.5,135.5C 169.912,135.938 169.412,137.272 174,139.5C 178.894,137.924 183.727,136.258 188.5,134.5C 188.5,135.5 188.5,136.5 188.5,137.5C 187.127,137.343 185.793,137.51 184.5,138C 185.044,138.717 185.711,139.217 186.5,139.5C 186.081,143.61 186.748,147.61 188.5,151.5C 186.495,152.039 184.495,152.705 182.5,153.5C 182.624,154.107 182.957,154.44 183.5,154.5C 183.328,155.492 183.662,156.158 184.5,156.5C 184.5,157.167 184.833,157.5 185.5,157.5C 186.167,159.167 186.833,160.833 187.5,162.5C 187.167,162.5 186.833,162.5 186.5,162.5C 184.523,160.186 182.523,157.853 180.5,155.5C 180.403,157.834 181.403,160 183.5,162C 182.906,162.464 182.239,162.631 181.5,162.5C 162.5,161.833 143.5,161.167 124.5,160.5C 142.845,160.833 161.179,160.5 179.5,159.5C 179.376,158.893 179.043,158.56 178.5,158.5C 177.791,157.596 176.791,157.263 175.5,157.5C 176.688,156.636 177.855,155.636 179,154.5C 179.692,153.563 179.525,152.897 178.5,152.5C 176.833,151.167 175.167,149.833 173.5,148.5C 173.586,147.504 173.252,146.671 172.5,146C 161.167,145.667 149.833,145.333 138.5,145C 150.514,144.833 162.514,144.333 174.5,143.5C 174.145,142.478 173.478,141.811 172.5,141.5C 170.841,138.167 168.175,136.5 164.5,136.5C 152.681,137.141 141.014,138.808 129.5,141.5C 131.371,140.203 133.371,139.203 135.5,138.5C 147.825,137.056 160.158,135.556 172.5,134C 170.242,131.233 167.575,129.066 164.5,127.5C 161.275,128.184 158.275,129.351 155.5,131C 152.854,131.497 150.187,131.664 147.5,131.5C 153.576,128.904 159.91,126.737 166.5,125C 165.177,124.184 164.511,123.017 164.5,121.5 Z"/></g>
<g><path style="opacity:1" fill="#deddeb" d="M 34.5,136.5 C 34.4894,138.017 33.8228,139.184 32.5,140C 36.8711,140.172 41.2044,140.672 45.5,141.5C 39.0117,142.817 32.6783,142.817 26.5,141.5C 28.1587,138.167 30.8254,136.5 34.5,136.5 Z"/></g>
<g><path style="opacity:0.988" fill="#4abe7a" d="M 176.5,139.5 C 178.857,139.337 181.19,139.503 183.5,140C 184.337,141.011 184.67,142.178 184.5,143.5C 181.813,143.664 179.146,143.497 176.5,143C 175.316,141.855 175.316,140.688 176.5,139.5 Z"/></g>
<g><path style="opacity:1" fill="#8a80b9" d="M 164.5,136.5 C 164.721,137.735 165.388,138.735 166.5,139.5C 161.022,140.045 155.689,140.879 150.5,142C 158.012,142.822 165.345,142.655 172.5,141.5C 173.478,141.811 174.145,142.478 174.5,143.5C 162.514,144.333 150.514,144.833 138.5,145C 149.833,145.333 161.167,145.667 172.5,146C 173.252,146.671 173.586,147.504 173.5,148.5C 173.414,149.496 173.748,150.329 174.5,151C 172.613,151.78 170.946,151.613 169.5,150.5C 155.166,147.401 140.832,147.901 126.5,152C 129.8,151.954 133.134,151.788 136.5,151.5C 132.928,153.083 129.262,154.583 125.5,156C 126.448,156.483 127.448,156.649 128.5,156.5C 128.5,156.833 128.5,157.167 128.5,157.5C 143.274,158.233 158.774,158.9 175,159.5C 176.385,159.486 177.551,159.152 178.5,158.5C 179.043,158.56 179.376,158.893 179.5,159.5C 161.179,160.5 142.845,160.833 124.5,160.5C 120.486,160.666 116.486,160.499 112.5,160C 113.696,159.346 113.696,158.846 112.5,158.5C 111.554,158.987 110.554,159.32 109.5,159.5C 108.425,158.301 107.425,157.134 106.5,156C 109.5,153 112.5,150 115.5,147C 120.306,145.237 124.972,143.404 129.5,141.5C 141.014,138.808 152.681,137.141 164.5,136.5 Z"/></g>
<g><path style="opacity:0.718" fill="#e58b20" d="M 174.5,145.5 C 179.226,144.617 183.226,145.784 186.5,149C 182.818,149.222 179.152,148.889 175.5,148C 174.748,147.329 174.414,146.496 174.5,145.5 Z"/></g>
<g><path style="opacity:0.01" fill="#1c1c1c" d="M 189.5,151.5 C 189.343,150.127 189.51,148.793 190,147.5C 190.765,149.066 190.598,150.399 189.5,151.5 Z"/></g>
<g><path style="opacity:1" fill="#1b1936" d="M 57.5,150.5 C 49.8333,150.5 42.1667,150.5 34.5,150.5C 33.1266,150.657 31.7932,150.49 30.5,150C 41.8059,148.078 53.1392,148.078 64.5,150C 62.1902,150.497 59.8568,150.663 57.5,150.5 Z"/></g>
<g><path style="opacity:1" fill="#191732" d="M 169.5,150.5 C 158.462,150.235 147.462,150.568 136.5,151.5C 133.134,151.788 129.8,151.954 126.5,152C 140.832,147.901 155.166,147.401 169.5,150.5 Z"/></g>
<g><path style="opacity:1" fill="#e3e1ec" d="M 25.5,147.5 C 26.6448,148.793 26.3115,149.959 24.5,151C 28.0267,151.808 31.3601,151.641 34.5,150.5C 42.1667,150.5 49.8333,150.5 57.5,150.5C 66.0768,153.102 74.7434,155.769 83.5,158.5C 83.8333,158.5 84.1667,158.5 84.5,158.5C 63.1398,158.779 41.8064,158.779 20.5,158.5C 21.9516,157.698 23.6183,157.198 25.5,157C 39.5154,156.237 53.5154,156.404 67.5,157.5C 68.8333,157.333 70.1667,157.167 71.5,157C 68.8832,156.178 66.2165,155.678 63.5,155.5C 61.7078,154.691 59.7078,154.191 57.5,154C 44.9932,153.831 32.6599,153.331 20.5,152.5C 22.5,151.167 24.1667,149.5 25.5,147.5 Z"/></g>
<g><path style="opacity:0.004" fill="#000000" d="M 188.5,151.5 C 188.833,151.5 189.167,151.5 189.5,151.5C 189.315,152.17 188.981,152.17 188.5,151.5 Z"/></g>
<g><path style="opacity:1" fill="#e0dfeb" d="M 173.5,148.5 C 175.167,149.833 176.833,151.167 178.5,152.5C 165.673,153.331 152.673,153.831 139.5,154C 137.618,154.198 135.952,154.698 134.5,155.5C 132.565,156.15 130.565,156.483 128.5,156.5C 127.448,156.649 126.448,156.483 125.5,156C 129.262,154.583 132.928,153.083 136.5,151.5C 147.462,150.568 158.462,150.235 169.5,150.5C 170.946,151.613 172.613,151.78 174.5,151C 173.748,150.329 173.414,149.496 173.5,148.5 Z"/></g>
<g><path style="opacity:0.922" fill="#21182b" d="M 10.5,134.5 C 14.7337,135.795 18.7337,137.461 22.5,139.5C 25.8784,140.109 27.8784,138.776 28.5,135.5C 32.5138,135.334 36.5138,135.501 40.5,136C 38.5273,136.495 36.5273,136.662 34.5,136.5C 30.8254,136.5 28.1587,138.167 26.5,141.5C 25.5222,141.811 24.8555,142.478 24.5,143.5C 36.4861,144.333 48.4861,144.833 60.5,145C 49.1667,145.333 37.8333,145.667 26.5,146C 25.944,146.383 25.6107,146.883 25.5,147.5C 24.1667,149.5 22.5,151.167 20.5,152.5C 19.4925,154.268 20.1592,155.601 22.5,156.5C 36.1174,155.518 49.7841,155.185 63.5,155.5C 66.2165,155.678 68.8832,156.178 71.5,157C 70.1667,157.167 68.8333,157.333 67.5,157.5C 53.5154,156.404 39.5154,156.237 25.5,157C 23.6183,157.198 21.9516,157.698 20.5,158.5C 19.9569,158.56 19.6236,158.893 19.5,159.5C 41.6629,160.167 63.6629,160.833 85.5,161.5C 62.5,161.5 39.5,161.5 16.5,161.5C 17.2371,159.695 18.2371,158.029 19.5,156.5C 18.9984,155.479 18.3317,155.312 17.5,156C 15.432,158.642 13.7653,161.475 12.5,164.5C 36.5,165.833 60.5,167.167 84.5,168.5C 60.7356,167.173 37.0689,167.173 13.5,168.5C 13.1667,168.5 12.8333,168.5 12.5,168.5C 11.8333,168.167 11.1667,167.833 10.5,167.5C 10.5,165.833 10.5,164.167 10.5,162.5C 11.8897,161.101 12.8897,159.434 13.5,157.5C 14.1667,157.5 14.5,157.167 14.5,156.5C 15.3382,156.158 15.6716,155.492 15.5,154.5C 16.1667,154.5 16.5,154.167 16.5,153.5C 16.1667,153.5 15.8333,153.5 15.5,153.5C 10.2623,152.582 9.2623,149.916 12.5,145.5C 11.3775,143.518 11.3775,141.518 12.5,139.5C 13.0431,139.44 13.3764,139.107 13.5,138.5C 12.675,137.614 11.675,137.281 10.5,137.5C 10.5,136.5 10.5,135.5 10.5,134.5 Z M 16.5,153.5 C 16.5173,151.972 17.184,151.472 18.5,152C 17.9558,152.717 17.2891,153.217 16.5,153.5 Z"/></g>
<g><path style="opacity:0.643" fill="#df9822" d="M 17.5,148.5 C 16.8333,147.167 16.1667,147.167 15.5,148.5C 11.8501,149.494 11.8501,148.66 15.5,146C 18.5541,145.179 21.5541,145.345 24.5,146.5C 22.9233,149.787 20.5899,150.454 17.5,148.5 Z"/></g>
<g><path style="opacity:1" fill="#53bc81" d="M 22.5,139.5 C 23.6843,140.688 23.6843,141.855 22.5,143C 19.854,143.497 17.1873,143.664 14.5,143.5C 14.33,142.178 14.6634,141.011 15.5,140C 17.8098,139.503 20.1432,139.337 22.5,139.5 Z"/></g>
<g><path style="opacity:0.009" fill="#131313" d="M 15.5,153.5 C 15.5,153.833 15.5,154.167 15.5,154.5C 14.6618,154.842 14.3284,155.508 14.5,156.5C 13.8333,156.5 13.5,156.833 13.5,157.5C 12.2264,156.811 12.2264,155.977 13.5,155C 12.8333,154.667 12.1667,154.333 11.5,154C 12.7932,153.51 14.1266,153.343 15.5,153.5 Z"/></g>
<g><path style="opacity:1" fill="#7872a7" d="M 20.5,152.5 C 32.6599,153.331 44.9932,153.831 57.5,154C 59.7078,154.191 61.7078,154.691 63.5,155.5C 49.7841,155.185 36.1174,155.518 22.5,156.5C 20.1592,155.601 19.4925,154.268 20.5,152.5 Z"/></g>
<g><path style="opacity:1" fill="#8d87bb" d="M 178.5,152.5 C 179.525,152.897 179.692,153.563 179,154.5C 177.855,155.636 176.688,156.636 175.5,157.5C 172.615,157.806 169.948,157.473 167.5,156.5C 169.199,156.66 170.866,156.494 172.5,156C 159.842,154.389 147.175,154.222 134.5,155.5C 135.952,154.698 137.618,154.198 139.5,154C 152.673,153.831 165.673,153.331 178.5,152.5 Z"/></g>
<g><path style="opacity:0.008" fill="#3e2840" d="M 183.5,154.5 C 184.601,153.402 185.934,153.235 187.5,154C 186.833,154.333 186.167,154.667 185.5,155C 186.774,155.977 186.774,156.811 185.5,157.5C 184.833,157.5 184.5,157.167 184.5,156.5C 184.672,155.508 184.338,154.842 183.5,154.5 Z"/></g>
<g><path style="opacity:1" fill="#201f37" d="M 167.5,156.5 C 154.48,156.313 141.48,156.646 128.5,157.5C 128.5,157.167 128.5,156.833 128.5,156.5C 130.565,156.483 132.565,156.15 134.5,155.5C 147.175,154.222 159.842,154.389 172.5,156C 170.866,156.494 169.199,156.66 167.5,156.5 Z"/></g>
<g><path style="opacity:1" fill="#eae9f1" d="M 167.5,156.5 C 169.948,157.473 172.615,157.806 175.5,157.5C 176.791,157.263 177.791,157.596 178.5,158.5C 177.551,159.152 176.385,159.486 175,159.5C 158.774,158.9 143.274,158.233 128.5,157.5C 141.48,156.646 154.48,156.313 167.5,156.5 Z"/></g>
<g><path style="opacity:1" fill="#685eb5" d="M 20.5,158.5 C 41.8064,158.779 63.1398,158.779 84.5,158.5C 88.6337,159.807 88.967,160.807 85.5,161.5C 63.6629,160.833 41.6629,160.167 19.5,159.5C 19.6236,158.893 19.9569,158.56 20.5,158.5 Z"/></g>
<g><path style="opacity:0.009" fill="#000000" d="M 10.5,162.5 C 8.86839,165.209 8.36839,164.875 9,161.5C 10.1068,160.288 10.6068,160.621 10.5,162.5 Z"/></g>
<g><path style="opacity:0.012" fill="#000000" d="M 189.5,161.5 C 188.833,160.167 188.833,160.167 189.5,161.5 Z"/></g>
<g><path style="opacity:0.009" fill="#000000" d="M 189.5,161.5 C 190.573,162.251 190.74,163.251 190,164.5C 189.517,163.552 189.351,162.552 189.5,161.5 Z"/></g>
<g><path style="opacity:1" fill="#211637" d="M 90.5,118.5 C 94.106,120.437 97.106,123.103 99.5,126.5C 101.708,123.946 104.041,121.446 106.5,119C 107.437,118.308 108.103,118.475 108.5,119.5C 105.45,121.549 103.117,124.216 101.5,127.5C 100.506,136.986 100.173,146.652 100.5,156.5C 101.873,156.657 103.207,156.49 104.5,156C 110.316,148.334 117.649,142.834 126.5,139.5C 126.821,141.048 127.821,141.715 129.5,141.5C 124.972,143.404 120.306,145.237 115.5,147C 112.5,150 109.5,153 106.5,156C 107.425,157.134 108.425,158.301 109.5,159.5C 110.554,159.32 111.554,158.987 112.5,158.5C 113.696,158.846 113.696,159.346 112.5,160C 116.486,160.499 120.486,160.666 124.5,160.5C 143.5,161.167 162.5,161.833 181.5,162.5C 158.327,162.169 135.327,162.502 112.5,163.5C 110.723,169.915 106.389,172.915 99.5,172.5C 92.4867,172.985 88.1534,169.819 86.5,163C 62.4272,162.838 39.0938,162.338 16.5,161.5C 39.5,161.5 62.5,161.5 85.5,161.5C 88.967,160.807 88.6337,159.807 84.5,158.5C 84.1667,158.5 83.8333,158.5 83.5,158.5C 80.28,156.021 76.6133,154.188 72.5,153C 76.1558,153.304 79.8225,153.971 83.5,155C 86.133,155.894 88.2996,157.394 90,159.5C 91.2575,159.15 91.5908,158.483 91,157.5C 89.0748,156.12 87.2415,154.62 85.5,153C 86.8333,153 88.1667,153 89.5,153C 87.8333,151.333 86.1667,149.667 84.5,148C 71.3485,141.286 57.3485,137.619 42.5,137C 49.296,136.297 55.9626,136.63 62.5,138C 59.53,136.847 56.8633,135.18 54.5,133C 50.7821,132.627 47.4488,131.461 44.5,129.5C 48.7235,130.184 52.8902,131.184 57,132.5C 71.8942,136.688 84.3942,144.521 94.5,156C 95.7932,156.49 97.1266,156.657 98.5,156.5C 98.8271,146.652 98.4938,136.986 97.5,127.5C 95.4083,124.319 93.075,121.319 90.5,118.5 Z"/></g>
<g><path style="opacity:1" fill="#d7ab43" d="M 96.5,157.5 C 101.701,156.936 105.701,158.77 108.5,163C 108.167,163.5 107.833,164 107.5,164.5C 101.662,158.944 96.1617,159.277 91,165.5C 90.3333,164.167 90.3333,162.833 91,161.5C 92.8121,160.023 94.6455,158.69 96.5,157.5 Z"/></g>
<g><path style="opacity:1" fill="#f1d022" d="M 186.5,162.5 C 186.5,163.167 186.5,163.833 186.5,164.5C 161.81,163.843 137.477,164.51 113.5,166.5C 112.596,165.791 112.263,164.791 112.5,163.5C 135.327,162.502 158.327,162.169 181.5,162.5C 182.239,162.631 182.906,162.464 183.5,162C 181.403,160 180.403,157.834 180.5,155.5C 182.523,157.853 184.523,160.186 186.5,162.5 Z"/></g>
<g><path style="opacity:1" fill="#b82340" d="M 12.5,164.5 C 36.8333,164.5 61.1667,164.5 85.5,164.5C 85.3433,165.873 85.51,167.207 86,168.5C 87.3756,169.705 88.5423,171.038 89.5,172.5C 88.8333,172.5 88.1667,172.5 87.5,172.5C 85.7376,171.738 84.7376,170.404 84.5,168.5C 60.5,167.167 36.5,165.833 12.5,164.5 Z"/></g>
<g><path style="opacity:1" fill="#c63134" d="M 186.5,164.5 C 186.5,164.833 186.5,165.167 186.5,165.5C 162.5,165.5 138.5,165.5 114.5,165.5C 114.737,166.791 114.404,167.791 113.5,168.5C 113.5,167.833 113.5,167.167 113.5,166.5C 137.477,164.51 161.81,163.843 186.5,164.5 Z"/></g>
<g><path style="opacity:0.008" fill="#000000" d="M 9.5,167.5 C 8.47498,167.103 8.30831,166.437 9,165.5C 9.46434,166.094 9.63101,166.761 9.5,167.5 Z"/></g>
<g><path style="opacity:1" fill="#9d0755" d="M 186.5,165.5 C 163.006,166.498 139.339,166.831 115.5,166.5C 113.606,172.217 109.606,175.717 103.5,177C 97.3067,178.209 91.9734,176.709 87.5,172.5C 88.1667,172.5 88.8333,172.5 89.5,172.5C 98.6439,177.361 106.644,176.027 113.5,168.5C 114.404,167.791 114.737,166.791 114.5,165.5C 138.5,165.5 162.5,165.5 186.5,165.5 Z"/></g>
<g><path style="opacity:0.008" fill="#3b3b3b" d="M 189.5,168.5 C 189.351,167.448 189.517,166.448 190,165.5C 190.74,166.749 190.573,167.749 189.5,168.5 Z"/></g>
<g><path style="opacity:0.008" fill="#000000" d="M 9.5,167.5 C 9.83333,167.5 10.1667,167.5 10.5,167.5C 10.3147,168.17 9.98135,168.17 9.5,167.5 Z"/></g>
<g><path style="opacity:0.004" fill="#fefffe" d="M 188.5,168.5 C 188.833,168.5 189.167,168.5 189.5,168.5C 189.315,169.17 188.981,169.17 188.5,168.5 Z"/></g>
<g><path style="opacity:1" fill="#ecc13d" d="M 16.5,161.5 C 39.0938,162.338 62.4272,162.838 86.5,163C 88.1534,169.819 92.4867,172.985 99.5,172.5C 106.389,172.915 110.723,169.915 112.5,163.5C 112.263,164.791 112.596,165.791 113.5,166.5C 113.5,167.167 113.5,167.833 113.5,168.5C 106.644,176.027 98.6439,177.361 89.5,172.5C 88.5423,171.038 87.3756,169.705 86,168.5C 85.51,167.207 85.3433,165.873 85.5,164.5C 61.1667,164.5 36.8333,164.5 12.5,164.5C 13.7653,161.475 15.432,158.642 17.5,156C 18.3317,155.312 18.9984,155.479 19.5,156.5C 18.2371,158.029 17.2371,159.695 16.5,161.5 Z"/></g>
<g><path style="opacity:0.012" fill="#926890" d="M 186.5,169.5 C 187.167,169.5 187.833,169.5 188.5,169.5C 188.167,170.167 187.833,170.833 187.5,171.5C 187.167,171.5 186.833,171.5 186.5,171.5C 186.5,170.833 186.5,170.167 186.5,169.5 Z"/></g>
<g><path style="opacity:1" fill="#140831" d="M 186.5,162.5 C 186.833,162.5 187.167,162.5 187.5,162.5C 188.461,164.265 188.795,166.265 188.5,168.5C 187.833,168.5 187.167,168.5 186.5,168.5C 185.167,168.5 184.5,169.167 184.5,170.5C 162.831,170.333 141.164,170.5 119.5,171C 118.29,172.039 117.29,173.206 116.5,174.5C 105.234,182.45 93.9005,182.45 82.5,174.5C 81.7101,173.206 80.7101,172.039 79.5,171C 58.1693,170.5 36.8359,170.333 15.5,170.5C 15.5,169.167 14.8333,168.5 13.5,168.5C 37.0689,167.173 60.7356,167.173 84.5,168.5C 84.7376,170.404 85.7376,171.738 87.5,172.5C 91.9734,176.709 97.3067,178.209 103.5,177C 109.606,175.717 113.606,172.217 115.5,166.5C 139.339,166.831 163.006,166.498 186.5,165.5C 186.5,165.167 186.5,164.833 186.5,164.5C 186.5,163.833 186.5,163.167 186.5,162.5 Z"/></g>
<g><path style="opacity:1" fill="#bc82a6" d="M 12.5,168.5 C 12.8333,168.5 13.1667,168.5 13.5,168.5C 14.8333,168.5 15.5,169.167 15.5,170.5C 14.5655,171.568 14.2322,172.901 14.5,174.5C 37.1667,174.5 59.8333,174.5 82.5,174.5C 93.9005,182.45 105.234,182.45 116.5,174.5C 139.51,174.833 162.51,174.5 185.5,173.5C 184.873,172.583 184.539,171.583 184.5,170.5C 184.5,169.167 185.167,168.5 186.5,168.5C 186.5,168.833 186.5,169.167 186.5,169.5C 185.167,170.167 185.167,170.833 186.5,171.5C 186.5,172.167 186.5,172.833 186.5,173.5C 164.522,175.325 142.189,176.158 119.5,176C 118.944,176.383 118.611,176.883 118.5,177.5C 115.324,178.34 112.658,180.007 110.5,182.5C 109.391,183.29 108.058,183.79 106.5,184C 101.845,184.499 97.1785,184.666 92.5,184.5C 91.0697,183.463 89.403,182.796 87.5,182.5C 87.1583,181.662 86.4916,181.328 85.5,181.5C 85.5,181.167 85.5,180.833 85.5,180.5C 84.5994,178.273 82.9328,177.273 80.5,177.5C 80.3893,176.883 80.056,176.383 79.5,176C 57.5025,175.5 35.5025,175.333 13.5,175.5C 13.5,174.5 13.5,173.5 13.5,172.5C 13.5674,171.041 13.2341,169.708 12.5,168.5 Z"/></g>
<g><path style="opacity:1" fill="#6551b2" d="M 184.5,170.5 C 184.539,171.583 184.873,172.583 185.5,173.5C 162.51,174.5 139.51,174.833 116.5,174.5C 117.29,173.206 118.29,172.039 119.5,171C 141.164,170.5 162.831,170.333 184.5,170.5 Z"/></g>
<g><path style="opacity:1" fill="#6251b3" d="M 15.5,170.5 C 36.8359,170.333 58.1693,170.5 79.5,171C 80.7101,172.039 81.7101,173.206 82.5,174.5C 59.8333,174.5 37.1667,174.5 14.5,174.5C 14.2322,172.901 14.5655,171.568 15.5,170.5 Z"/></g>
<g><path style="opacity:0.008" fill="#fe9682" d="M 187.5,171.5 C 190.163,173.111 190.663,175.111 189,177.5C 188.79,175.942 188.29,174.609 187.5,173.5C 187.5,172.833 187.5,172.167 187.5,171.5 Z"/></g>
<g><path style="opacity:0.991" fill="#dc8c78" d="M 13.5,172.5 C 13.5,173.5 13.5,174.5 13.5,175.5C 35.5025,175.333 57.5025,175.5 79.5,176C 80.056,176.383 80.3893,176.883 80.5,177.5C 57.788,177.812 35.1214,177.479 12.5,176.5C 11.1472,174.872 11.4805,173.538 13.5,172.5 Z"/></g>
<g><path style="opacity:0.992" fill="#dc8c79" d="M 186.5,173.5 C 186.833,173.5 187.167,173.5 187.5,173.5C 187.737,174.791 187.404,175.791 186.5,176.5C 163.879,177.479 141.212,177.812 118.5,177.5C 118.611,176.883 118.944,176.383 119.5,176C 142.189,176.158 164.522,175.325 186.5,173.5 Z"/></g>
<g><path style="opacity:0.004" fill="#ffbcb0" d="M 12.5,177.5 C 12.5,178.167 12.8333,178.5 13.5,178.5C 13.5,179.167 13.8333,179.5 14.5,179.5C 14.1034,180.525 13.4368,180.692 12.5,180C 11.2264,179.023 11.2264,178.189 12.5,177.5 Z"/></g>
<g><path style="opacity:1" fill="#edbfaa" d="M 12.5,177.5 C 12.5,177.167 12.5,176.833 12.5,176.5C 35.1214,177.479 57.788,177.812 80.5,177.5C 82.9328,177.273 84.5994,178.273 85.5,180.5C 61.7585,180.823 38.0918,180.489 14.5,179.5C 13.8333,179.5 13.5,179.167 13.5,178.5C 12.8333,178.5 12.5,178.167 12.5,177.5 Z"/></g>
<g><path style="opacity:1" fill="#eec1ab" d="M 186.5,176.5 C 186.167,177.167 185.833,177.833 185.5,178.5C 180.076,179.786 174.41,180.452 168.5,180.5C 160.76,180.016 153.093,180.016 145.5,180.5C 144.5,179.167 143.5,179.167 142.5,180.5C 133.651,180.174 124.984,180.507 116.5,181.5C 115.833,181.5 115.5,181.833 115.5,182.5C 113.833,182.5 112.167,182.5 110.5,182.5C 112.658,180.007 115.324,178.34 118.5,177.5C 141.212,177.812 163.879,177.479 186.5,176.5 Z"/></g>
<g><path style="opacity:0.004" fill="#bab89b" d="M 185.5,178.5 C 188.001,178.511 188.168,179.178 186,180.5C 185.536,179.906 185.369,179.239 185.5,178.5 Z"/></g>
<g><path style="opacity:0.016" fill="#d89671" d="M 85.5,181.5 C 85.8417,182.338 86.5084,182.672 87.5,182.5C 64.2515,182.675 40.9182,182.842 17.5,183C 16.8333,182.667 16.1667,182.333 15.5,182C 39.0393,181.527 62.3726,181.361 85.5,181.5 Z"/></g>
<g><path style="opacity:0.016" fill="#e7ad85" d="M 142.5,180.5 C 143.5,180.5 144.5,180.5 145.5,180.5C 146.609,181.29 147.942,181.79 149.5,182C 148.667,182.167 147.833,182.333 147,182.5C 136.475,182.744 125.975,182.744 115.5,182.5C 116.167,182.5 116.5,182.167 116.5,181.5C 125.349,181.826 134.016,181.493 142.5,180.5 Z"/></g>
<g><path style="opacity:0.012" fill="#d48e76" d="M 151.5,182.5 C 162.326,181.341 173.326,181.174 184.5,182C 180.863,182.717 177.196,183.217 173.5,183.5C 166.188,182.697 158.854,182.364 151.5,182.5 Z"/></g>
<g><path style="opacity:0.008" fill="#8f508e" d="M 92.5,184.5 C 97.3165,185.326 102.316,185.826 107.5,186C 101.388,186.909 95.3877,186.576 89.5,185C 90.448,184.517 91.448,184.351 92.5,184.5 Z"/></g>
</svg>
